VesperLibre-Heavy.ufo
<glyph name="quotedbl" format="1">
  <advance width="852"/>
  <unicode hex="0022"/>
  <outline>
    <contour>
      <point x="105" y="1400" type="line"/>
      <point x="105" y="954" type="line"/>
      <point x="328" y="905" type="line"/>
      <point x="345" y="1055"/>
      <point x="355" y="1247"/>
      <point x="356" y="1400" type="curve"/>
    </contour>
    <contour>
      <point x="492" y="1400" type="line"/>
      <point x="492" y="954" type="line"/>
      <point x="715" y="905" type="line"/>
      <point x="732" y="1055"/>
      <point x="742" y="1247"/>
      <point x="743" y="1400" type="curve"/>
    </contour>
  </outline>
</glyph>
<glyph name="dollar" format="1">
  <advance width="1099"/>
  <unicode hex="0024"/>
  <outline>
    <contour>
      <point x="1042" y="624"/>
      <point x="878" y="731"/>
      <point x="733" y="792" type="curve" smooth="yes"/>
      <point x="671" y="818" type="line"/>
      <point x="744" y="1210" type="line"/>
      <point x="837" y="1004" type="line"/>
      <point x="978" y="1035" type="line"/>
      <point x="949" y="1325" type="line"/>
      <point x="867" y="1318" type="line"/>
      <point x="852" y="1321"/>
      <point x="814" y="1329"/>
      <point x="767" y="1335" type="curve"/>
      <point x="792" y="1469" type="line"/>
      <point x="628" y="1467" type="line"/>
      <point x="609" y="1345" type="line"/>
      <point x="307" y="1338"/>
      <point x="106" y="1189"/>
      <point x="106" y="962" type="curve" smooth="yes"/>
      <point x="106" y="778"/>
      <point x="237" y="685"/>
      <point x="453" y="581" type="curve" smooth="yes"/>
      <point x="466" y="575" type="line"/>
      <point x="383" y="138" type="line"/>
      <point x="352" y="139"/>
      <point x="324" y="141"/>
      <point x="294" y="145" type="curve"/>
      <point x="273" y="348" type="line"/>
      <point x="119" y="388" type="line"/>
      <point x="54" y="110" type="line"/>
      <point x="121" y="72"/>
      <point x="231" y="32"/>
      <point x="359" y="13" type="curve"/>
      <point x="328" y="-148" type="line"/>
      <point x="484" y="-143" type="line"/>
      <point x="508" y="3" type="line"/>
      <point x="839" y="6"/>
      <point x="1042" y="168"/>
      <point x="1042" y="417" type="curve" smooth="yes"/>
    </contour>
    <contour>
      <point x="401" y="1077"/>
      <point x="404" y="1094"/>
      <point x="413" y="1110" type="curve"/>
      <point x="445" y="1152"/>
      <point x="510" y="1188"/>
      <point x="588" y="1210" type="curve"/>
      <point x="536" y="882" type="line"/>
      <point x="450" y="929"/>
      <point x="401" y="980"/>
      <point x="401" y="1059" type="curve" smooth="yes"/>
    </contour>
    <contour>
      <point x="641" y="216"/>
      <point x="588" y="182"/>
      <point x="534" y="160" type="curve"/>
      <point x="591" y="503" type="line"/>
      <point x="650" y="462"/>
      <point x="697" y="409"/>
      <point x="697" y="343" type="curve" smooth="yes"/>
      <point x="697" y="301"/>
      <point x="683" y="269"/>
      <point x="669" y="252" type="curve" smooth="yes"/>
    </contour>
  </outline>
</glyph>
<glyph name="ampersand" format="1">
  <advance width="1645"/>
  <unicode hex="0026"/>
  <outline>
    <contour>
      <point x="1604" y="74" type="line"/>
      <point x="1456" y="125" type="line"/>
      <point x="1364" y="210"/>
      <point x="1332" y="238"/>
      <point x="1185" y="383" type="curve"/>
      <point x="1340" y="497"/>
      <point x="1409" y="664"/>
      <point x="1409" y="835" type="curve"/>
      <point x="1525" y="865" type="line"/>
      <point x="1539" y="950" type="line"/>
      <point x="1093" y="950" type="line"/>
      <point x="1073" y="874" type="line"/>
      <point x="1174" y="840" type="line"/>
      <point x="1179" y="808"/>
      <point x="1181" y="775"/>
      <point x="1181" y="742" type="curve" smooth="yes"/>
      <point x="1181" y="642"/>
      <point x="1160" y="539"/>
      <point x="1117" y="450" type="curve"/>
      <point x="745" y="816" type="line"/>
      <point x="876" y="871"/>
      <point x="1010" y="974"/>
      <point x="1010" y="1133" type="curve" smooth="yes"/>
      <point x="1010" y="1334"/>
      <point x="842" y="1419"/>
      <point x="607" y="1419" type="curve" smooth="yes"/>
      <point x="398" y="1419"/>
      <point x="202" y="1336"/>
      <point x="202" y="1125" type="curve" smooth="yes"/>
      <point x="202" y="962"/>
      <point x="296" y="846"/>
      <point x="419" y="739" type="curve"/>
      <point x="227" y="669"/>
      <point x="74" y="567"/>
      <point x="74" y="361" type="curve" smooth="yes"/>
      <point x="74" y="94"/>
      <point x="295" y="-32"/>
      <point x="528" y="-32" type="curve" smooth="yes"/>
      <point x="710" y="-32"/>
      <point x="874" y="32"/>
      <point x="996" y="163" type="curve"/>
      <point x="1040" y="115"/>
      <point x="1070" y="79"/>
      <point x="1079" y="61" type="curve"/>
      <point x="1067" y="0" type="line"/>
      <point x="1586" y="0" type="line"/>
    </contour>
    <contour>
      <point x="518" y="1302"/>
      <point x="547" y="1306"/>
      <point x="569" y="1306" type="curve" smooth="yes"/>
      <point x="629" y="1306"/>
      <point x="717" y="1262"/>
      <point x="717" y="1069" type="curve" smooth="yes"/>
      <point x="717" y="1001"/>
      <point x="704" y="951"/>
      <point x="688" y="917" type="curve"/>
      <point x="683" y="905"/>
      <point x="677" y="895"/>
      <point x="671" y="887" type="curve"/>
      <point x="575" y="967"/>
      <point x="486" y="1093"/>
      <point x="486" y="1207" type="curve" smooth="yes"/>
      <point x="486" y="1250"/>
      <point x="494" y="1279"/>
      <point x="509" y="1293" type="curve" smooth="yes"/>
    </contour>
    <contour>
      <point x="556" y="148"/>
      <point x="423" y="306"/>
      <point x="423" y="445" type="curve" smooth="yes"/>
      <point x="423" y="532"/>
      <point x="438" y="600"/>
      <point x="494" y="667" type="curve"/>
      <point x="618" y="545"/>
      <point x="802" y="366"/>
      <point x="931" y="232" type="curve"/>
      <point x="875" y="186"/>
      <point x="779" y="148"/>
      <point x="707" y="148" type="curve" smooth="yes"/>
    </contour>
  </outline>
</glyph>
<glyph name="quotesingle" format="1">
  <advance width="465"/>
  <unicode hex="0027"/>
  <outline>
    <contour>
      <point x="105" y="1400" type="line"/>
      <point x="105" y="954" type="line"/>
      <point x="328" y="905" type="line"/>
      <point x="345" y="1055"/>
      <point x="355" y="1247"/>
      <point x="356" y="1400" type="curve"/>
    </contour>
  </outline>
</glyph>
<glyph name="parenright" format="1">
  <advance width="621"/>
  <unicode hex="0029"/>
  <outline>
    <contour>
      <point x="568" y="907"/>
      <point x="423" y="1272"/>
      <point x="129" y="1482" type="curve"/>
      <point x="-2" y="1442" type="line"/>
      <point x="196" y="1195"/>
      <point x="304" y="907"/>
      <point x="304" y="578" type="curve" smooth="yes"/>
      <point x="304" y="232"/>
      <point x="199" y="-27"/>
      <point x="-1" y="-284" type="curve"/>
      <point x="132" y="-323" type="line"/>
      <point x="427" y="-111"/>
      <point x="568" y="226"/>
      <point x="568" y="578" type="curve" smooth="yes"/>
    </contour>
  </outline>
</glyph>
<glyph name="asterisk" format="1">
  <advance width="915"/>
  <unicode hex="002A"/>
  <outline>
    <contour>
      <point x="672" y="1449" type="line"/>
      <point x="634" y="1399"/>
      <point x="584" y="1363"/>
      <point x="531" y="1340" type="curve"/>
      <point x="566" y="1392"/>
      <point x="587" y="1470"/>
      <point x="587" y="1547" type="curve" smooth="yes"/>
      <point x="587" y="1685"/>
      <point x="509" y="1758"/>
      <point x="488" y="1758" type="curve"/>
      <point x="364" y="1588" type="line"/>
      <point x="401" y="1535"/>
      <point x="420" y="1475"/>
      <point x="425" y="1415" type="curve"/>
      <point x="386" y="1464"/>
      <point x="318" y="1509"/>
      <point x="244" y="1533" type="curve" smooth="yes"/>
      <point x="113" y="1576"/>
      <point x="20" y="1524"/>
      <point x="13" y="1504" type="curve"/>
      <point x="136" y="1333" type="line"/>
      <point x="198" y="1352"/>
      <point x="261" y="1351"/>
      <point x="319" y="1338" type="curve"/>
      <point x="261" y="1316"/>
      <point x="197" y="1266"/>
      <point x="152" y="1203" type="curve" smooth="yes"/>
      <point x="71" y="1092"/>
      <point x="92" y="988"/>
      <point x="109" y="975" type="curve"/>
      <point x="309" y="1039" type="line"/>
      <point x="311" y="1104"/>
      <point x="331" y="1165"/>
      <point x="362" y="1216" type="curve"/>
      <point x="363" y="1153"/>
      <point x="391" y="1073"/>
      <point x="439" y="1008" type="curve" smooth="yes"/>
      <point x="520" y="896"/>
      <point x="625" y="884"/>
      <point x="643" y="896" type="curve"/>
      <point x="644" y="1106" type="line"/>
      <point x="583" y="1128"/>
      <point x="531" y="1166"/>
      <point x="492" y="1211" type="curve"/>
      <point x="552" y="1197"/>
      <point x="631" y="1200"/>
      <point x="702" y="1224" type="curve" smooth="yes"/>
      <point x="833" y="1266"/>
      <point x="877" y="1362"/>
      <point x="871" y="1383" type="curve"/>
    </contour>
  </outline>
</glyph>
<glyph name="hyphen" format="1">
  <advance width="947"/>
  <unicode hex="002D"/>
  <outline>
    <contour>
      <point x="149" y="646" type="line"/>
      <point x="103" y="425" type="line"/>
      <point x="252" y="425"/>
      <point x="644" y="441"/>
      <point x="809" y="457" type="curve"/>
      <point x="845" y="646" type="line"/>
    </contour>
  </outline>
</glyph>
<glyph name="slash" format="1">
  <advance width="939"/>
  <unicode hex="002F"/>
  <outline>
    <contour>
      <point x="878" y="1447" type="line"/>
      <point x="652" y="1494" type="line"/>
      <point x="61" y="-174" type="line"/>
      <point x="291" y="-218" type="line"/>
    </contour>
  </outline>
</glyph>
<glyph name="four" format="1">
  <advance width="1329"/>
  <unicode hex="0034"/>
  <outline>
    <contour>
      <point x="1200" y="235" type="line"/>
      <point x="1237" y="447" type="line"/>
      <point x="1048" y="435" type="line"/>
      <point x="1048" y="727" type="line"/>
      <point x="708" y="663" type="line"/>
      <point x="708" y="414" type="line"/>
      <point x="411" y="395" type="line"/>
      <point x="848" y="1137" type="line"/>
      <point x="490" y="1212" type="line"/>
      <point x="47" y="331" type="line"/>
      <point x="102" y="235" type="line"/>
      <point x="708" y="235" type="line"/>
      <point x="708" y="-82" type="line"/>
      <point x="1048" y="-30" type="line"/>
      <point x="1048" y="235" type="line"/>
    </contour>
  </outline>
</glyph>
<glyph name="seven" format="1">
  <advance width="1271"/>
  <unicode hex="0037"/>
  <outline>
    <contour>
      <point x="843" y="1034" type="line"/>
      <point x="234" y="0" type="line"/>
      <point x="576" y="-67" type="line"/>
      <point x="1170" y="1065" type="line"/>
      <point x="1126" y="1187" type="line"/>
      <point x="359" y="1187" type="line"/>
      <point x="155" y="1201" type="line"/>
      <point x="139" y="817" type="line"/>
      <point x="273" y="802" type="line"/>
      <point x="349" y="1009" type="line"/>
    </contour>
  </outline>
</glyph>
<glyph name="colon" format="1">
  <advance width="601"/>
  <unicode hex="003A"/>
  <outline>
    <contour>
      <point x="369" y="549"/>
      <point x="533" y="704"/>
      <point x="533" y="772" type="curve" smooth="yes"/>
      <point x="533" y="828"/>
      <point x="384" y="995"/>
      <point x="314" y="995" type="curve" smooth="yes"/>
      <point x="249" y="995"/>
      <point x="87" y="837"/>
      <point x="87" y="774" type="curve" smooth="yes"/>
      <point x="87" y="714"/>
      <point x="240" y="549"/>
      <point x="307" y="549" type="curve" smooth="yes"/>
    </contour>
    <contour>
      <point x="369" y="-59"/>
      <point x="533" y="96"/>
      <point x="533" y="164" type="curve" smooth="yes"/>
      <point x="533" y="220"/>
      <point x="384" y="387"/>
      <point x="314" y="387" type="curve" smooth="yes"/>
      <point x="249" y="387"/>
      <point x="87" y="229"/>
      <point x="87" y="166" type="curve" smooth="yes"/>
      <point x="87" y="106"/>
      <point x="240" y="-59"/>
      <point x="307" y="-59" type="curve" smooth="yes"/>
    </contour>
  </outline>
</glyph>
<glyph name="semicolon" format="1">
  <advance width="566"/>
  <unicode hex="003B"/>
  <outline>
    <contour>
      <point x="369" y="549"/>
      <point x="533" y="704"/>
      <point x="533" y="772" type="curve" smooth="yes"/>
      <point x="533" y="828"/>
      <point x="384" y="995"/>
      <point x="314" y="995" type="curve" smooth="yes"/>
      <point x="249" y="995"/>
      <point x="87" y="837"/>
      <point x="87" y="774" type="curve" smooth="yes"/>
      <point x="87" y="714"/>
      <point x="240" y="549"/>
      <point x="307" y="549" type="curve" smooth="yes"/>
    </contour>
    <contour>
      <point x="106" y="122"/>
      <point x="174" y="33"/>
      <point x="266" y="-28" type="curve"/>
      <point x="135" y="-318" type="line"/>
      <point x="253" y="-335" type="line"/>
      <point x="366" y="-242"/>
      <point x="456" y="-121"/>
      <point x="497" y="-19" type="curve" smooth="yes"/>
      <point x="515" y="26"/>
      <point x="533" y="109"/>
      <point x="533" y="164" type="curve" smooth="yes"/>
      <point x="533" y="205"/>
      <point x="464" y="287"/>
      <point x="403" y="333" type="curve" smooth="yes"/>
      <point x="366" y="360"/>
      <point x="341" y="374"/>
      <point x="311" y="374" type="curve" smooth="yes"/>
      <point x="266" y="374"/>
      <point x="188" y="298"/>
      <point x="141" y="234" type="curve" smooth="yes"/>
      <point x="120" y="206"/>
      <point x="106" y="180"/>
      <point x="106" y="164" type="curve" smooth="yes"/>
    </contour>
  </outline>
</glyph>
<glyph name="less" format="1">
  <advance width="1025"/>
  <unicode hex="003C"/>
  <outline>
    <contour>
      <point x="111" y="410" type="line"/>
      <point x="822" y="58" type="line"/>
      <point x="905" y="252" type="line"/>
      <point x="468" y="475" type="line"/>
      <point x="905" y="697" type="line"/>
      <point x="824" y="890" type="line"/>
      <point x="111" y="540" type="line"/>
    </contour>
  </outline>
</glyph>
<glyph name="equal" format="1">
  <advance width="1024"/>
  <unicode hex="003D"/>
  <outline>
    <contour>
      <point x="140" y="883" type="line"/>
      <point x="114" y="656" type="line"/>
      <point x="378" y="656"/>
      <point x="632" y="665"/>
      <point x="884" y="685" type="curve"/>
      <point x="909" y="883" type="line"/>
    </contour>
    <contour>
      <point x="140" y="498" type="line"/>
      <point x="114" y="272" type="line"/>
      <point x="381" y="272"/>
      <point x="633" y="283"/>
      <point x="884" y="300" type="curve"/>
      <point x="909" y="498" type="line"/>
    </contour>
  </outline>
</glyph>
<glyph name="greater" format="1">
  <advance width="1024"/>
  <unicode hex="003E"/>
  <outline>
    <contour>
      <point x="121" y="252" type="line"/>
      <point x="204" y="58" type="line"/>
      <point x="915" y="410" type="line"/>
      <point x="915" y="540" type="line"/>
      <point x="202" y="890" type="line"/>
      <point x="121" y="697" type="line"/>
      <point x="558" y="475" type="line"/>
    </contour>
  </outline>
</glyph>
<glyph name="C" format="1">
  <advance width="1306"/>
  <unicode hex="0043"/>
  <outline>
    <contour>
      <point x="972" y="-35"/>
      <point x="1166" y="32"/>
      <point x="1268" y="163" type="curve"/>
      <point x="1237" y="222" type="line"/>
      <point x="1165" y="210"/>
      <point x="898" y="187"/>
      <point x="841" y="187" type="curve" smooth="yes"/>
      <point x="766" y="187"/>
      <point x="659" y="229"/>
      <point x="584" y="330" type="curve" smooth="yes"/>
      <point x="510" y="429"/>
      <point x="460" y="555"/>
      <point x="460" y="766" type="curve" smooth="yes"/>
      <point x="460" y="937"/>
      <point x="487" y="1144"/>
      <point x="558" y="1223" type="curve" smooth="yes"/>
      <point x="588" y="1256"/>
      <point x="665" y="1262"/>
      <point x="732" y="1262" type="curve" smooth="yes"/>
      <point x="827" y="1262"/>
      <point x="928" y="1251"/>
      <point x="1003" y="1201" type="curve"/>
      <point x="1086" y="997" type="line"/>
      <point x="1224" y="1019" type="line"/>
      <point x="1199" y="1406" type="line"/>
      <point x="1042" y="1401" type="line"/>
      <point x="979" y="1411"/>
      <point x="883" y="1419"/>
      <point x="821" y="1419" type="curve" smooth="yes"/>
      <point x="625" y="1419"/>
      <point x="454" y="1358"/>
      <point x="326" y="1251" type="curve" smooth="yes"/>
      <point x="166" y="1117"/>
      <point x="71" y="911"/>
      <point x="71" y="659" type="curve" smooth="yes"/>
      <point x="71" y="198"/>
      <point x="356" y="-35"/>
      <point x="757" y="-35" type="curve" smooth="yes"/>
    </contour>
  </outline>
</glyph>
<glyph name="D" format="1">
  <advance width="1571"/>
  <unicode hex="0044"/>
  <outline>
    <contour>
      <point x="246" y="164" type="line"/>
      <point x="70" y="84" type="line"/>
      <point x="53" y="0" type="line"/>
      <point x="592" y="0" type="line" smooth="yes"/>
      <point x="907" y="0"/>
      <point x="1180" y="44"/>
      <point x="1341" y="219" type="curve" smooth="yes"/>
      <point x="1439" y="324"/>
      <point x="1496" y="478"/>
      <point x="1496" y="699" type="curve" smooth="yes"/>
      <point x="1496" y="932"/>
      <point x="1424" y="1154"/>
      <point x="1204" y="1282" type="curve" smooth="yes"/>
      <point x="1034" y="1381"/>
      <point x="779" y="1384"/>
      <point x="565" y="1384" type="curve" smooth="yes"/>
      <point x="76" y="1384" type="line"/>
      <point x="59" y="1303" type="line"/>
      <point x="246" y="1221" type="line"/>
    </contour>
    <contour>
      <point x="615" y="1280" type="line"/>
      <point x="735" y="1262"/>
      <point x="854" y="1216"/>
      <point x="926" y="1156" type="curve" smooth="yes"/>
      <point x="1046" y="1056"/>
      <point x="1111" y="907"/>
      <point x="1111" y="697" type="curve" smooth="yes"/>
      <point x="1111" y="291"/>
      <point x="915" y="154"/>
      <point x="615" y="107" type="curve"/>
    </contour>
  </outline>
</glyph>
<glyph name="F" format="1">
  <advance width="1311"/>
  <unicode hex="0046"/>
  <outline>
    <contour>
      <point x="49" y="1303" type="line"/>
      <point x="236" y="1221" type="line"/>
      <point x="236" y="166" type="line"/>
      <point x="57" y="87" type="line"/>
      <point x="40" y="0" type="line"/>
      <point x="861" y="0" type="line"/>
      <point x="900" y="102" type="line"/>
      <point x="605" y="157" type="line"/>
      <point x="605" y="647" type="line"/>
      <point x="691" y="636"/>
      <point x="782" y="627"/>
      <point x="881" y="622" type="curve"/>
      <point x="927" y="458" type="line"/>
      <point x="1033" y="443" type="line"/>
      <point x="1051" y="928" type="line"/>
      <point x="948" y="950" type="line"/>
      <point x="881" y="782" type="line"/>
      <point x="788" y="770"/>
      <point x="696" y="757"/>
      <point x="605" y="741" type="curve"/>
      <point x="605" y="1296" type="line"/>
      <point x="1066" y="1227" type="line"/>
      <point x="1162" y="1022" type="line"/>
      <point x="1300" y="1042" type="line"/>
      <point x="1264" y="1397" type="line"/>
      <point x="1137" y="1384" type="line"/>
      <point x="67" y="1384" type="line"/>
    </contour>
  </outline>
</glyph>
<glyph name="J" format="1">
  <advance width="824"/>
  <unicode hex="004A"/>
  <outline>
    <contour>
      <point x="29" y="1303" type="line"/>
      <point x="240" y="1221" type="line"/>
      <point x="240" y="175" type="line" smooth="yes"/>
      <point x="240" y="121"/>
      <point x="119" y="-183"/>
      <point x="74" y="-283" type="curve"/>
      <point x="133" y="-330" type="line"/>
      <point x="508" y="-157"/>
      <point x="609" y="82"/>
      <point x="609" y="475" type="curve" smooth="yes"/>
      <point x="609" y="1220" type="line"/>
      <point x="777" y="1300" type="line"/>
      <point x="793" y="1384" type="line"/>
      <point x="45" y="1384" type="line"/>
    </contour>
  </outline>
</glyph>
<glyph name="K" format="1">
  <advance width="1614"/>
  <unicode hex="004B"/>
  <outline>
    <contour>
      <point x="247" y="165" type="line"/>
      <point x="68" y="86" type="line"/>
      <point x="52" y="0" type="line"/>
      <point x="790" y="0" type="line"/>
      <point x="808" y="81" type="line"/>
      <point x="616" y="165" type="line"/>
      <point x="616" y="1216" type="line"/>
      <point x="759" y="1297" type="line"/>
      <point x="776" y="1384" type="line"/>
      <point x="77" y="1384" type="line"/>
      <point x="59" y="1304" type="line"/>
      <point x="247" y="1221" type="line"/>
    </contour>
    <contour>
      <point x="1430" y="162" type="line"/>
      <point x="1055" y="751" type="line"/>
      <point x="1396" y="1226" type="line"/>
      <point x="1581" y="1297" type="line"/>
      <point x="1600" y="1384" type="line"/>
      <point x="941" y="1384" type="line"/>
      <point x="922" y="1308" type="line"/>
      <point x="1046" y="1226" type="line"/>
      <point x="686" y="701" type="line"/>
      <point x="1034" y="87" type="line"/>
      <point x="1015" y="0" type="line"/>
      <point x="1601" y="0" type="line"/>
      <point x="1619" y="82" type="line"/>
    </contour>
  </outline>
</glyph>
<glyph name="L" format="1">
  <advance width="1280"/>
  <unicode hex="004C"/>
  <outline>
    <contour>
      <point x="1156" y="370" type="line"/>
      <point x="1035" y="172" type="line"/>
      <point x="616" y="100" type="line"/>
      <point x="616" y="1218" type="line"/>
      <point x="805" y="1299" type="line"/>
      <point x="821" y="1384" type="line"/>
      <point x="77" y="1384" type="line"/>
      <point x="59" y="1303" type="line"/>
      <point x="247" y="1221" type="line"/>
      <point x="247" y="166" type="line"/>
      <point x="68" y="85" type="line"/>
      <point x="52" y="0" type="line"/>
      <point x="1208" y="0" type="line"/>
      <point x="1290" y="354" type="line"/>
    </contour>
  </outline>
</glyph>
<glyph name="M" format="1">
  <advance width="2127"/>
  <unicode hex="004D"/>
  <outline>
    <contour>
      <point x="62" y="1303" type="line"/>
      <point x="245" y="1221" type="line"/>
      <point x="245" y="164" type="line"/>
      <point x="70" y="84" type="line"/>
      <point x="54" y="0" type="line"/>
      <point x="610" y="0" type="line"/>
      <point x="626" y="81" type="line"/>
      <point x="448" y="163" type="line"/>
      <point x="445" y="490"/>
      <point x="445" y="816"/>
      <point x="402" y="1143" type="curve"/>
      <point x="825" y="-15" type="line"/>
      <point x="1137" y="25" type="line"/>
      <point x="1283" y="400"/>
      <point x="1419" y="774"/>
      <point x="1519" y="1149" type="curve"/>
      <point x="1519" y="164" type="line"/>
      <point x="1342" y="84" type="line"/>
      <point x="1326" y="0" type="line"/>
      <point x="2052" y="0" type="line"/>
      <point x="2070" y="82" type="line"/>
      <point x="1879" y="163" type="line"/>
      <point x="1879" y="1210" type="line"/>
      <point x="2059" y="1291" type="line"/>
      <point x="2075" y="1384" type="line"/>
      <point x="1458" y="1384" type="line"/>
      <point x="1070" y="326" type="line"/>
      <point x="647" y="1384" type="line"/>
      <point x="80" y="1384" type="line"/>
    </contour>
  </outline>
</glyph>
<glyph name="N" format="1">
  <advance width="1601"/>
  <unicode hex="004E"/>
  <outline>
    <contour>
      <point x="245" y="164" type="line"/>
      <point x="73" y="83" type="line"/>
      <point x="58" y="0" type="line"/>
      <point x="639" y="0" type="line"/>
      <point x="657" y="81" type="line"/>
      <point x="448" y="163" type="line"/>
      <point x="448" y="452"/>
      <point x="448" y="740"/>
      <point x="409" y="1029" type="curve"/>
      <point x="1058" y="-25" type="line"/>
      <point x="1381" y="15" type="line"/>
      <point x="1381" y="1220" type="line"/>
      <point x="1549" y="1300" type="line"/>
      <point x="1565" y="1384" type="line"/>
      <point x="989" y="1384" type="line"/>
      <point x="973" y="1301" type="line"/>
      <point x="1175" y="1221" type="line"/>
      <point x="1175" y="937"/>
      <point x="1175" y="653"/>
      <point x="1213" y="369" type="curve"/>
      <point x="584" y="1384" type="line"/>
      <point x="75" y="1384" type="line"/>
      <point x="58" y="1302" type="line"/>
      <point x="245" y="1221" type="line"/>
    </contour>
  </outline>
</glyph>
<glyph name="P" format="1">
  <advance width="1370"/>
  <unicode hex="0050"/>
  <outline>
    <contour>
      <point x="247" y="164" type="line"/>
      <point x="68" y="85" type="line"/>
      <point x="51" y="0" type="line"/>
      <point x="853" y="0" type="line"/>
      <point x="868" y="81" type="line"/>
      <point x="616" y="163" type="line"/>
      <point x="616" y="1303" type="line"/>
      <point x="807" y="1300"/>
      <point x="975" y="1210"/>
      <point x="975" y="982" type="curve" smooth="yes"/>
      <point x="975" y="806"/>
      <point x="914" y="731"/>
      <point x="751" y="640" type="curve"/>
      <point x="739" y="573" type="line"/>
      <point x="869" y="573"/>
      <point x="1055" y="594"/>
      <point x="1176" y="672" type="curve" smooth="yes"/>
      <point x="1278" y="739"/>
      <point x="1336" y="846"/>
      <point x="1336" y="975" type="curve" smooth="yes"/>
      <point x="1336" y="1120"/>
      <point x="1268" y="1243"/>
      <point x="1164" y="1305" type="curve" smooth="yes"/>
      <point x="1031" y="1384"/>
      <point x="863" y="1384"/>
      <point x="651" y="1384" type="curve" smooth="yes"/>
      <point x="77" y="1384" type="line"/>
      <point x="60" y="1303" type="line"/>
      <point x="247" y="1221" type="line"/>
    </contour>
  </outline>
</glyph>
<glyph name="Q" format="1">
  <advance width="1542"/>
  <unicode hex="0051"/>
  <outline>
    <contour>
      <point x="1473" y="1173"/>
      <point x="1171" y="1419"/>
      <point x="816" y="1419" type="curve" smooth="yes"/>
      <point x="325" y="1419"/>
      <point x="69" y="1041"/>
      <point x="69" y="623" type="curve" smooth="yes"/>
      <point x="69" y="211"/>
      <point x="366" y="-35"/>
      <point x="745" y="-35" type="curve" smooth="yes"/>
      <point x="771" y="-35"/>
      <point x="797" y="-34"/>
      <point x="822" y="-31" type="curve"/>
      <point x="984" y="-225"/>
      <point x="1230" y="-325"/>
      <point x="1430" y="-325" type="curve"/>
      <point x="1464" y="-259" type="line"/>
      <point x="1147" y="85" type="line"/>
      <point x="1355" y="227"/>
      <point x="1473" y="483"/>
      <point x="1473" y="762" type="curve" smooth="yes"/>
    </contour>
    <contour>
      <point x="461" y="412"/>
      <point x="452" y="579"/>
      <point x="452" y="767" type="curve" smooth="yes"/>
      <point x="452" y="901"/>
      <point x="474" y="1145"/>
      <point x="550" y="1219" type="curve" smooth="yes"/>
      <point x="587" y="1256"/>
      <point x="651" y="1258"/>
      <point x="700" y="1258" type="curve" smooth="yes"/>
      <point x="852" y="1258"/>
      <point x="994" y="1151"/>
      <point x="1050" y="986" type="curve" smooth="yes"/>
      <point x="1084" y="884"/>
      <point x="1090" y="781"/>
      <point x="1090" y="618" type="curve" smooth="yes"/>
      <point x="1090" y="488"/>
      <point x="1065" y="260"/>
      <point x="1011" y="188" type="curve" smooth="yes"/>
      <point x="975" y="140"/>
      <point x="897" y="126"/>
      <point x="840" y="126" type="curve" smooth="yes"/>
      <point x="721" y="126"/>
      <point x="616" y="184"/>
      <point x="548" y="284" type="curve" smooth="yes"/>
    </contour>
  </outline>
</glyph>
<glyph name="S" format="1">
  <advance width="1193"/>
  <unicode hex="0053"/>
  <outline>
    <contour>
      <point x="932" y="984" type="line"/>
      <point x="1077" y="1008" type="line"/>
      <point x="1043" y="1394" type="line"/>
      <point x="931" y="1390" type="line"/>
      <point x="900" y="1396"/>
      <point x="780" y="1419"/>
      <point x="678" y="1419" type="curve" smooth="yes"/>
      <point x="338" y="1419"/>
      <point x="112" y="1276"/>
      <point x="112" y="1028" type="curve" smooth="yes"/>
      <point x="112" y="810"/>
      <point x="237" y="709"/>
      <point x="440" y="586" type="curve" smooth="yes"/>
      <point x="671" y="446"/>
      <point x="741" y="404"/>
      <point x="741" y="334" type="curve" smooth="yes"/>
      <point x="741" y="302"/>
      <point x="731" y="274"/>
      <point x="690" y="238" type="curve" smooth="yes"/>
      <point x="622" y="176"/>
      <point x="533" y="144"/>
      <point x="443" y="130" type="curve" smooth="yes"/>
      <point x="398" y="123"/>
      <point x="352" y="121"/>
      <point x="309" y="121" type="curve"/>
      <point x="279" y="403" type="line"/>
      <point x="135" y="430" type="line"/>
      <point x="54" y="86" type="line"/>
      <point x="139" y="24"/>
      <point x="309" y="-35"/>
      <point x="495" y="-35" type="curve" smooth="yes"/>
      <point x="883" y="-35"/>
      <point x="1118" y="142"/>
      <point x="1118" y="413" type="curve" smooth="yes"/>
      <point x="1118" y="635"/>
      <point x="957" y="742"/>
      <point x="767" y="845" type="curve" smooth="yes"/>
      <point x="538" y="969"/>
      <point x="452" y="1050"/>
      <point x="452" y="1110" type="curve" smooth="yes"/>
      <point x="452" y="1135"/>
      <point x="461" y="1149"/>
      <point x="470" y="1161" type="curve" smooth="yes"/>
      <point x="517" y="1222"/>
      <point x="605" y="1272"/>
      <point x="729" y="1286" type="curve" smooth="yes"/>
      <point x="750" y="1288"/>
      <point x="773" y="1289"/>
      <point x="796" y="1289" type="curve"/>
    </contour>
  </outline>
</glyph>
<glyph name="V" format="1">
  <advance width="1456"/>
  <unicode hex="0056"/>
  <outline>
    <contour>
      <point x="1127" y="1221" type="line"/>
      <point x="848" y="202" type="line"/>
      <point x="513" y="1221" type="line"/>
      <point x="672" y="1295" type="line"/>
      <point x="687" y="1384" type="line"/>
      <point x="-22" y="1384" type="line"/>
      <point x="-42" y="1293" type="line"/>
      <point x="105" y="1221" type="line"/>
      <point x="552" y="-35" type="line"/>
      <point x="936" y="0" type="line"/>
      <point x="1337" y="1221" type="line"/>
      <point x="1476" y="1293" type="line"/>
      <point x="1494" y="1384" type="line"/>
      <point x="973" y="1384" type="line"/>
      <point x="955" y="1293" type="line"/>
    </contour>
  </outline>
</glyph>
<glyph name="W" format="1">
  <advance width="2302"/>
  <unicode hex="0057"/>
  <outline>
    <contour>
      <point x="2338" y="1384" type="line"/>
      <point x="1796" y="1384" type="line"/>
      <point x="1775" y="1291" type="line"/>
      <point x="1971" y="1221" type="line"/>
      <point x="1722" y="209" type="line"/>
      <point x="1409" y="1221" type="line"/>
      <point x="1594" y="1291" type="line"/>
      <point x="1611" y="1384" type="line"/>
      <point x="891" y="1384" type="line"/>
      <point x="873" y="1296" type="line"/>
      <point x="1023" y="1221" type="line"/>
      <point x="1069" y="1077" type="line"/>
      <point x="788" y="208" type="line"/>
      <point x="529" y="1221" type="line"/>
      <point x="681" y="1294" type="line"/>
      <point x="696" y="1384" type="line"/>
      <point x="0" y="1384" type="line"/>
      <point x="-17" y="1291" type="line"/>
      <point x="133" y="1221" type="line"/>
      <point x="491" y="-35" type="line"/>
      <point x="881" y="0" type="line"/>
      <point x="1156" y="806" type="line"/>
      <point x="1425" y="-35" type="line"/>
      <point x="1813" y="0" type="line"/>
      <point x="2184" y="1221" type="line"/>
      <point x="2320" y="1290" type="line"/>
    </contour>
  </outline>
</glyph>
<glyph name="X" format="1">
  <advance width="1491"/>
  <unicode hex="0058"/>
  <outline>
    <contour>
      <point x="1481" y="86" type="line"/>
      <point x="1322" y="157" type="line"/>
      <point x="944" y="710" type="line"/>
      <point x="1303" y="1221" type="line"/>
      <point x="1461" y="1288" type="line"/>
      <point x="1480" y="1384" type="line"/>
      <point x="943" y="1384" type="line"/>
      <point x="927" y="1306" type="line"/>
      <point x="1067" y="1222" type="line"/>
      <point x="849" y="854" type="line"/>
      <point x="611" y="1222" type="line"/>
      <point x="745" y="1299" type="line"/>
      <point x="759" y="1384" type="line"/>
      <point x="35" y="1384" type="line"/>
      <point x="15" y="1287" type="line"/>
      <point x="176" y="1221" type="line"/>
      <point x="550" y="668" type="line"/>
      <point x="182" y="161" type="line"/>
      <point x="25" y="92" type="line"/>
      <point x="9" y="0" type="line"/>
      <point x="544" y="0" type="line"/>
      <point x="563" y="80" type="line"/>
      <point x="421" y="160" type="line"/>
      <point x="645" y="524" type="line"/>
      <point x="882" y="161" type="line"/>
      <point x="749" y="84" type="line"/>
      <point x="734" y="0" type="line"/>
      <point x="1466" y="0" type="line"/>
    </contour>
  </outline>
</glyph>
<glyph name="Y" format="1">
  <advance width="1339"/>
  <unicode hex="0059"/>
  <outline>
    <contour>
      <point x="494" y="159" type="line"/>
      <point x="318" y="82" type="line"/>
      <point x="302" y="0" type="line"/>
      <point x="1042" y="0" type="line"/>
      <point x="1059" y="81" type="line"/>
      <point x="854" y="159" type="line"/>
      <point x="854" y="560" type="line"/>
      <point x="1214" y="1221" type="line"/>
      <point x="1359" y="1290" type="line"/>
      <point x="1374" y="1384" type="line"/>
      <point x="844" y="1384" type="line"/>
      <point x="826" y="1304" type="line"/>
      <point x="1002" y="1221" type="line"/>
      <point x="920" y="1062"/>
      <point x="845" y="890"/>
      <point x="780" y="704" type="curve"/>
      <point x="490" y="1221" type="line"/>
      <point x="636" y="1297" type="line"/>
      <point x="653" y="1384" type="line"/>
      <point x="-23" y="1384" type="line"/>
      <point x="-41" y="1291" type="line"/>
      <point x="102" y="1221" type="line"/>
      <point x="494" y="558" type="line"/>
    </contour>
  </outline>
</glyph>
<glyph name="bracketleft" format="1">
  <advance width="643"/>
  <unicode hex="005B"/>
  <outline>
    <contour>
      <point x="637" y="1472" type="line"/>
      <point x="148" y="1472" type="line"/>
      <point x="148" y="-316" type="line"/>
      <point x="628" y="-316" type="line"/>
      <point x="647" y="-250" type="line"/>
      <point x="410" y="-150" type="line"/>
      <point x="410" y="1307" type="line"/>
      <point x="623" y="1400" type="line"/>
    </contour>
  </outline>
</glyph>
<glyph name="backslash" format="1">
  <advance width="967"/>
  <unicode hex="005C"/>
  <outline>
    <contour>
      <point x="295" y="1494" type="line"/>
      <point x="67" y="1447" type="line"/>
      <point x="658" y="-21" type="line"/>
      <point x="888" y="22" type="line"/>
    </contour>
  </outline>
</glyph>
<glyph name="bracketright" format="1">
  <advance width="640"/>
  <unicode hex="005D"/>
  <outline>
    <contour>
      <point x="492" y="-316" type="line"/>
      <point x="492" y="1472" type="line"/>
      <point x="19" y="1472" type="line"/>
      <point x="3" y="1400" type="line"/>
      <point x="230" y="1307" type="line"/>
      <point x="230" y="-150" type="line"/>
      <point x="16" y="-246" type="line"/>
      <point x="2" y="-316" type="line"/>
    </contour>
  </outline>
</glyph>
<glyph name="asciicircum" format="1">
  <advance width="1024"/>
  <unicode hex="005E"/>
  <outline>
    <contour>
      <point x="273" y="956" type="line"/>
      <point x="512" y="1092" type="line"/>
      <point x="752" y="955" type="line"/>
      <point x="897" y="1008" type="line"/>
      <point x="609" y="1290" type="line"/>
      <point x="415" y="1290" type="line"/>
      <point x="128" y="1008" type="line"/>
    </contour>
  </outline>
</glyph>
<glyph name="underscore" format="1">
  <advance width="1024"/>
  <unicode hex="005F"/>
  <outline>
    <contour>
      <point x="1093" y="-182" type="line"/>
      <point x="-24" y="-182" type="line"/>
      <point x="-69" y="-389" type="line"/>
      <point x="1057" y="-389" type="line"/>
    </contour>
  </outline>
</glyph>
<glyph name="grave" format="1">
  <advance width="1024"/>
  <unicode hex="0060"/>
  <outline>
    <contour>
      <point x="240" y="1278" type="line"/>
      <point x="696" y="1042" type="line"/>
      <point x="723" y="1202" type="line"/>
      <point x="442" y="1472" type="line"/>
      <point x="277" y="1472" type="line"/>
    </contour>
  </outline>
</glyph>
<glyph name="b" format="1">
  <advance width="1214"/>
  <unicode hex="0062"/>
  <outline>
    <contour>
      <point x="103" y="-25" type="line"/>
      <point x="454" y="98" type="line"/>
      <point x="533" y="18"/>
      <point x="614" y="-25"/>
      <point x="733" y="-25" type="curve" smooth="yes"/>
      <point x="865" y="-25"/>
      <point x="959" y="35"/>
      <point x="1023" y="109" type="curve" smooth="yes"/>
      <point x="1107" y="206"/>
      <point x="1149" y="353"/>
      <point x="1149" y="508" type="curve" smooth="yes"/>
      <point x="1149" y="732"/>
      <point x="1054" y="975"/>
      <point x="815" y="975" type="curve" smooth="yes"/>
      <point x="683" y="975"/>
      <point x="571" y="898"/>
      <point x="491" y="832" type="curve"/>
      <point x="491" y="1472" type="line"/>
      <point x="20" y="1414" type="line"/>
      <point x="9" y="1365" type="line"/>
      <point x="147" y="1273" type="line"/>
      <point x="147" y="191" type="line"/>
      <point x="62" y="30" type="line"/>
    </contour>
    <contour>
      <point x="491" y="758" type="line"/>
      <point x="524" y="772"/>
      <point x="614" y="784"/>
      <point x="653" y="784" type="curve" smooth="yes"/>
      <point x="689" y="784"/>
      <point x="712" y="773"/>
      <point x="738" y="732" type="curve" smooth="yes"/>
      <point x="798" y="638"/>
      <point x="811" y="515"/>
      <point x="811" y="404" type="curve" smooth="yes"/>
      <point x="811" y="327"/>
      <point x="802" y="252"/>
      <point x="781" y="195" type="curve" smooth="yes"/>
      <point x="763" y="147"/>
      <point x="731" y="143"/>
      <point x="685" y="143" type="curve" smooth="yes"/>
      <point x="620" y="143"/>
      <point x="551" y="146"/>
      <point x="491" y="156" type="curve"/>
    </contour>
  </outline>
</glyph>
<glyph name="f" format="1">
  <advance width="855"/>
  <unicode hex="0066"/>
  <outline>
    <contour>
      <point x="200" y="150" type="line"/>
      <point x="69" y="73" type="line"/>
      <point x="54" y="0" type="line"/>
      <point x="797" y="0" type="line"/>
      <point x="812" y="65" type="line"/>
      <point x="544" y="140" type="line"/>
      <point x="544" y="784" type="line"/>
      <point x="847" y="873" type="line"/>
      <point x="860" y="950" type="line"/>
      <point x="544" y="950" type="line"/>
      <point x="544" y="1179"/>
      <point x="574" y="1339"/>
      <point x="704" y="1389" type="curve"/>
      <point x="743" y="1199" type="line"/>
      <point x="769" y="1169"/>
      <point x="829" y="1118"/>
      <point x="868" y="1118" type="curve" smooth="yes"/>
      <point x="921" y="1118"/>
      <point x="1071" y="1263"/>
      <point x="1071" y="1320" type="curve" smooth="yes"/>
      <point x="1071" y="1347"/>
      <point x="1019" y="1395"/>
      <point x="964" y="1422" type="curve" smooth="yes"/>
      <point x="893" y="1457"/>
      <point x="825" y="1472"/>
      <point x="699" y="1472" type="curve" smooth="yes"/>
      <point x="362" y="1472"/>
      <point x="200" y="1313"/>
      <point x="200" y="950" type="curve"/>
      <point x="68" y="950" type="line"/>
      <point x="49" y="862" type="line"/>
      <point x="200" y="782" type="line"/>
    </contour>
  </outline>
</glyph>
<glyph name="h" format="1">
  <advance width="1340"/>
  <unicode hex="0068"/>
  <outline>
    <contour>
      <point x="1327" y="62" type="line"/>
      <point x="1175" y="140" type="line"/>
      <point x="1175" y="621" type="line" smooth="yes"/>
      <point x="1175" y="912"/>
      <point x="1014" y="975"/>
      <point x="867" y="975" type="curve" smooth="yes"/>
      <point x="753" y="975"/>
      <point x="650" y="931"/>
      <point x="515" y="827" type="curve"/>
      <point x="515" y="1472" type="line"/>
      <point x="42" y="1412" type="line"/>
      <point x="33" y="1365" type="line"/>
      <point x="171" y="1271" type="line"/>
      <point x="171" y="150" type="line"/>
      <point x="39" y="72" type="line"/>
      <point x="26" y="0" type="line"/>
      <point x="625" y="0" type="line"/>
      <point x="639" y="59" type="line"/>
      <point x="515" y="140" type="line"/>
      <point x="515" y="749" type="line"/>
      <point x="567" y="766"/>
      <point x="686" y="777"/>
      <point x="758" y="777" type="curve" smooth="yes"/>
      <point x="776" y="777"/>
      <point x="785" y="774"/>
      <point x="794" y="764" type="curve" smooth="yes"/>
      <point x="813" y="743"/>
      <point x="831" y="672"/>
      <point x="831" y="553" type="curve" smooth="yes"/>
      <point x="831" y="150" type="line"/>
      <point x="753" y="67" type="line"/>
      <point x="740" y="0" type="line"/>
      <point x="1311" y="0" type="line"/>
    </contour>
  </outline>
</glyph>
<glyph name="i" format="1">
  <advance width="698"/>
  <unicode hex="0069"/>
  <outline>
    <contour>
      <point x="405" y="1075"/>
      <point x="555" y="1217"/>
      <point x="555" y="1279" type="curve" smooth="yes"/>
      <point x="555" y="1330"/>
      <point x="419" y="1483"/>
      <point x="355" y="1483" type="curve" smooth="yes"/>
      <point x="295" y="1483"/>
      <point x="147" y="1338"/>
      <point x="147" y="1281" type="curve" smooth="yes"/>
      <point x="147" y="1226"/>
      <point x="287" y="1075"/>
      <point x="348" y="1075" type="curve" smooth="yes"/>
    </contour>
    <contour>
      <point x="188" y="150" type="line"/>
      <point x="57" y="73" type="line"/>
      <point x="42" y="0" type="line"/>
      <point x="651" y="0" type="line"/>
      <point x="665" y="59" type="line"/>
      <point x="532" y="140" type="line"/>
      <point x="532" y="965" type="line"/>
      <point x="59" y="909" type="line"/>
      <point x="51" y="860" type="line"/>
      <point x="188" y="767" type="line"/>
    </contour>
  </outline>
</glyph>
<glyph name="j" format="1">
  <advance width="640"/>
  <unicode hex="006A"/>
  <outline>
    <contour>
      <point x="370" y="1075"/>
      <point x="525" y="1209"/>
      <point x="525" y="1279" type="curve" smooth="yes"/>
      <point x="525" y="1328"/>
      <point x="388" y="1484"/>
      <point x="324" y="1483" type="curve" smooth="yes"/>
      <point x="259" y="1482"/>
      <point x="117" y="1338"/>
      <point x="117" y="1281" type="curve" smooth="yes"/>
      <point x="117" y="1225"/>
      <point x="257" y="1075"/>
      <point x="318" y="1075" type="curve" smooth="yes"/>
    </contour>
    <contour>
      <point x="25" y="859" type="line"/>
      <point x="162" y="766" type="line"/>
      <point x="162" y="0" type="line" smooth="yes"/>
      <point x="162" y="-239"/>
      <point x="154" y="-332"/>
      <point x="60" y="-439" type="curve"/>
      <point x="18" y="-227" type="line"/>
      <point x="-8" y="-197"/>
      <point x="-66" y="-146"/>
      <point x="-104" y="-146" type="curve" smooth="yes"/>
      <point x="-158" y="-146"/>
      <point x="-310" y="-293"/>
      <point x="-310" y="-347" type="curve" smooth="yes"/>
      <point x="-310" y="-412"/>
      <point x="-131" y="-500"/>
      <point x="5" y="-500" type="curve" smooth="yes"/>
      <point x="422" y="-500"/>
      <point x="506" y="-235"/>
      <point x="506" y="28" type="curve" smooth="yes"/>
      <point x="506" y="965" type="line"/>
      <point x="32" y="910" type="line"/>
    </contour>
  </outline>
</glyph>
<glyph name="k" format="1">
  <advance width="1305"/>
  <unicode hex="006B"/>
  <outline>
    <contour>
      <point x="33" y="1365" type="line"/>
      <point x="171" y="1271" type="line"/>
      <point x="171" y="150" type="line"/>
      <point x="39" y="72" type="line"/>
      <point x="26" y="0" type="line"/>
      <point x="633" y="0" type="line"/>
      <point x="647" y="59" type="line"/>
      <point x="515" y="140" type="line"/>
      <point x="515" y="1472" type="line"/>
      <point x="42" y="1412" type="line"/>
    </contour>
    <contour>
      <point x="1190" y="126" type="line"/>
      <point x="884" y="625" type="line"/>
      <point x="1082" y="819" type="line"/>
      <point x="1224" y="875" type="line"/>
      <point x="1240" y="950" type="line"/>
      <point x="743" y="950" type="line"/>
      <point x="729" y="889" type="line"/>
      <point x="830" y="824" type="line"/>
      <point x="557" y="550" type="line"/>
      <point x="821" y="65" type="line"/>
      <point x="809" y="0" type="line"/>
      <point x="1297" y="0" type="line"/>
      <point x="1314" y="61" type="line"/>
    </contour>
  </outline>
</glyph>
<glyph name="l" format="1">
  <advance width="681"/>
  <unicode hex="006C"/>
  <outline>
    <contour>
      <point x="33" y="1365" type="line"/>
      <point x="171" y="1271" type="line"/>
      <point x="171" y="150" type="line"/>
      <point x="39" y="72" type="line"/>
      <point x="26" y="0" type="line"/>
      <point x="633" y="0" type="line"/>
      <point x="647" y="59" type="line"/>
      <point x="515" y="140" type="line"/>
      <point x="515" y="1472" type="line"/>
      <point x="42" y="1412" type="line"/>
    </contour>
  </outline>
</glyph>
<glyph name="v" format="1">
  <advance width="1159"/>
  <unicode hex="0076"/>
  <outline>
    <contour>
      <point x="1199" y="950" type="line"/>
      <point x="778" y="950" type="line"/>
      <point x="766" y="889" type="line"/>
      <point x="867" y="824" type="line"/>
      <point x="678" y="235" type="line"/>
      <point x="470" y="826" type="line"/>
      <point x="556" y="878" type="line"/>
      <point x="572" y="950" type="line"/>
      <point x="-20" y="950" type="line"/>
      <point x="-30" y="885" type="line"/>
      <point x="111" y="823" type="line"/>
      <point x="438" y="-25" type="line"/>
      <point x="725" y="0" type="line"/>
      <point x="1058" y="819" type="line"/>
      <point x="1184" y="875" type="line"/>
    </contour>
  </outline>
</glyph>
<glyph name="x" format="1">
  <advance width="1267"/>
  <unicode hex="0078"/>
  <outline>
    <contour>
      <point x="1258" y="64" type="line"/>
      <point x="1123" y="124" type="line"/>
      <point x="817" y="484" type="line"/>
      <point x="1098" y="819" type="line"/>
      <point x="1223" y="874" type="line"/>
      <point x="1239" y="950" type="line"/>
      <point x="788" y="950" type="line"/>
      <point x="775" y="889" type="line"/>
      <point x="877" y="824" type="line"/>
      <point x="723" y="614" type="line"/>
      <point x="569" y="828" type="line"/>
      <point x="654" y="875" type="line"/>
      <point x="669" y="950" type="line"/>
      <point x="29" y="950" type="line"/>
      <point x="16" y="885" type="line"/>
      <point x="160" y="823" type="line"/>
      <point x="448" y="458" type="line"/>
      <point x="175" y="134" type="line"/>
      <point x="32" y="77" type="line"/>
      <point x="17" y="0" type="line"/>
      <point x="478" y="0" type="line"/>
      <point x="491" y="60" type="line"/>
      <point x="392" y="124" type="line"/>
      <point x="544" y="337" type="line"/>
      <point x="711" y="125" type="line"/>
      <point x="621" y="73" type="line"/>
      <point x="606" y="0" type="line"/>
      <point x="1248" y="0" type="line"/>
    </contour>
  </outline>
</glyph>
<glyph name="braceleft" format="1">
  <advance width="667"/>
  <unicode hex="007B"/>
  <outline>
    <contour>
      <point x="274" y="580"/>
      <point x="440" y="619"/>
      <point x="440" y="796" type="curve" smooth="yes"/>
      <point x="440" y="1307" type="line"/>
      <point x="653" y="1426" type="line"/>
      <point x="666" y="1497" type="line"/>
      <point x="217" y="1497"/>
      <point x="189" y="1444"/>
      <point x="189" y="1296" type="curve" smooth="yes"/>
      <point x="189" y="766" type="line" smooth="yes"/>
      <point x="189" y="692"/>
      <point x="98" y="636"/>
      <point x="52" y="611" type="curve" smooth="yes"/>
      <point x="45" y="607"/>
      <point x="31" y="594"/>
      <point x="31" y="578" type="curve" smooth="yes"/>
      <point x="31" y="562"/>
      <point x="43" y="551"/>
      <point x="52" y="546" type="curve" smooth="yes"/>
      <point x="106" y="518"/>
      <point x="189" y="471"/>
      <point x="189" y="399" type="curve" smooth="yes"/>
      <point x="189" y="-140" type="line" smooth="yes"/>
      <point x="189" y="-288"/>
      <point x="219" y="-341"/>
      <point x="646" y="-341" type="curve"/>
      <point x="664" y="-269" type="line"/>
      <point x="440" y="-156" type="line"/>
      <point x="440" y="359" type="line" smooth="yes"/>
      <point x="440" y="538"/>
      <point x="274" y="576"/>
      <point x="265" y="578" type="curve"/>
    </contour>
  </outline>
</glyph>
<glyph name="bar" format="1">
  <advance width="566"/>
  <unicode hex="007C"/>
  <outline>
    <contour>
      <point x="165" y="-500" type="line"/>
      <point x="401" y="-447" type="line"/>
      <point x="401" y="1472" type="line"/>
      <point x="165" y="1418" type="line"/>
    </contour>
  </outline>
</glyph>
<glyph name="asciitilde" format="1">
  <advance width="1024"/>
  <unicode hex="007E"/>
  <outline>
    <contour>
      <point x="155" y="428" type="line"/>
      <point x="226" y="484"/>
      <point x="326" y="527"/>
      <point x="371" y="527" type="curve" smooth="yes"/>
      <point x="429" y="527"/>
      <point x="518" y="395"/>
      <point x="644" y="395" type="curve" smooth="yes"/>
      <point x="742" y="395"/>
      <point x="823" y="481"/>
      <point x="897" y="558" type="curve"/>
      <point x="867" y="722" type="line"/>
      <point x="800" y="669"/>
      <point x="698" y="624"/>
      <point x="653" y="624" type="curve" smooth="yes"/>
      <point x="596" y="624"/>
      <point x="507" y="756"/>
      <point x="380" y="756" type="curve" smooth="yes"/>
      <point x="284" y="756"/>
      <point x="201" y="671"/>
      <point x="127" y="593" type="curve"/>
    </contour>
  </outline>
</glyph>
<glyph name="exclamdown" format="1">
  <advance width="585"/>
  <unicode hex="00A1"/>
  <outline>
    <contour>
      <point x="360" y="717"/>
      <point x="423" y="762"/>
      <point x="469" y="815" type="curve" smooth="yes"/>
      <point x="502" y="853"/>
      <point x="532" y="895"/>
      <point x="532" y="919" type="curve" smooth="yes"/>
      <point x="532" y="954"/>
      <point x="477" y="1027"/>
      <point x="421" y="1073" type="curve" smooth="yes"/>
      <point x="386" y="1102"/>
      <point x="354" y="1125"/>
      <point x="331" y="1125" type="curve" smooth="yes"/>
      <point x="294" y="1125"/>
      <point x="234" y="1075"/>
      <point x="184" y="1024" type="curve" smooth="yes"/>
      <point x="150" y="990"/>
      <point x="124" y="947"/>
      <point x="124" y="921" type="curve" smooth="yes"/>
      <point x="124" y="889"/>
      <point x="178" y="817"/>
      <point x="232" y="771" type="curve" smooth="yes"/>
      <point x="268" y="740"/>
      <point x="302" y="717"/>
      <point x="325" y="717" type="curve" smooth="yes"/>
    </contour>
    <contour>
      <point x="177" y="618" type="line"/>
      <point x="177" y="-300" type="line"/>
      <point x="530" y="-300" type="line"/>
      <point x="530" y="-129"/>
      <point x="516" y="330"/>
      <point x="494" y="569" type="curve"/>
    </contour>
  </outline>
</glyph>
<glyph name="yen" format="1">
  <advance width="1469"/>
  <unicode hex="00A5"/>
  <outline>
    <contour>
      <point x="1413" y="1310" type="line"/>
      <point x="892" y="1310" type="line"/>
      <point x="875" y="1233" type="line"/>
      <point x="1050" y="1147" type="line"/>
      <point x="803" y="633" type="line"/>
      <point x="543" y="1147" type="line"/>
      <point x="686" y="1223" type="line"/>
      <point x="701" y="1310" type="line"/>
      <point x="74" y="1310" type="line"/>
      <point x="56" y="1217" type="line"/>
      <point x="200" y="1147" type="line"/>
      <point x="496" y="621" type="line"/>
      <point x="347" y="621" type="line"/>
      <point x="320" y="485" type="line"/>
      <point x="562" y="493" type="line"/>
      <point x="562" y="408" type="line"/>
      <point x="346" y="408" type="line"/>
      <point x="319" y="272" type="line"/>
      <point x="562" y="280" type="line"/>
      <point x="562" y="159" type="line"/>
      <point x="386" y="83" type="line"/>
      <point x="369" y="0" type="line"/>
      <point x="1069" y="0" type="line"/>
      <point x="1088" y="82" type="line"/>
      <point x="882" y="159" type="line"/>
      <point x="882" y="291" type="line"/>
      <point x="1114" y="299" type="line"/>
      <point x="1129" y="408" type="line"/>
      <point x="882" y="408" type="line"/>
      <point x="882" y="504" type="line"/>
      <point x="1113" y="512" type="line"/>
      <point x="1128" y="621" type="line"/>
      <point x="949" y="621" type="line"/>
      <point x="1252" y="1147" type="line"/>
      <point x="1394" y="1215" type="line"/>
    </contour>
  </outline>
</glyph>
<glyph name="brokenbar" format="1">
  <advance width="566"/>
  <unicode hex="00A6"/>
  <outline>
    <contour>
      <point x="165" y="650" type="line"/>
      <point x="401" y="703" type="line"/>
      <point x="401" y="1472" type="line"/>
      <point x="165" y="1418" type="line"/>
    </contour>
    <contour>
      <point x="165" y="-500" type="line"/>
      <point x="401" y="-447" type="line"/>
      <point x="401" y="322" type="line"/>
      <point x="165" y="268" type="line"/>
    </contour>
  </outline>
</glyph>
<glyph name="dieresis" format="1">
  <advance width="1024"/>
  <unicode hex="00A8"/>
  <outline>
    <contour>
      <point x="63" y="1220"/>
      <point x="211" y="1075"/>
      <point x="264" y="1075" type="curve" smooth="yes"/>
      <point x="324" y="1075"/>
      <point x="451" y="1219"/>
      <point x="451" y="1279" type="curve" smooth="yes"/>
      <point x="451" y="1334"/>
      <point x="323" y="1483"/>
      <point x="270" y="1483" type="curve" smooth="yes"/>
      <point x="207" y="1483"/>
      <point x="63" y="1339"/>
      <point x="63" y="1281" type="curve" smooth="yes"/>
    </contour>
    <contour>
      <point x="573" y="1226"/>
      <point x="697" y="1075"/>
      <point x="754" y="1075" type="curve" smooth="yes"/>
      <point x="820" y="1075"/>
      <point x="961" y="1220"/>
      <point x="961" y="1279" type="curve" smooth="yes"/>
      <point x="961" y="1338"/>
      <point x="813" y="1483"/>
      <point x="760" y="1483" type="curve" smooth="yes"/>
      <point x="701" y="1483"/>
      <point x="573" y="1341"/>
      <point x="573" y="1281" type="curve" smooth="yes"/>
    </contour>
  </outline>
</glyph>
<glyph name="logicalnot" format="1">
  <advance width="1024"/>
  <unicode hex="00AC"/>
  <outline>
    <contour>
      <point x="120" y="670" type="line"/>
      <point x="95" y="441" type="line"/>
      <point x="675" y="448" type="line"/>
      <point x="687" y="138" type="line"/>
      <point x="885" y="116" type="line"/>
      <point x="885" y="670" type="line"/>
    </contour>
  </outline>
</glyph>
<glyph name="softhyphen" format="1">
  <advance width="947"/>
  <unicode hex="00AD"/>
  <outline>
    <contour>
      <point x="165" y="646" type="line"/>
      <point x="119" y="425" type="line"/>
      <point x="268" y="425"/>
      <point x="660" y="441"/>
      <point x="825" y="457" type="curve"/>
      <point x="861" y="646" type="line"/>
    </contour>
  </outline>
</glyph>
<glyph name="registered" format="1">
  <advance width="1183"/>
  <unicode hex="00AE"/>
  <outline>
    <contour>
      <point x="916" y="541"/>
      <point x="1101" y="781"/>
      <point x="1101" y="1094" type="curve" smooth="yes"/>
      <point x="1101" y="1431"/>
      <point x="868" y="1595"/>
      <point x="620" y="1595" type="curve" smooth="yes"/>
      <point x="267" y="1595"/>
      <point x="82" y="1350"/>
      <point x="82" y="1039" type="curve" smooth="yes"/>
      <point x="82" y="735"/>
      <point x="280" y="541"/>
      <point x="569" y="541" type="curve" smooth="yes"/>
    </contour>
    <contour>
      <point x="249" y="1291"/>
      <point x="390" y="1447"/>
      <point x="575" y="1447" type="curve" smooth="yes"/>
      <point x="798" y="1447"/>
      <point x="927" y="1296"/>
      <point x="927" y="1040" type="curve" smooth="yes"/>
      <point x="927" y="834"/>
      <point x="787" y="690"/>
      <point x="610" y="690" type="curve" smooth="yes"/>
      <point x="376" y="690"/>
      <point x="248" y="854"/>
      <point x="248" y="1100" type="curve" smooth="yes"/>
    </contour>
    <contour>
      <point x="365" y="884" type="line"/>
      <point x="352" y="812" type="line"/>
      <point x="573" y="812" type="line"/>
      <point x="593" y="872" type="line"/>
      <point x="555" y="899" type="line"/>
      <point x="555" y="1244" type="line"/>
      <point x="597" y="1237"/>
      <point x="663" y="1221"/>
      <point x="663" y="1156" type="curve" smooth="yes"/>
      <point x="663" y="1102"/>
      <point x="642" y="1077"/>
      <point x="578" y="1057" type="curve"/>
      <point x="644" y="853" type="line"/>
      <point x="636" y="812" type="line"/>
      <point x="830" y="812" type="line"/>
      <point x="844" y="860" type="line"/>
      <point x="774" y="908" type="line"/>
      <point x="724" y="1044" type="line"/>
      <point x="805" y="1077"/>
      <point x="827" y="1114"/>
      <point x="827" y="1184" type="curve" smooth="yes"/>
      <point x="827" y="1257"/>
      <point x="781" y="1294"/>
      <point x="718" y="1312" type="curve" smooth="yes"/>
      <point x="656" y="1330"/>
      <point x="579" y="1330"/>
      <point x="516" y="1330" type="curve" smooth="yes"/>
      <point x="363" y="1330" type="line"/>
      <point x="346" y="1257" type="line"/>
      <point x="410" y="1225" type="line"/>
      <point x="410" y="914" type="line"/>
    </contour>
  </outline>
</glyph>
<glyph name="macron" format="1">
  <advance width="1024"/>
  <unicode hex="00AF"/>
  <outline>
    <contour>
      <point x="216" y="1335" type="line"/>
      <point x="177" y="1131" type="line"/>
      <point x="373" y="1130"/>
      <point x="617" y="1134"/>
      <point x="813" y="1143" type="curve"/>
      <point x="850" y="1335" type="line"/>
    </contour>
  </outline>
</glyph>
<glyph name="plusminus" format="1">
  <advance width="1024"/>
  <unicode hex="00B1"/>
  <outline>
    <contour>
      <point x="393" y="502" type="line"/>
      <point x="393" y="265" type="line"/>
      <point x="619" y="282" type="line"/>
      <point x="619" y="507" type="line"/>
      <point x="887" y="527" type="line"/>
      <point x="907" y="730" type="line"/>
      <point x="619" y="730" type="line"/>
      <point x="619" y="954" type="line"/>
      <point x="393" y="930" type="line"/>
      <point x="393" y="730" type="line"/>
      <point x="137" y="730" type="line"/>
      <point x="111" y="501" type="line"/>
    </contour>
    <contour>
      <point x="141" y="180" type="line"/>
      <point x="116" y="-49" type="line"/>
      <point x="382" y="-45"/>
      <point x="640" y="-38"/>
      <point x="886" y="-19" type="curve"/>
      <point x="907" y="180" type="line"/>
    </contour>
  </outline>
</glyph>
<glyph name="acute" format="1">
  <advance width="1024"/>
  <unicode hex="00B4"/>
  <outline>
    <contour>
      <point x="602" y="1472" type="line"/>
      <point x="322" y="1203" type="line"/>
      <point x="351" y="1042" type="line"/>
      <point x="804" y="1277" type="line"/>
      <point x="765" y="1472" type="line"/>
    </contour>
  </outline>
</glyph>
<glyph name="cedilla" format="1">
  <advance width="1024"/>
  <unicode hex="00B8"/>
  <outline>
    <contour>
      <point x="542" y="8" type="line"/>
      <point x="431" y="8" type="line"/>
      <point x="391" y="-31"/>
      <point x="324" y="-135"/>
      <point x="319" y="-187" type="curve"/>
      <point x="424" y="-204"/>
      <point x="518" y="-230"/>
      <point x="518" y="-282" type="curve" smooth="yes"/>
      <point x="518" y="-306"/>
      <point x="502" y="-354"/>
      <point x="295" y="-422" type="curve"/>
      <point x="327" y="-510" type="line"/>
      <point x="466" y="-510"/>
      <point x="724" y="-442"/>
      <point x="724" y="-272" type="curve" smooth="yes"/>
      <point x="724" y="-162"/>
      <point x="656" y="-102"/>
      <point x="511" y="-83" type="curve"/>
    </contour>
  </outline>
</glyph>
<glyph name="onesuperior" format="1">
  <advance width="652"/>
  <unicode hex="00B9"/>
  <outline>
    <contour>
      <point x="219" y="996" type="line"/>
      <point x="58" y="966" type="line"/>
      <point x="41" y="871" type="line"/>
      <point x="622" y="871" type="line"/>
      <point x="642" y="972" type="line"/>
      <point x="493" y="1002" type="line"/>
      <point x="493" y="1726" type="line"/>
      <point x="53" y="1655" type="line"/>
      <point x="35" y="1560" type="line"/>
      <point x="219" y="1560" type="line"/>
    </contour>
  </outline>
</glyph>
<glyph name="ordmasculine" format="1">
  <advance width="1054"/>
  <unicode hex="00BA"/>
  <outline>
    <contour>
      <point x="128" y="720"/>
      <point x="309" y="600"/>
      <point x="536" y="600" type="curve" smooth="yes"/>
      <point x="754" y="600"/>
      <point x="928" y="802"/>
      <point x="928" y="1030" type="curve" smooth="yes"/>
      <point x="928" y="1296"/>
      <point x="747" y="1419"/>
      <point x="531" y="1419" type="curve" smooth="yes"/>
      <point x="291" y="1419"/>
      <point x="128" y="1211"/>
      <point x="128" y="989" type="curve" smooth="yes"/>
    </contour>
    <contour>
      <point x="427" y="754"/>
      <point x="365" y="923"/>
      <point x="365" y="1074" type="curve" smooth="yes"/>
      <point x="365" y="1142"/>
      <point x="382" y="1224"/>
      <point x="407" y="1252" type="curve" smooth="yes"/>
      <point x="415" y="1261"/>
      <point x="434" y="1268"/>
      <point x="466" y="1268" type="curve" smooth="yes"/>
      <point x="599" y="1268"/>
      <point x="692" y="1141"/>
      <point x="692" y="946" type="curve" smooth="yes"/>
      <point x="692" y="899"/>
      <point x="681" y="802"/>
      <point x="652" y="773" type="curve"/>
      <point x="639" y="759"/>
      <point x="613" y="754"/>
      <point x="588" y="754" type="curve" smooth="yes"/>
    </contour>
    <contour>
      <point x="159" y="489" type="line"/>
      <point x="127" y="306" type="line"/>
      <point x="335" y="306"/>
      <point x="605" y="313"/>
      <point x="903" y="330" type="curve"/>
      <point x="936" y="489" type="line"/>
    </contour>
  </outline>
</glyph>
<glyph name="guillemotright" format="1">
  <advance width="1015"/>
  <unicode hex="00BB"/>
  <outline>
    <contour>
      <point x="565" y="300"/>
      <point x="465" y="145"/>
      <point x="419" y="49" type="curve"/>
      <point x="541" y="-33" type="line"/>
      <point x="1005" y="461" type="line"/>
      <point x="543" y="955" type="line"/>
      <point x="420" y="874" type="line"/>
      <point x="459" y="780"/>
      <point x="559" y="633"/>
      <point x="685" y="461" type="curve"/>
    </contour>
    <contour>
      <point x="153" y="346"/>
      <point x="93" y="237"/>
      <point x="55" y="166" type="curve"/>
      <point x="178" y="81" type="line"/>
      <point x="532" y="461" type="line"/>
      <point x="180" y="840" type="line"/>
      <point x="56" y="758" type="line"/>
      <point x="89" y="687"/>
      <point x="153" y="582"/>
      <point x="232" y="461" type="curve"/>
    </contour>
  </outline>
</glyph>
<glyph name="onequarter" format="1">
  <advance width="1889"/>
  <unicode hex="00BC"/>
  <outline>
    <contour>
      <point x="219" y="672" type="line"/>
      <point x="58" y="642" type="line"/>
      <point x="41" y="547" type="line"/>
      <point x="622" y="547" type="line"/>
      <point x="642" y="648" type="line"/>
      <point x="493" y="678" type="line"/>
      <point x="493" y="1402" type="line"/>
      <point x="53" y="1331" type="line"/>
      <point x="35" y="1236" type="line"/>
      <point x="219" y="1236" type="line"/>
    </contour>
    <contour>
      <point x="440" y="240" type="line"/>
      <point x="642" y="198" type="line"/>
      <point x="1366" y="1150" type="line"/>
      <point x="1155" y="1197" type="line"/>
    </contour>
    <contour>
      <point x="1034" y="296" type="line"/>
      <point x="1065" y="219" type="line"/>
      <point x="1460" y="219" type="line"/>
      <point x="1460" y="-69" type="line"/>
      <point x="1716" y="-33" type="line"/>
      <point x="1716" y="219" type="line"/>
      <point x="1807" y="219" type="line"/>
      <point x="1824" y="372" type="line"/>
      <point x="1710" y="369" type="line"/>
      <point x="1710" y="477" type="line"/>
      <point x="1480" y="439" type="line"/>
      <point x="1480" y="356" type="line"/>
      <point x="1305" y="346" type="line"/>
      <point x="1664" y="831" type="line"/>
      <point x="1393" y="873" type="line"/>
    </contour>
  </outline>
</glyph>
<glyph name="onehalf" format="1">
  <advance width="1864"/>
  <unicode hex="00BD"/>
  <outline>
    <contour>
      <point x="219" y="672" type="line"/>
      <point x="58" y="642" type="line"/>
      <point x="41" y="547" type="line"/>
      <point x="622" y="547" type="line"/>
      <point x="642" y="648" type="line"/>
      <point x="493" y="678" type="line"/>
      <point x="493" y="1402" type="line"/>
      <point x="53" y="1331" type="line"/>
      <point x="35" y="1236" type="line"/>
      <point x="219" y="1236" type="line"/>
    </contour>
    <contour>
      <point x="440" y="240" type="line"/>
      <point x="642" y="198" type="line"/>
      <point x="1366" y="1150" type="line"/>
      <point x="1155" y="1197" type="line"/>
    </contour>
    <contour>
      <point x="1601" y="288"/>
      <point x="1785" y="462"/>
      <point x="1785" y="618" type="curve" smooth="yes"/>
      <point x="1785" y="761"/>
      <point x="1670" y="854"/>
      <point x="1458" y="854" type="curve" smooth="yes"/>
      <point x="1351" y="854"/>
      <point x="1249" y="833"/>
      <point x="1148" y="781" type="curve"/>
      <point x="1203" y="653" type="line"/>
      <point x="1266" y="673"/>
      <point x="1334" y="686"/>
      <point x="1377" y="686" type="curve" smooth="yes"/>
      <point x="1477" y="686"/>
      <point x="1507" y="639"/>
      <point x="1507" y="591" type="curve" smooth="yes"/>
      <point x="1507" y="544"/>
      <point x="1475" y="477"/>
      <point x="1409" y="400" type="curve" smooth="yes"/>
      <point x="1365" y="349"/>
      <point x="1157" y="107"/>
      <point x="1126" y="74" type="curve"/>
      <point x="1155" y="1" type="line"/>
      <point x="1849" y="1" type="line"/>
      <point x="1813" y="188" type="line"/>
      <point x="1688" y="178"/>
      <point x="1565" y="164"/>
      <point x="1446" y="144" type="curve"/>
    </contour>
  </outline>
</glyph>
<glyph name="threequarters" format="1">
  <advance width="1952"/>
  <unicode hex="00BE"/>
  <outline>
    <contour>
      <point x="75" y="482" type="line"/>
      <point x="347" y="482"/>
      <point x="662" y="560"/>
      <point x="662" y="824" type="curve" smooth="yes"/>
      <point x="662" y="923"/>
      <point x="591" y="1007"/>
      <point x="457" y="1022" type="curve"/>
      <point x="681" y="1299" type="line"/>
      <point x="657" y="1384" type="line"/>
      <point x="29" y="1384" type="line"/>
      <point x="62" y="1226" type="line"/>
      <point x="129" y="1226"/>
      <point x="299" y="1238"/>
      <point x="442" y="1251" type="curve"/>
      <point x="180" y="1020" type="line"/>
      <point x="170" y="942" type="line"/>
      <point x="284" y="939"/>
      <point x="394" y="925"/>
      <point x="394" y="810" type="curve" smooth="yes"/>
      <point x="394" y="668"/>
      <point x="176" y="613"/>
      <point x="40" y="592" type="curve"/>
    </contour>
    <contour>
      <point x="440" y="240" type="line"/>
      <point x="642" y="198" type="line"/>
      <point x="1366" y="1150" type="line"/>
      <point x="1155" y="1197" type="line"/>
    </contour>
    <contour>
      <point x="1034" y="296" type="line"/>
      <point x="1065" y="219" type="line"/>
      <point x="1460" y="219" type="line"/>
      <point x="1460" y="-69" type="line"/>
      <point x="1716" y="-33" type="line"/>
      <point x="1716" y="219" type="line"/>
      <point x="1807" y="219" type="line"/>
      <point x="1824" y="372" type="line"/>
      <point x="1710" y="369" type="line"/>
      <point x="1710" y="477" type="line"/>
      <point x="1480" y="439" type="line"/>
      <point x="1480" y="356" type="line"/>
      <point x="1305" y="346" type="line"/>
      <point x="1664" y="831" type="line"/>
      <point x="1393" y="873" type="line"/>
    </contour>
  </outline>
</glyph>
<glyph name="questiondown" format="1">
  <advance width="1073"/>
  <unicode hex="00BF"/>
  <outline>
    <contour>
      <point x="533" y="1152"/>
      <point x="369" y="997"/>
      <point x="369" y="929" type="curve" smooth="yes"/>
      <point x="369" y="873"/>
      <point x="518" y="706"/>
      <point x="588" y="706" type="curve" smooth="yes"/>
      <point x="653" y="706"/>
      <point x="815" y="864"/>
      <point x="815" y="927" type="curve" smooth="yes"/>
      <point x="815" y="987"/>
      <point x="662" y="1152"/>
      <point x="595" y="1152" type="curve" smooth="yes"/>
    </contour>
    <contour>
      <point x="748" y="578" type="line"/>
      <point x="443" y="625" type="line"/>
      <point x="430" y="578"/>
      <point x="400" y="465"/>
      <point x="393" y="431" type="curve"/>
      <point x="155" y="339"/>
      <point x="44" y="223"/>
      <point x="44" y="35" type="curve" smooth="yes"/>
      <point x="44" y="-264"/>
      <point x="392" y="-325"/>
      <point x="637" y="-325" type="curve" smooth="yes"/>
      <point x="814" y="-325"/>
      <point x="1000" y="-243"/>
      <point x="1000" y="-172" type="curve" smooth="yes"/>
      <point x="1000" y="-112"/>
      <point x="851" y="30"/>
      <point x="797" y="30" type="curve" smooth="yes"/>
      <point x="760" y="30"/>
      <point x="697" y="-21"/>
      <point x="672" y="-51" type="curve"/>
      <point x="630" y="-257" type="line"/>
      <point x="566" y="-253"/>
      <point x="413" y="-134"/>
      <point x="413" y="59" type="curve" smooth="yes"/>
      <point x="413" y="177"/>
      <point x="498" y="294"/>
      <point x="732" y="412" type="curve" smooth="yes"/>
      <point x="748" y="420"/>
      <point x="752" y="428"/>
      <point x="752" y="453" type="curve"/>
    </contour>
  </outline>
</glyph>
<glyph name="Aacute" format="1">
  <advance width="1489"/>
  <unicode hex="00C1"/>
  <outline>
    <contour>
      <point x="547" y="1486" type="line"/>
      <point x="1067" y="1637" type="line"/>
      <point x="1031" y="1811" type="line"/>
      <point x="859" y="1811" type="line"/>
      <point x="520" y="1596" type="line"/>
    </contour>
    <contour>
      <point x="1532" y="95" type="line"/>
      <point x="1370" y="159" type="line"/>
      <point x="881" y="1419" type="line"/>
      <point x="579" y="1384" type="line"/>
      <point x="136" y="164" type="line"/>
      <point x="-28" y="93" type="line"/>
      <point x="-45" y="0" type="line"/>
      <point x="494" y="0" type="line"/>
      <point x="510" y="80" type="line"/>
      <point x="337" y="159" type="line"/>
      <point x="414" y="383" type="line"/>
      <point x="576" y="382"/>
      <point x="737" y="386"/>
      <point x="899" y="395" type="curve"/>
      <point x="973" y="159" type="line"/>
      <point x="816" y="83" type="line"/>
      <point x="801" y="0" type="line"/>
      <point x="1502" y="0" type="line"/>
    </contour>
    <contour>
      <point x="846" y="568" type="line"/>
      <point x="477" y="568" type="line"/>
      <point x="561" y="817"/>
      <point x="654" y="1098"/>
      <point x="663" y="1155" type="curve"/>
    </contour>
  </outline>
</glyph>
<glyph name="Acircumflex" format="1">
  <advance width="1489"/>
  <unicode hex="00C2"/>
  <outline>
    <contour>
      <point x="466" y="1475" type="line"/>
      <point x="727" y="1598" type="line"/>
      <point x="988" y="1475" type="line"/>
      <point x="1087" y="1554" type="line"/>
      <point x="791" y="1805" type="line"/>
      <point x="662" y="1805" type="line"/>
      <point x="367" y="1554" type="line"/>
    </contour>
    <contour>
      <point x="1532" y="95" type="line"/>
      <point x="1370" y="159" type="line"/>
      <point x="881" y="1419" type="line"/>
      <point x="579" y="1384" type="line"/>
      <point x="136" y="164" type="line"/>
      <point x="-28" y="93" type="line"/>
      <point x="-45" y="0" type="line"/>
      <point x="494" y="0" type="line"/>
      <point x="510" y="80" type="line"/>
      <point x="337" y="159" type="line"/>
      <point x="414" y="383" type="line"/>
      <point x="576" y="382"/>
      <point x="737" y="386"/>
      <point x="899" y="395" type="curve"/>
      <point x="973" y="159" type="line"/>
      <point x="816" y="83" type="line"/>
      <point x="801" y="0" type="line"/>
      <point x="1502" y="0" type="line"/>
    </contour>
    <contour>
      <point x="846" y="568" type="line"/>
      <point x="477" y="568" type="line"/>
      <point x="561" y="817"/>
      <point x="654" y="1098"/>
      <point x="663" y="1155" type="curve"/>
    </contour>
  </outline>
</glyph>
<glyph name="Atilde" format="1">
  <advance width="1489"/>
  <unicode hex="00C3"/>
  <outline>
    <contour>
      <point x="644" y="1653"/>
      <point x="715" y="1512"/>
      <point x="853" y="1512" type="curve" smooth="yes"/>
      <point x="961" y="1512"/>
      <point x="1037" y="1598"/>
      <point x="1116" y="1686" type="curve"/>
      <point x="1093" y="1833" type="line"/>
      <point x="1007" y="1763"/>
      <point x="917" y="1715"/>
      <point x="871" y="1715" type="curve" smooth="yes"/>
      <point x="808" y="1715"/>
      <point x="734" y="1856"/>
      <point x="595" y="1856" type="curve" smooth="yes"/>
      <point x="489" y="1856"/>
      <point x="414" y="1772"/>
      <point x="333" y="1680" type="curve"/>
      <point x="361" y="1533" type="line"/>
      <point x="440" y="1604"/>
      <point x="533" y="1653"/>
      <point x="580" y="1653" type="curve" smooth="yes"/>
    </contour>
    <contour>
      <point x="1532" y="95" type="line"/>
      <point x="1370" y="159" type="line"/>
      <point x="881" y="1419" type="line"/>
      <point x="579" y="1384" type="line"/>
      <point x="136" y="164" type="line"/>
      <point x="-28" y="93" type="line"/>
      <point x="-45" y="0" type="line"/>
      <point x="494" y="0" type="line"/>
      <point x="510" y="80" type="line"/>
      <point x="337" y="159" type="line"/>
      <point x="414" y="383" type="line"/>
      <point x="576" y="382"/>
      <point x="737" y="386"/>
      <point x="899" y="395" type="curve"/>
      <point x="973" y="159" type="line"/>
      <point x="816" y="83" type="line"/>
      <point x="801" y="0" type="line"/>
      <point x="1502" y="0" type="line"/>
    </contour>
    <contour>
      <point x="846" y="568" type="line"/>
      <point x="477" y="568" type="line"/>
      <point x="561" y="817"/>
      <point x="654" y="1098"/>
      <point x="663" y="1155" type="curve"/>
    </contour>
  </outline>
</glyph>
<glyph name="Adieresis" format="1">
  <advance width="1489"/>
  <unicode hex="00C4"/>
  <outline>
    <contour>
      <point x="518" y="1485"/>
      <point x="639" y="1610"/>
      <point x="639" y="1658" type="curve" smooth="yes"/>
      <point x="639" y="1708"/>
      <point x="513" y="1831"/>
      <point x="469" y="1831" type="curve" smooth="yes"/>
      <point x="415" y="1831"/>
      <point x="293" y="1709"/>
      <point x="293" y="1660" type="curve" smooth="yes"/>
      <point x="293" y="1612"/>
      <point x="417" y="1485"/>
      <point x="463" y="1485" type="curve" smooth="yes"/>
    </contour>
    <contour>
      <point x="1037" y="1485"/>
      <point x="1158" y="1610"/>
      <point x="1158" y="1658" type="curve" smooth="yes"/>
      <point x="1158" y="1708"/>
      <point x="1032" y="1831"/>
      <point x="988" y="1831" type="curve" smooth="yes"/>
      <point x="934" y="1831"/>
      <point x="812" y="1709"/>
      <point x="812" y="1660" type="curve" smooth="yes"/>
      <point x="812" y="1612"/>
      <point x="936" y="1485"/>
      <point x="982" y="1485" type="curve" smooth="yes"/>
    </contour>
    <contour>
      <point x="1532" y="95" type="line"/>
      <point x="1370" y="159" type="line"/>
      <point x="881" y="1419" type="line"/>
      <point x="579" y="1384" type="line"/>
      <point x="136" y="164" type="line"/>
      <point x="-28" y="93" type="line"/>
      <point x="-45" y="0" type="line"/>
      <point x="494" y="0" type="line"/>
      <point x="510" y="80" type="line"/>
      <point x="337" y="159" type="line"/>
      <point x="414" y="383" type="line"/>
      <point x="576" y="382"/>
      <point x="737" y="386"/>
      <point x="899" y="395" type="curve"/>
      <point x="973" y="159" type="line"/>
      <point x="816" y="83" type="line"/>
      <point x="801" y="0" type="line"/>
      <point x="1502" y="0" type="line"/>
    </contour>
    <contour>
      <point x="846" y="568" type="line"/>
      <point x="477" y="568" type="line"/>
      <point x="561" y="817"/>
      <point x="654" y="1098"/>
      <point x="663" y="1155" type="curve"/>
    </contour>
  </outline>
</glyph>
<glyph name="Aring" format="1">
  <advance width="1489"/>
  <unicode hex="00C5"/>
  <outline>
    <contour>
      <point x="1532" y="95" type="line"/>
      <point x="1370" y="159" type="line"/>
      <point x="889" y="1398" type="line"/>
      <point x="918" y="1433"/>
      <point x="934" y="1479"/>
      <point x="934" y="1532" type="curve" smooth="yes"/>
      <point x="934" y="1648"/>
      <point x="835" y="1723"/>
      <point x="731" y="1723" type="curve" smooth="yes"/>
      <point x="600" y="1723"/>
      <point x="516" y="1633"/>
      <point x="516" y="1514" type="curve" smooth="yes"/>
      <point x="516" y="1457"/>
      <point x="539" y="1409"/>
      <point x="576" y="1376" type="curve"/>
      <point x="136" y="164" type="line"/>
      <point x="-28" y="93" type="line"/>
      <point x="-45" y="0" type="line"/>
      <point x="494" y="0" type="line"/>
      <point x="510" y="80" type="line"/>
      <point x="337" y="159" type="line"/>
      <point x="414" y="383" type="line"/>
      <point x="576" y="382"/>
      <point x="737" y="386"/>
      <point x="899" y="395" type="curve"/>
      <point x="973" y="159" type="line"/>
      <point x="816" y="83" type="line"/>
      <point x="801" y="0" type="line"/>
      <point x="1502" y="0" type="line"/>
    </contour>
    <contour>
      <point x="765" y="1599"/>
      <point x="792" y="1560"/>
      <point x="792" y="1516" type="curve" smooth="yes"/>
      <point x="792" y="1479"/>
      <point x="769" y="1451"/>
      <point x="731" y="1451" type="curve" smooth="yes"/>
      <point x="680" y="1451"/>
      <point x="656" y="1491"/>
      <point x="656" y="1531" type="curve" smooth="yes"/>
      <point x="656" y="1567"/>
      <point x="680" y="1599"/>
      <point x="717" y="1599" type="curve" smooth="yes"/>
    </contour>
    <contour>
      <point x="846" y="568" type="line"/>
      <point x="477" y="568" type="line"/>
      <point x="561" y="817"/>
      <point x="654" y="1098"/>
      <point x="663" y="1155" type="curve"/>
    </contour>
  </outline>
</glyph>
<glyph name="AE" format="1">
  <advance width="2002"/>
  <unicode hex="00C6"/>
  <outline>
    <contour>
      <point x="879" y="165" type="line"/>
      <point x="703" y="89" type="line"/>
      <point x="688" y="0" type="line"/>
      <point x="1888" y="0" type="line"/>
      <point x="1969" y="354" type="line"/>
      <point x="1834" y="371" type="line"/>
      <point x="1713" y="171" type="line"/>
      <point x="1598" y="160"/>
      <point x="1283" y="112"/>
      <point x="1235" y="99" type="curve"/>
      <point x="1235" y="659" type="line"/>
      <point x="1285" y="644"/>
      <point x="1450" y="622"/>
      <point x="1473" y="622" type="curve"/>
      <point x="1520" y="462" type="line"/>
      <point x="1625" y="448" type="line"/>
      <point x="1642" y="928" type="line"/>
      <point x="1539" y="951" type="line"/>
      <point x="1473" y="781" type="line"/>
      <point x="1442" y="780"/>
      <point x="1292" y="758"/>
      <point x="1235" y="741" type="curve"/>
      <point x="1235" y="1296" type="line"/>
      <point x="1387" y="1269"/>
      <point x="1528" y="1246"/>
      <point x="1658" y="1227" type="curve"/>
      <point x="1753" y="1021" type="line"/>
      <point x="1894" y="1046" type="line"/>
      <point x="1855" y="1397" type="line"/>
      <point x="1709" y="1384" type="line"/>
      <point x="557" y="1384" type="line"/>
      <point x="539" y="1304" type="line"/>
      <point x="667" y="1246" type="line"/>
      <point x="117" y="157" type="line"/>
      <point x="-34" y="91" type="line"/>
      <point x="-51" y="0" type="line"/>
      <point x="476" y="0" type="line"/>
      <point x="495" y="82" type="line"/>
      <point x="318" y="159" type="line"/>
      <point x="435" y="383" type="line"/>
      <point x="593" y="383"/>
      <point x="766" y="383"/>
      <point x="879" y="396" type="curve"/>
    </contour>
    <contour>
      <point x="879" y="1155" type="line"/>
      <point x="879" y="568" type="line"/>
      <point x="528" y="568" type="line"/>
      <point x="823" y="1155" type="line"/>
    </contour>
  </outline>
</glyph>
<glyph name="Igrave" format="1">
  <advance width="864"/>
  <unicode hex="00CC"/>
  <outline>
    <contour>
      <point x="157" y="1638" type="line"/>
      <point x="678" y="1484" type="line"/>
      <point x="702" y="1598" type="line"/>
      <point x="366" y="1811" type="line"/>
      <point x="193" y="1811" type="line"/>
    </contour>
    <contour>
      <point x="246" y="165" type="line"/>
      <point x="69" y="85" type="line"/>
      <point x="51" y="0" type="line"/>
      <point x="789" y="0" type="line"/>
      <point x="806" y="81" type="line"/>
      <point x="615" y="165" type="line"/>
      <point x="615" y="1219" type="line"/>
      <point x="797" y="1301" type="line"/>
      <point x="812" y="1384" type="line"/>
      <point x="76" y="1384" type="line"/>
      <point x="59" y="1303" type="line"/>
      <point x="246" y="1221" type="line"/>
    </contour>
  </outline>
</glyph>
<glyph name="Icircumflex" format="1">
  <advance width="864"/>
  <unicode hex="00CE"/>
  <outline>
    <contour>
      <point x="72" y="1554" type="line"/>
      <point x="171" y="1475" type="line"/>
      <point x="432" y="1598" type="line"/>
      <point x="693" y="1475" type="line"/>
      <point x="792" y="1554" type="line"/>
      <point x="496" y="1805" type="line"/>
      <point x="367" y="1805" type="line"/>
    </contour>
    <contour>
      <point x="246" y="165" type="line"/>
      <point x="69" y="85" type="line"/>
      <point x="51" y="0" type="line"/>
      <point x="789" y="0" type="line"/>
      <point x="806" y="81" type="line"/>
      <point x="615" y="165" type="line"/>
      <point x="615" y="1219" type="line"/>
      <point x="797" y="1301" type="line"/>
      <point x="812" y="1384" type="line"/>
      <point x="76" y="1384" type="line"/>
      <point x="59" y="1303" type="line"/>
      <point x="246" y="1221" type="line"/>
    </contour>
  </outline>
</glyph>
<glyph name="Idieresis" format="1">
  <advance width="864"/>
  <unicode hex="00CF"/>
  <outline>
    <contour>
      <point x="-2" y="1612"/>
      <point x="122" y="1485"/>
      <point x="168" y="1485" type="curve" smooth="yes"/>
      <point x="223" y="1485"/>
      <point x="344" y="1610"/>
      <point x="344" y="1658" type="curve" smooth="yes"/>
      <point x="344" y="1708"/>
      <point x="218" y="1831"/>
      <point x="174" y="1831" type="curve" smooth="yes"/>
      <point x="120" y="1831"/>
      <point x="-2" y="1709"/>
      <point x="-2" y="1660" type="curve" smooth="yes"/>
    </contour>
    <contour>
      <point x="517" y="1612"/>
      <point x="641" y="1485"/>
      <point x="687" y="1485" type="curve" smooth="yes"/>
      <point x="742" y="1485"/>
      <point x="863" y="1610"/>
      <point x="863" y="1658" type="curve" smooth="yes"/>
      <point x="863" y="1708"/>
      <point x="737" y="1831"/>
      <point x="693" y="1831" type="curve" smooth="yes"/>
      <point x="639" y="1831"/>
      <point x="517" y="1709"/>
      <point x="517" y="1660" type="curve" smooth="yes"/>
    </contour>
    <contour>
      <point x="246" y="165" type="line"/>
      <point x="69" y="85" type="line"/>
      <point x="51" y="0" type="line"/>
      <point x="789" y="0" type="line"/>
      <point x="806" y="81" type="line"/>
      <point x="615" y="165" type="line"/>
      <point x="615" y="1219" type="line"/>
      <point x="797" y="1301" type="line"/>
      <point x="812" y="1384" type="line"/>
      <point x="76" y="1384" type="line"/>
      <point x="59" y="1303" type="line"/>
      <point x="246" y="1221" type="line"/>
    </contour>
  </outline>
</glyph>
<glyph name="Ntilde" format="1">
  <advance width="1601"/>
  <unicode hex="00D1"/>
  <outline>
    <contour>
      <point x="418" y="1533" type="line"/>
      <point x="497" y="1604"/>
      <point x="590" y="1653"/>
      <point x="637" y="1653" type="curve" smooth="yes"/>
      <point x="701" y="1653"/>
      <point x="772" y="1512"/>
      <point x="910" y="1512" type="curve" smooth="yes"/>
      <point x="1018" y="1512"/>
      <point x="1094" y="1598"/>
      <point x="1173" y="1686" type="curve"/>
      <point x="1150" y="1833" type="line"/>
      <point x="1064" y="1763"/>
      <point x="974" y="1715"/>
      <point x="928" y="1715" type="curve" smooth="yes"/>
      <point x="865" y="1715"/>
      <point x="791" y="1856"/>
      <point x="652" y="1856" type="curve" smooth="yes"/>
      <point x="546" y="1856"/>
      <point x="471" y="1772"/>
      <point x="390" y="1680" type="curve"/>
    </contour>
    <contour>
      <point x="245" y="164" type="line"/>
      <point x="73" y="83" type="line"/>
      <point x="58" y="0" type="line"/>
      <point x="639" y="0" type="line"/>
      <point x="657" y="81" type="line"/>
      <point x="448" y="163" type="line"/>
      <point x="448" y="452"/>
      <point x="448" y="740"/>
      <point x="409" y="1029" type="curve"/>
      <point x="1058" y="-25" type="line"/>
      <point x="1381" y="15" type="line"/>
      <point x="1381" y="1220" type="line"/>
      <point x="1549" y="1300" type="line"/>
      <point x="1565" y="1384" type="line"/>
      <point x="989" y="1384" type="line"/>
      <point x="973" y="1301" type="line"/>
      <point x="1175" y="1221" type="line"/>
      <point x="1175" y="937"/>
      <point x="1175" y="653"/>
      <point x="1213" y="369" type="curve"/>
      <point x="584" y="1384" type="line"/>
      <point x="75" y="1384" type="line"/>
      <point x="58" y="1302" type="line"/>
      <point x="245" y="1221" type="line"/>
    </contour>
  </outline>
</glyph>
<glyph name="Ocircumflex" format="1">
  <advance width="1542"/>
  <unicode hex="00D4"/>
  <outline>
    <contour>
      <point x="425" y="1554" type="line"/>
      <point x="524" y="1475" type="line"/>
      <point x="785" y="1598" type="line"/>
      <point x="1046" y="1475" type="line"/>
      <point x="1145" y="1554" type="line"/>
      <point x="849" y="1805" type="line"/>
      <point x="720" y="1805" type="line"/>
    </contour>
    <contour>
      <point x="69" y="211"/>
      <point x="366" y="-35"/>
      <point x="745" y="-35" type="curve" smooth="yes"/>
      <point x="1198" y="-35"/>
      <point x="1473" y="335"/>
      <point x="1473" y="762" type="curve" smooth="yes"/>
      <point x="1473" y="1173"/>
      <point x="1171" y="1419"/>
      <point x="816" y="1419" type="curve" smooth="yes"/>
      <point x="325" y="1419"/>
      <point x="69" y="1041"/>
      <point x="69" y="623" type="curve" smooth="yes"/>
    </contour>
    <contour>
      <point x="461" y="412"/>
      <point x="452" y="579"/>
      <point x="452" y="767" type="curve" smooth="yes"/>
      <point x="452" y="901"/>
      <point x="474" y="1145"/>
      <point x="550" y="1219" type="curve" smooth="yes"/>
      <point x="587" y="1256"/>
      <point x="651" y="1258"/>
      <point x="700" y="1258" type="curve" smooth="yes"/>
      <point x="852" y="1258"/>
      <point x="994" y="1151"/>
      <point x="1050" y="986" type="curve" smooth="yes"/>
      <point x="1084" y="884"/>
      <point x="1090" y="781"/>
      <point x="1090" y="618" type="curve" smooth="yes"/>
      <point x="1090" y="488"/>
      <point x="1065" y="260"/>
      <point x="1011" y="188" type="curve" smooth="yes"/>
      <point x="975" y="140"/>
      <point x="897" y="126"/>
      <point x="840" y="126" type="curve" smooth="yes"/>
      <point x="721" y="126"/>
      <point x="616" y="184"/>
      <point x="548" y="284" type="curve" smooth="yes"/>
    </contour>
  </outline>
</glyph>
<glyph name="Otilde" format="1">
  <advance width="1542"/>
  <unicode hex="00D5"/>
  <outline>
    <contour>
      <point x="419" y="1533" type="line"/>
      <point x="498" y="1604"/>
      <point x="591" y="1653"/>
      <point x="638" y="1653" type="curve" smooth="yes"/>
      <point x="702" y="1653"/>
      <point x="773" y="1512"/>
      <point x="911" y="1512" type="curve" smooth="yes"/>
      <point x="1019" y="1512"/>
      <point x="1095" y="1598"/>
      <point x="1174" y="1686" type="curve"/>
      <point x="1151" y="1833" type="line"/>
      <point x="1065" y="1763"/>
      <point x="975" y="1715"/>
      <point x="929" y="1715" type="curve" smooth="yes"/>
      <point x="866" y="1715"/>
      <point x="792" y="1856"/>
      <point x="653" y="1856" type="curve" smooth="yes"/>
      <point x="547" y="1856"/>
      <point x="472" y="1772"/>
      <point x="391" y="1680" type="curve"/>
    </contour>
    <contour>
      <point x="69" y="211"/>
      <point x="366" y="-35"/>
      <point x="745" y="-35" type="curve" smooth="yes"/>
      <point x="1198" y="-35"/>
      <point x="1473" y="335"/>
      <point x="1473" y="762" type="curve" smooth="yes"/>
      <point x="1473" y="1173"/>
      <point x="1171" y="1419"/>
      <point x="816" y="1419" type="curve" smooth="yes"/>
      <point x="325" y="1419"/>
      <point x="69" y="1041"/>
      <point x="69" y="623" type="curve" smooth="yes"/>
    </contour>
    <contour>
      <point x="461" y="412"/>
      <point x="452" y="579"/>
      <point x="452" y="767" type="curve" smooth="yes"/>
      <point x="452" y="901"/>
      <point x="474" y="1145"/>
      <point x="550" y="1219" type="curve" smooth="yes"/>
      <point x="587" y="1256"/>
      <point x="651" y="1258"/>
      <point x="700" y="1258" type="curve" smooth="yes"/>
      <point x="852" y="1258"/>
      <point x="994" y="1151"/>
      <point x="1050" y="986" type="curve" smooth="yes"/>
      <point x="1084" y="884"/>
      <point x="1090" y="781"/>
      <point x="1090" y="618" type="curve" smooth="yes"/>
      <point x="1090" y="488"/>
      <point x="1065" y="260"/>
      <point x="1011" y="188" type="curve" smooth="yes"/>
      <point x="975" y="140"/>
      <point x="897" y="126"/>
      <point x="840" y="126" type="curve" smooth="yes"/>
      <point x="721" y="126"/>
      <point x="616" y="184"/>
      <point x="548" y="284" type="curve" smooth="yes"/>
    </contour>
  </outline>
</glyph>
<glyph name="Odieresis" format="1">
  <advance width="1542"/>
  <unicode hex="00D6"/>
  <outline>
    <contour>
      <point x="351" y="1612"/>
      <point x="475" y="1485"/>
      <point x="521" y="1485" type="curve" smooth="yes"/>
      <point x="576" y="1485"/>
      <point x="697" y="1610"/>
      <point x="697" y="1658" type="curve" smooth="yes"/>
      <point x="697" y="1708"/>
      <point x="571" y="1831"/>
      <point x="527" y="1831" type="curve" smooth="yes"/>
      <point x="473" y="1831"/>
      <point x="351" y="1709"/>
      <point x="351" y="1660" type="curve" smooth="yes"/>
    </contour>
    <contour>
      <point x="870" y="1612"/>
      <point x="994" y="1485"/>
      <point x="1040" y="1485" type="curve" smooth="yes"/>
      <point x="1095" y="1485"/>
      <point x="1216" y="1610"/>
      <point x="1216" y="1658" type="curve" smooth="yes"/>
      <point x="1216" y="1708"/>
      <point x="1090" y="1831"/>
      <point x="1046" y="1831" type="curve" smooth="yes"/>
      <point x="992" y="1831"/>
      <point x="870" y="1709"/>
      <point x="870" y="1660" type="curve" smooth="yes"/>
    </contour>
    <contour>
      <point x="69" y="211"/>
      <point x="366" y="-35"/>
      <point x="745" y="-35" type="curve" smooth="yes"/>
      <point x="1198" y="-35"/>
      <point x="1473" y="335"/>
      <point x="1473" y="762" type="curve" smooth="yes"/>
      <point x="1473" y="1173"/>
      <point x="1171" y="1419"/>
      <point x="816" y="1419" type="curve" smooth="yes"/>
      <point x="325" y="1419"/>
      <point x="69" y="1041"/>
      <point x="69" y="623" type="curve" smooth="yes"/>
    </contour>
    <contour>
      <point x="461" y="412"/>
      <point x="452" y="579"/>
      <point x="452" y="767" type="curve" smooth="yes"/>
      <point x="452" y="901"/>
      <point x="474" y="1145"/>
      <point x="550" y="1219" type="curve" smooth="yes"/>
      <point x="587" y="1256"/>
      <point x="651" y="1258"/>
      <point x="700" y="1258" type="curve" smooth="yes"/>
      <point x="852" y="1258"/>
      <point x="994" y="1151"/>
      <point x="1050" y="986" type="curve" smooth="yes"/>
      <point x="1084" y="884"/>
      <point x="1090" y="781"/>
      <point x="1090" y="618" type="curve" smooth="yes"/>
      <point x="1090" y="488"/>
      <point x="1065" y="260"/>
      <point x="1011" y="188" type="curve" smooth="yes"/>
      <point x="975" y="140"/>
      <point x="897" y="126"/>
      <point x="840" y="126" type="curve" smooth="yes"/>
      <point x="721" y="126"/>
      <point x="616" y="184"/>
      <point x="548" y="284" type="curve" smooth="yes"/>
    </contour>
  </outline>
</glyph>
<glyph name="multiply" format="1">
  <advance width="1024"/>
  <unicode hex="00D7"/>
  <outline>
    <contour>
      <point x="668" y="571" type="line"/>
      <point x="896" y="796" type="line"/>
      <point x="737" y="946" type="line"/>
      <point x="513" y="724" type="line"/>
      <point x="288" y="946" type="line"/>
      <point x="129" y="796" type="line"/>
      <point x="357" y="571" type="line"/>
      <point x="129" y="346" type="line"/>
      <point x="288" y="196" type="line"/>
      <point x="513" y="418" type="line"/>
      <point x="737" y="196" type="line"/>
      <point x="896" y="346" type="line"/>
    </contour>
  </outline>
</glyph>
<glyph name="Ugrave" format="1">
  <advance width="1602"/>
  <unicode hex="00D9"/>
  <outline>
    <contour>
      <point x="581" y="1638" type="line"/>
      <point x="1102" y="1484" type="line"/>
      <point x="1126" y="1598" type="line"/>
      <point x="790" y="1811" type="line"/>
      <point x="617" y="1811" type="line"/>
    </contour>
    <contour>
      <point x="571" y="1210" type="line"/>
      <point x="763" y="1283" type="line"/>
      <point x="785" y="1384" type="line"/>
      <point x="58" y="1384" type="line"/>
      <point x="40" y="1305" type="line"/>
      <point x="211" y="1221" type="line"/>
      <point x="211" y="469" type="line" smooth="yes"/>
      <point x="211" y="134"/>
      <point x="393" y="-35"/>
      <point x="773" y="-35" type="curve" smooth="yes"/>
      <point x="1175" y="-35"/>
      <point x="1413" y="141"/>
      <point x="1413" y="529" type="curve" smooth="yes"/>
      <point x="1413" y="1217" type="line"/>
      <point x="1566" y="1300" type="line"/>
      <point x="1581" y="1384" type="line"/>
      <point x="1013" y="1384" type="line"/>
      <point x="996" y="1303" type="line"/>
      <point x="1193" y="1221" type="line"/>
      <point x="1193" y="477" type="line" smooth="yes"/>
      <point x="1193" y="369"/>
      <point x="1173" y="280"/>
      <point x="1117" y="223" type="curve" smooth="yes"/>
      <point x="1071" y="176"/>
      <point x="996" y="159"/>
      <point x="920" y="159" type="curve" smooth="yes"/>
      <point x="683" y="159"/>
      <point x="571" y="318"/>
      <point x="571" y="536" type="curve" smooth="yes"/>
    </contour>
  </outline>
</glyph>
<glyph name="Uacute" format="1">
  <advance width="1602"/>
  <unicode hex="00DA"/>
  <outline>
    <contour>
      <point x="649" y="1596" type="line"/>
      <point x="676" y="1486" type="line"/>
      <point x="1196" y="1637" type="line"/>
      <point x="1160" y="1811" type="line"/>
      <point x="988" y="1811" type="line"/>
    </contour>
    <contour>
      <point x="571" y="1210" type="line"/>
      <point x="763" y="1283" type="line"/>
      <point x="785" y="1384" type="line"/>
      <point x="58" y="1384" type="line"/>
      <point x="40" y="1305" type="line"/>
      <point x="211" y="1221" type="line"/>
      <point x="211" y="469" type="line" smooth="yes"/>
      <point x="211" y="134"/>
      <point x="393" y="-35"/>
      <point x="773" y="-35" type="curve" smooth="yes"/>
      <point x="1175" y="-35"/>
      <point x="1413" y="141"/>
      <point x="1413" y="529" type="curve" smooth="yes"/>
      <point x="1413" y="1217" type="line"/>
      <point x="1566" y="1300" type="line"/>
      <point x="1581" y="1384" type="line"/>
      <point x="1013" y="1384" type="line"/>
      <point x="996" y="1303" type="line"/>
      <point x="1193" y="1221" type="line"/>
      <point x="1193" y="477" type="line" smooth="yes"/>
      <point x="1193" y="369"/>
      <point x="1173" y="280"/>
      <point x="1117" y="223" type="curve" smooth="yes"/>
      <point x="1071" y="176"/>
      <point x="996" y="159"/>
      <point x="920" y="159" type="curve" smooth="yes"/>
      <point x="683" y="159"/>
      <point x="571" y="318"/>
      <point x="571" y="536" type="curve" smooth="yes"/>
    </contour>
  </outline>
</glyph>
<glyph name="Udieresis" format="1">
  <advance width="1602"/>
  <unicode hex="00DC"/>
  <outline>
    <contour>
      <point x="422" y="1612"/>
      <point x="546" y="1485"/>
      <point x="592" y="1485" type="curve" smooth="yes"/>
      <point x="647" y="1485"/>
      <point x="768" y="1610"/>
      <point x="768" y="1658" type="curve" smooth="yes"/>
      <point x="768" y="1708"/>
      <point x="642" y="1831"/>
      <point x="598" y="1831" type="curve" smooth="yes"/>
      <point x="544" y="1831"/>
      <point x="422" y="1709"/>
      <point x="422" y="1660" type="curve" smooth="yes"/>
    </contour>
    <contour>
      <point x="941" y="1612"/>
      <point x="1065" y="1485"/>
      <point x="1111" y="1485" type="curve" smooth="yes"/>
      <point x="1166" y="1485"/>
      <point x="1287" y="1610"/>
      <point x="1287" y="1658" type="curve" smooth="yes"/>
      <point x="1287" y="1708"/>
      <point x="1161" y="1831"/>
      <point x="1117" y="1831" type="curve" smooth="yes"/>
      <point x="1063" y="1831"/>
      <point x="941" y="1709"/>
      <point x="941" y="1660" type="curve" smooth="yes"/>
    </contour>
    <contour>
      <point x="571" y="1210" type="line"/>
      <point x="763" y="1283" type="line"/>
      <point x="785" y="1384" type="line"/>
      <point x="58" y="1384" type="line"/>
      <point x="40" y="1305" type="line"/>
      <point x="211" y="1221" type="line"/>
      <point x="211" y="469" type="line" smooth="yes"/>
      <point x="211" y="134"/>
      <point x="393" y="-35"/>
      <point x="773" y="-35" type="curve" smooth="yes"/>
      <point x="1175" y="-35"/>
      <point x="1413" y="141"/>
      <point x="1413" y="529" type="curve" smooth="yes"/>
      <point x="1413" y="1217" type="line"/>
      <point x="1566" y="1300" type="line"/>
      <point x="1581" y="1384" type="line"/>
      <point x="1013" y="1384" type="line"/>
      <point x="996" y="1303" type="line"/>
      <point x="1193" y="1221" type="line"/>
      <point x="1193" y="477" type="line" smooth="yes"/>
      <point x="1193" y="369"/>
      <point x="1173" y="280"/>
      <point x="1117" y="223" type="curve" smooth="yes"/>
      <point x="1071" y="176"/>
      <point x="996" y="159"/>
      <point x="920" y="159" type="curve" smooth="yes"/>
      <point x="683" y="159"/>
      <point x="571" y="318"/>
      <point x="571" y="536" type="curve" smooth="yes"/>
    </contour>
  </outline>
</glyph>
<glyph name="Thorn" format="1">
  <advance width="1376"/>
  <unicode hex="00DE"/>
  <outline>
    <contour>
      <point x="1094" y="1133"/>
      <point x="939" y="1144"/>
      <point x="616" y="1144" type="curve"/>
      <point x="616" y="1219" type="line"/>
      <point x="798" y="1301" type="line"/>
      <point x="813" y="1384" type="line"/>
      <point x="77" y="1384" type="line"/>
      <point x="60" y="1303" type="line"/>
      <point x="247" y="1221" type="line"/>
      <point x="247" y="165" type="line"/>
      <point x="70" y="85" type="line"/>
      <point x="52" y="0" type="line"/>
      <point x="830" y="0" type="line"/>
      <point x="847" y="81" type="line"/>
      <point x="616" y="165" type="line"/>
      <point x="616" y="1063" type="line"/>
      <point x="808" y="1056"/>
      <point x="976" y="972"/>
      <point x="976" y="750" type="curve" smooth="yes"/>
      <point x="976" y="583"/>
      <point x="925" y="490"/>
      <point x="752" y="398" type="curve"/>
      <point x="740" y="332" type="line"/>
      <point x="886" y="332"/>
      <point x="1054" y="357"/>
      <point x="1175" y="432" type="curve" smooth="yes"/>
      <point x="1280" y="497"/>
      <point x="1337" y="606"/>
      <point x="1337" y="735" type="curve" smooth="yes"/>
      <point x="1337" y="867"/>
      <point x="1293" y="962"/>
      <point x="1218" y="1027" type="curve" smooth="yes"/>
    </contour>
  </outline>
</glyph>
<glyph name="germandbls" format="1">
  <advance width="1477"/>
  <unicode hex="00DF"/>
  <outline>
    <contour>
      <point x="196" y="150" type="line"/>
      <point x="65" y="73" type="line"/>
      <point x="50" y="0" type="line"/>
      <point x="564" y="0" type="line"/>
      <point x="540" y="125" type="line"/>
      <point x="540" y="1067" type="line" smooth="yes"/>
      <point x="540" y="1206"/>
      <point x="546" y="1272"/>
      <point x="594" y="1324" type="curve" smooth="yes"/>
      <point x="608" y="1340"/>
      <point x="654" y="1356"/>
      <point x="731" y="1356" type="curve" smooth="yes"/>
      <point x="880" y="1356"/>
      <point x="1020" y="1289"/>
      <point x="1020" y="1140" type="curve" smooth="yes"/>
      <point x="1020" y="1121"/>
      <point x="1019" y="1093"/>
      <point x="1004" y="1078" type="curve"/>
      <point x="935" y="1016"/>
      <point x="719" y="929"/>
      <point x="719" y="729" type="curve" smooth="yes"/>
      <point x="719" y="542"/>
      <point x="839" y="483"/>
      <point x="974" y="389" type="curve" smooth="yes"/>
      <point x="1111" y="300"/>
      <point x="1157" y="268"/>
      <point x="1157" y="214" type="curve" smooth="yes"/>
      <point x="1157" y="193"/>
      <point x="1153" y="182"/>
      <point x="1134" y="164" type="curve" smooth="yes"/>
      <point x="1110" y="142"/>
      <point x="1004" y="101"/>
      <point x="912" y="97" type="curve"/>
      <point x="853" y="322" type="line"/>
      <point x="730" y="339" type="line"/>
      <point x="675" y="62" type="line"/>
      <point x="795" y="-9"/>
      <point x="919" y="-26"/>
      <point x="1058" y="-26" type="curve" smooth="yes"/>
      <point x="1285" y="-26"/>
      <point x="1456" y="71"/>
      <point x="1456" y="274" type="curve" smooth="yes"/>
      <point x="1456" y="430"/>
      <point x="1357" y="502"/>
      <point x="1191" y="598" type="curve" smooth="yes"/>
      <point x="1056" y="678"/>
      <point x="1015" y="713"/>
      <point x="1015" y="772" type="curve" smooth="yes"/>
      <point x="1015" y="935"/>
      <point x="1309" y="957"/>
      <point x="1309" y="1169" type="curve" smooth="yes"/>
      <point x="1309" y="1362"/>
      <point x="1096" y="1473"/>
      <point x="798" y="1473" type="curve" smooth="yes"/>
      <point x="566" y="1473"/>
      <point x="390" y="1432"/>
      <point x="290" y="1301" type="curve" smooth="yes"/>
      <point x="235" y="1228"/>
      <point x="196" y="1100"/>
      <point x="196" y="976" type="curve" smooth="yes"/>
      <point x="196" y="950" type="line"/>
      <point x="63" y="950" type="line"/>
      <point x="45" y="862" type="line"/>
      <point x="196" y="782" type="line"/>
    </contour>
  </outline>
</glyph>
<glyph name="aring" format="1">
  <advance width="1145"/>
  <unicode hex="00E5"/>
  <outline>
    <contour>
      <point x="681" y="1037"/>
      <point x="785" y="1147"/>
      <point x="785" y="1282" type="curve" smooth="yes"/>
      <point x="785" y="1419"/>
      <point x="676" y="1509"/>
      <point x="547" y="1509" type="curve" smooth="yes"/>
      <point x="396" y="1509"/>
      <point x="297" y="1394"/>
      <point x="297" y="1262" type="curve" smooth="yes"/>
      <point x="297" y="1125"/>
      <point x="402" y="1037"/>
      <point x="538" y="1037" type="curve" smooth="yes"/>
    </contour>
    <contour>
      <point x="487" y="1178"/>
      <point x="451" y="1231"/>
      <point x="451" y="1283" type="curve" smooth="yes"/>
      <point x="451" y="1329"/>
      <point x="482" y="1371"/>
      <point x="530" y="1371" type="curve" smooth="yes"/>
      <point x="588" y="1371"/>
      <point x="628" y="1320"/>
      <point x="628" y="1264" type="curve" smooth="yes"/>
      <point x="628" y="1216"/>
      <point x="597" y="1178"/>
      <point x="548" y="1178" type="curve" smooth="yes"/>
    </contour>
    <contour>
      <point x="51" y="125"/>
      <point x="120" y="-25"/>
      <point x="352" y="-25" type="curve" smooth="yes"/>
      <point x="524" y="-25"/>
      <point x="593" y="41"/>
      <point x="665" y="132" type="curve"/>
      <point x="743" y="95"/>
      <point x="793" y="39"/>
      <point x="835" y="-25" type="curve"/>
      <point x="964" y="-25"/>
      <point x="1058" y="-5"/>
      <point x="1141" y="35" type="curve"/>
      <point x="1156" y="93" type="line"/>
      <point x="1072" y="116"/>
      <point x="1012" y="147"/>
      <point x="982" y="202" type="curve"/>
      <point x="982" y="674" type="line" smooth="yes"/>
      <point x="982" y="846"/>
      <point x="899" y="975"/>
      <point x="659" y="975" type="curve" smooth="yes"/>
      <point x="582" y="975"/>
      <point x="394" y="968"/>
      <point x="248" y="923" type="curve" smooth="yes"/>
      <point x="191" y="905"/>
      <point x="84" y="858"/>
      <point x="84" y="825" type="curve" smooth="yes"/>
      <point x="84" y="757"/>
      <point x="245" y="621"/>
      <point x="290" y="621" type="curve" smooth="yes"/>
      <point x="314" y="621"/>
      <point x="375" y="659"/>
      <point x="412" y="702" type="curve"/>
      <point x="439" y="868" type="line"/>
      <point x="451" y="872"/>
      <point x="467" y="875"/>
      <point x="483" y="875" type="curve" smooth="yes"/>
      <point x="517" y="875"/>
      <point x="553" y="867"/>
      <point x="574" y="851" type="curve" smooth="yes"/>
      <point x="632" y="805"/>
      <point x="638" y="671"/>
      <point x="638" y="585" type="curve" smooth="yes"/>
      <point x="638" y="531" type="line"/>
      <point x="576" y="542"/>
      <point x="491" y="547"/>
      <point x="427" y="547" type="curve" smooth="yes"/>
      <point x="345" y="547"/>
      <point x="269" y="538"/>
      <point x="204" y="509" type="curve" smooth="yes"/>
      <point x="96" y="461"/>
      <point x="51" y="365"/>
      <point x="51" y="241" type="curve" smooth="yes"/>
    </contour>
    <contour>
      <point x="405" y="184"/>
      <point x="386" y="261"/>
      <point x="386" y="317" type="curve" smooth="yes"/>
      <point x="386" y="335"/>
      <point x="388" y="363"/>
      <point x="398" y="380" type="curve" smooth="yes"/>
      <point x="407" y="396"/>
      <point x="491" y="432"/>
      <point x="638" y="463" type="curve"/>
      <point x="638" y="165" type="line"/>
      <point x="594" y="151"/>
      <point x="505" y="135"/>
      <point x="454" y="135" type="curve" smooth="yes"/>
      <point x="443" y="135"/>
      <point x="432" y="140"/>
      <point x="426" y="150" type="curve" smooth="yes"/>
    </contour>
  </outline>
</glyph>
<glyph name="ccedilla" format="1">
  <advance width="965"/>
  <unicode hex="00E7"/>
  <outline>
    <contour>
      <point x="923" y="180" type="line"/>
      <point x="895" y="175"/>
      <point x="725" y="152"/>
      <point x="645" y="152" type="curve" smooth="yes"/>
      <point x="567" y="152"/>
      <point x="512" y="190"/>
      <point x="459" y="267" type="curve" smooth="yes"/>
      <point x="407" y="342"/>
      <point x="385" y="419"/>
      <point x="385" y="530" type="curve" smooth="yes"/>
      <point x="385" y="605"/>
      <point x="401" y="714"/>
      <point x="451" y="794" type="curve" smooth="yes"/>
      <point x="479" y="840"/>
      <point x="517" y="876"/>
      <point x="568" y="892" type="curve"/>
      <point x="607" y="702" type="line"/>
      <point x="637" y="663"/>
      <point x="697" y="621"/>
      <point x="732" y="621" type="curve" smooth="yes"/>
      <point x="777" y="621"/>
      <point x="935" y="760"/>
      <point x="935" y="825" type="curve" smooth="yes"/>
      <point x="935" y="849"/>
      <point x="877" y="900"/>
      <point x="817" y="928" type="curve" smooth="yes"/>
      <point x="743" y="963"/>
      <point x="672" y="975"/>
      <point x="589" y="975" type="curve" smooth="yes"/>
      <point x="301" y="975"/>
      <point x="51" y="772"/>
      <point x="51" y="470" type="curve" smooth="yes"/>
      <point x="51" y="181"/>
      <point x="212" y="7"/>
      <point x="474" y="-21" type="curve"/>
      <point x="436" y="-69"/>
      <point x="392" y="-145"/>
      <point x="388" y="-187" type="curve"/>
      <point x="493" y="-204"/>
      <point x="587" y="-230"/>
      <point x="587" y="-282" type="curve" smooth="yes"/>
      <point x="587" y="-306"/>
      <point x="571" y="-354"/>
      <point x="364" y="-422" type="curve"/>
      <point x="396" y="-510" type="line"/>
      <point x="535" y="-510"/>
      <point x="793" y="-442"/>
      <point x="793" y="-272" type="curve" smooth="yes"/>
      <point x="793" y="-162"/>
      <point x="725" y="-102"/>
      <point x="580" y="-83" type="curve"/>
      <point x="600" y="-23" type="line"/>
      <point x="764" y="-9"/>
      <point x="886" y="74"/>
      <point x="939" y="150" type="curve"/>
    </contour>
  </outline>
</glyph>
<glyph name="igrave" format="1">
  <advance width="698"/>
  <unicode hex="00EC"/>
  <outline>
    <contour>
      <point x="80" y="1278" type="line"/>
      <point x="536" y="1042" type="line"/>
      <point x="563" y="1202" type="line"/>
      <point x="282" y="1472" type="line"/>
      <point x="117" y="1472" type="line"/>
    </contour>
    <contour>
      <point x="188" y="150" type="line"/>
      <point x="57" y="73" type="line"/>
      <point x="42" y="0" type="line"/>
      <point x="651" y="0" type="line"/>
      <point x="665" y="59" type="line"/>
      <point x="532" y="140" type="line"/>
      <point x="532" y="960" type="line"/>
      <point x="59" y="909" type="line"/>
      <point x="51" y="860" type="line"/>
      <point x="188" y="767" type="line"/>
    </contour>
  </outline>
</glyph>
<glyph name="icircumflex" format="1">
  <advance width="698"/>
  <unicode hex="00EE"/>
  <outline>
    <contour>
      <point x="101" y="1079" type="line"/>
      <point x="340" y="1215" type="line"/>
      <point x="580" y="1078" type="line"/>
      <point x="725" y="1131" type="line"/>
      <point x="437" y="1413" type="line"/>
      <point x="243" y="1413" type="line"/>
      <point x="-44" y="1131" type="line"/>
    </contour>
    <contour>
      <point x="188" y="150" type="line"/>
      <point x="57" y="73" type="line"/>
      <point x="42" y="0" type="line"/>
      <point x="651" y="0" type="line"/>
      <point x="665" y="59" type="line"/>
      <point x="532" y="140" type="line"/>
      <point x="532" y="960" type="line"/>
      <point x="59" y="909" type="line"/>
      <point x="51" y="860" type="line"/>
      <point x="188" y="767" type="line"/>
    </contour>
  </outline>
</glyph>
<glyph name="idieresis" format="1">
  <advance width="698"/>
  <unicode hex="00EF"/>
  <outline>
    <contour>
      <point x="-109" y="1220"/>
      <point x="39" y="1075"/>
      <point x="92" y="1075" type="curve" smooth="yes"/>
      <point x="152" y="1075"/>
      <point x="279" y="1219"/>
      <point x="279" y="1279" type="curve" smooth="yes"/>
      <point x="279" y="1334"/>
      <point x="151" y="1483"/>
      <point x="98" y="1483" type="curve" smooth="yes"/>
      <point x="35" y="1483"/>
      <point x="-109" y="1339"/>
      <point x="-109" y="1281" type="curve" smooth="yes"/>
    </contour>
    <contour>
      <point x="401" y="1226"/>
      <point x="525" y="1075"/>
      <point x="582" y="1075" type="curve" smooth="yes"/>
      <point x="648" y="1075"/>
      <point x="789" y="1220"/>
      <point x="789" y="1279" type="curve" smooth="yes"/>
      <point x="789" y="1338"/>
      <point x="641" y="1483"/>
      <point x="588" y="1483" type="curve" smooth="yes"/>
      <point x="529" y="1483"/>
      <point x="401" y="1341"/>
      <point x="401" y="1281" type="curve" smooth="yes"/>
    </contour>
    <contour>
      <point x="188" y="150" type="line"/>
      <point x="57" y="73" type="line"/>
      <point x="42" y="0" type="line"/>
      <point x="651" y="0" type="line"/>
      <point x="665" y="59" type="line"/>
      <point x="532" y="140" type="line"/>
      <point x="532" y="960" type="line"/>
      <point x="59" y="909" type="line"/>
      <point x="51" y="860" type="line"/>
      <point x="188" y="767" type="line"/>
    </contour>
  </outline>
</glyph>
<glyph name="ntilde" format="1">
  <advance width="1350"/>
  <unicode hex="00F1"/>
  <outline>
    <contour>
      <point x="363" y="1120" type="line"/>
      <point x="434" y="1176"/>
      <point x="534" y="1219"/>
      <point x="579" y="1219" type="curve" smooth="yes"/>
      <point x="637" y="1219"/>
      <point x="726" y="1087"/>
      <point x="852" y="1087" type="curve" smooth="yes"/>
      <point x="950" y="1087"/>
      <point x="1031" y="1173"/>
      <point x="1105" y="1250" type="curve"/>
      <point x="1075" y="1414" type="line"/>
      <point x="1008" y="1361"/>
      <point x="906" y="1316"/>
      <point x="861" y="1316" type="curve" smooth="yes"/>
      <point x="804" y="1316"/>
      <point x="715" y="1448"/>
      <point x="588" y="1448" type="curve" smooth="yes"/>
      <point x="492" y="1448"/>
      <point x="409" y="1363"/>
      <point x="335" y="1285" type="curve"/>
    </contour>
    <contour>
      <point x="51" y="860" type="line"/>
      <point x="188" y="767" type="line"/>
      <point x="188" y="150" type="line"/>
      <point x="57" y="72" type="line"/>
      <point x="43" y="0" type="line"/>
      <point x="644" y="0" type="line"/>
      <point x="657" y="59" type="line"/>
      <point x="533" y="140" type="line"/>
      <point x="532" y="698" type="line"/>
      <point x="532" y="728"/>
      <point x="524" y="748"/>
      <point x="524" y="748" type="curve"/>
      <point x="574" y="766"/>
      <point x="697" y="777"/>
      <point x="770" y="777" type="curve" smooth="yes"/>
      <point x="788" y="777"/>
      <point x="797" y="774"/>
      <point x="806" y="764" type="curve" smooth="yes"/>
      <point x="825" y="743"/>
      <point x="843" y="672"/>
      <point x="843" y="553" type="curve" smooth="yes"/>
      <point x="843" y="150" type="line"/>
      <point x="765" y="67" type="line"/>
      <point x="752" y="0" type="line"/>
      <point x="1323" y="0" type="line"/>
      <point x="1339" y="62" type="line"/>
      <point x="1187" y="140" type="line"/>
      <point x="1187" y="621" type="line" smooth="yes"/>
      <point x="1187" y="912"/>
      <point x="1026" y="975"/>
      <point x="879" y="975" type="curve" smooth="yes"/>
      <point x="758" y="975"/>
      <point x="649" y="925"/>
      <point x="501" y="807" type="curve"/>
      <point x="437" y="965" type="line"/>
      <point x="59" y="909" type="line"/>
    </contour>
  </outline>
</glyph>
<glyph name="ograve" format="1">
  <advance width="1141"/>
  <unicode hex="00F2"/>
  <outline>
    <contour>
      <point x="311" y="1278" type="line"/>
      <point x="767" y="1042" type="line"/>
      <point x="794" y="1202" type="line"/>
      <point x="513" y="1472" type="line"/>
      <point x="348" y="1472" type="line"/>
    </contour>
    <contour>
      <point x="51" y="122"/>
      <point x="286" y="-25"/>
      <point x="566" y="-25" type="curve" smooth="yes"/>
      <point x="878" y="-25"/>
      <point x="1090" y="220"/>
      <point x="1090" y="487" type="curve" smooth="yes"/>
      <point x="1090" y="828"/>
      <point x="855" y="975"/>
      <point x="575" y="975" type="curve" smooth="yes"/>
      <point x="263" y="975"/>
      <point x="51" y="730"/>
      <point x="51" y="462" type="curve" smooth="yes"/>
    </contour>
    <contour>
      <point x="490" y="122"/>
      <point x="390" y="296"/>
      <point x="390" y="570" type="curve" smooth="yes"/>
      <point x="390" y="664"/>
      <point x="402" y="769"/>
      <point x="423" y="804" type="curve" smooth="yes"/>
      <point x="431" y="818"/>
      <point x="459" y="828"/>
      <point x="497" y="828" type="curve" smooth="yes"/>
      <point x="651" y="828"/>
      <point x="751" y="654"/>
      <point x="751" y="380" type="curve" smooth="yes"/>
      <point x="751" y="286"/>
      <point x="738" y="181"/>
      <point x="718" y="146" type="curve" smooth="yes"/>
      <point x="710" y="132"/>
      <point x="682" y="122"/>
      <point x="643" y="122" type="curve" smooth="yes"/>
    </contour>
  </outline>
</glyph>
<glyph name="otilde" format="1">
  <advance width="1141"/>
  <unicode hex="00F5"/>
  <outline>
    <contour>
      <point x="214" y="1120" type="line"/>
      <point x="285" y="1176"/>
      <point x="385" y="1219"/>
      <point x="430" y="1219" type="curve" smooth="yes"/>
      <point x="488" y="1219"/>
      <point x="577" y="1087"/>
      <point x="703" y="1087" type="curve" smooth="yes"/>
      <point x="801" y="1087"/>
      <point x="882" y="1173"/>
      <point x="956" y="1250" type="curve"/>
      <point x="926" y="1414" type="line"/>
      <point x="859" y="1361"/>
      <point x="757" y="1316"/>
      <point x="712" y="1316" type="curve" smooth="yes"/>
      <point x="655" y="1316"/>
      <point x="566" y="1448"/>
      <point x="439" y="1448" type="curve" smooth="yes"/>
      <point x="343" y="1448"/>
      <point x="260" y="1363"/>
      <point x="186" y="1285" type="curve"/>
    </contour>
    <contour>
      <point x="51" y="122"/>
      <point x="286" y="-25"/>
      <point x="566" y="-25" type="curve" smooth="yes"/>
      <point x="878" y="-25"/>
      <point x="1090" y="220"/>
      <point x="1090" y="487" type="curve" smooth="yes"/>
      <point x="1090" y="828"/>
      <point x="855" y="975"/>
      <point x="575" y="975" type="curve" smooth="yes"/>
      <point x="263" y="975"/>
      <point x="51" y="730"/>
      <point x="51" y="462" type="curve" smooth="yes"/>
    </contour>
    <contour>
      <point x="490" y="122"/>
      <point x="390" y="296"/>
      <point x="390" y="570" type="curve" smooth="yes"/>
      <point x="390" y="664"/>
      <point x="402" y="769"/>
      <point x="423" y="804" type="curve" smooth="yes"/>
      <point x="431" y="818"/>
      <point x="459" y="828"/>
      <point x="497" y="828" type="curve" smooth="yes"/>
      <point x="651" y="828"/>
      <point x="751" y="654"/>
      <point x="751" y="380" type="curve" smooth="yes"/>
      <point x="751" y="286"/>
      <point x="738" y="181"/>
      <point x="718" y="146" type="curve" smooth="yes"/>
      <point x="710" y="132"/>
      <point x="682" y="122"/>
      <point x="643" y="122" type="curve" smooth="yes"/>
    </contour>
  </outline>
</glyph>
<glyph name="odieresis" format="1">
  <advance width="1141"/>
  <unicode hex="00F6"/>
  <outline>
    <contour>
      <point x="122" y="1220"/>
      <point x="270" y="1075"/>
      <point x="323" y="1075" type="curve" smooth="yes"/>
      <point x="383" y="1075"/>
      <point x="510" y="1219"/>
      <point x="510" y="1279" type="curve" smooth="yes"/>
      <point x="510" y="1334"/>
      <point x="382" y="1483"/>
      <point x="329" y="1483" type="curve" smooth="yes"/>
      <point x="266" y="1483"/>
      <point x="122" y="1339"/>
      <point x="122" y="1281" type="curve" smooth="yes"/>
    </contour>
    <contour>
      <point x="632" y="1226"/>
      <point x="756" y="1075"/>
      <point x="813" y="1075" type="curve" smooth="yes"/>
      <point x="879" y="1075"/>
      <point x="1020" y="1220"/>
      <point x="1020" y="1279" type="curve" smooth="yes"/>
      <point x="1020" y="1338"/>
      <point x="872" y="1483"/>
      <point x="819" y="1483" type="curve" smooth="yes"/>
      <point x="760" y="1483"/>
      <point x="632" y="1341"/>
      <point x="632" y="1281" type="curve" smooth="yes"/>
    </contour>
    <contour>
      <point x="51" y="122"/>
      <point x="286" y="-25"/>
      <point x="566" y="-25" type="curve" smooth="yes"/>
      <point x="878" y="-25"/>
      <point x="1090" y="220"/>
      <point x="1090" y="487" type="curve" smooth="yes"/>
      <point x="1090" y="828"/>
      <point x="855" y="975"/>
      <point x="575" y="975" type="curve" smooth="yes"/>
      <point x="263" y="975"/>
      <point x="51" y="730"/>
      <point x="51" y="462" type="curve" smooth="yes"/>
    </contour>
    <contour>
      <point x="490" y="122"/>
      <point x="390" y="296"/>
      <point x="390" y="570" type="curve" smooth="yes"/>
      <point x="390" y="664"/>
      <point x="402" y="769"/>
      <point x="423" y="804" type="curve" smooth="yes"/>
      <point x="431" y="818"/>
      <point x="459" y="828"/>
      <point x="497" y="828" type="curve" smooth="yes"/>
      <point x="651" y="828"/>
      <point x="751" y="654"/>
      <point x="751" y="380" type="curve" smooth="yes"/>
      <point x="751" y="286"/>
      <point x="738" y="181"/>
      <point x="718" y="146" type="curve" smooth="yes"/>
      <point x="710" y="132"/>
      <point x="682" y="122"/>
      <point x="643" y="122" type="curve" smooth="yes"/>
    </contour>
  </outline>
</glyph>
<glyph name="divide" format="1">
  <advance width="1024"/>
  <unicode hex="00F7"/>
  <outline>
    <contour>
      <point x="578" y="759"/>
      <point x="706" y="880"/>
      <point x="706" y="933" type="curve" smooth="yes"/>
      <point x="706" y="977"/>
      <point x="590" y="1107"/>
      <point x="535" y="1107" type="curve" smooth="yes"/>
      <point x="484" y="1107"/>
      <point x="358" y="984"/>
      <point x="358" y="934" type="curve" smooth="yes"/>
      <point x="358" y="888"/>
      <point x="477" y="759"/>
      <point x="529" y="759" type="curve" smooth="yes"/>
    </contour>
    <contour>
      <point x="136" y="670" type="line"/>
      <point x="116" y="441" type="line"/>
      <point x="284" y="441"/>
      <point x="740" y="459"/>
      <point x="887" y="467" type="curve"/>
      <point x="907" y="670" type="line"/>
    </contour>
    <contour>
      <point x="577" y="24"/>
      <point x="705" y="145"/>
      <point x="705" y="198" type="curve" smooth="yes"/>
      <point x="705" y="242"/>
      <point x="589" y="372"/>
      <point x="534" y="372" type="curve" smooth="yes"/>
      <point x="483" y="372"/>
      <point x="357" y="249"/>
      <point x="357" y="199" type="curve" smooth="yes"/>
      <point x="357" y="153"/>
      <point x="476" y="24"/>
      <point x="528" y="24" type="curve" smooth="yes"/>
    </contour>
  </outline>
</glyph>
<glyph name="udieresis" format="1">
  <advance width="1317"/>
  <unicode hex="00FC"/>
  <outline>
    <contour>
      <point x="167" y="1220"/>
      <point x="315" y="1075"/>
      <point x="368" y="1075" type="curve" smooth="yes"/>
      <point x="428" y="1075"/>
      <point x="555" y="1219"/>
      <point x="555" y="1279" type="curve" smooth="yes"/>
      <point x="555" y="1334"/>
      <point x="427" y="1483"/>
      <point x="374" y="1483" type="curve" smooth="yes"/>
      <point x="311" y="1483"/>
      <point x="167" y="1339"/>
      <point x="167" y="1281" type="curve" smooth="yes"/>
    </contour>
    <contour>
      <point x="677" y="1226"/>
      <point x="801" y="1075"/>
      <point x="858" y="1075" type="curve" smooth="yes"/>
      <point x="924" y="1075"/>
      <point x="1065" y="1220"/>
      <point x="1065" y="1279" type="curve" smooth="yes"/>
      <point x="1065" y="1338"/>
      <point x="917" y="1483"/>
      <point x="864" y="1483" type="curve" smooth="yes"/>
      <point x="805" y="1483"/>
      <point x="677" y="1341"/>
      <point x="677" y="1281" type="curve" smooth="yes"/>
    </contour>
    <contour>
      <point x="20" y="864" type="line"/>
      <point x="166" y="766" type="line"/>
      <point x="166" y="332" type="line" smooth="yes"/>
      <point x="166" y="58"/>
      <point x="314" y="-25"/>
      <point x="521" y="-25" type="curve" smooth="yes"/>
      <point x="653" y="-25"/>
      <point x="754" y="52"/>
      <point x="832" y="136" type="curve"/>
      <point x="910" y="104"/>
      <point x="986" y="8"/>
      <point x="1003" y="-25" type="curve"/>
      <point x="1139" y="-25"/>
      <point x="1248" y="16"/>
      <point x="1288" y="33" type="curve"/>
      <point x="1304" y="94" type="line"/>
      <point x="1268" y="103"/>
      <point x="1163" y="131"/>
      <point x="1130" y="199" type="curve"/>
      <point x="1130" y="950" type="line"/>
      <point x="680" y="950" type="line"/>
      <point x="665" y="861" type="line"/>
      <point x="786" y="766" type="line"/>
      <point x="786" y="172" type="line"/>
      <point x="736" y="159"/>
      <point x="649" y="153"/>
      <point x="589" y="153" type="curve" smooth="yes"/>
      <point x="567" y="153"/>
      <point x="555" y="158"/>
      <point x="541" y="174" type="curve" smooth="yes"/>
      <point x="516" y="203"/>
      <point x="510" y="235"/>
      <point x="510" y="379" type="curve" smooth="yes"/>
      <point x="510" y="950" type="line"/>
      <point x="39" y="950" type="line"/>
    </contour>
  </outline>
</glyph>
<glyph name="yacute" format="1">
  <advance width="1194"/>
  <unicode hex="00FD"/>
  <outline>
    <contour>
      <point x="469" y="1042" type="line"/>
      <point x="922" y="1277" type="line"/>
      <point x="883" y="1472" type="line"/>
      <point x="720" y="1472" type="line"/>
      <point x="440" y="1203" type="line"/>
    </contour>
    <contour>
      <point x="1233" y="950" type="line"/>
      <point x="780" y="950" type="line"/>
      <point x="769" y="890" type="line"/>
      <point x="870" y="824" type="line"/>
      <point x="675" y="210" type="line"/>
      <point x="473" y="826" type="line"/>
      <point x="558" y="877" type="line"/>
      <point x="575" y="950" type="line"/>
      <point x="-16" y="950" type="line"/>
      <point x="-27" y="885" type="line"/>
      <point x="113" y="823" type="line"/>
      <point x="424" y="-32" type="line"/>
      <point x="607" y="-8" type="line"/>
      <point x="545" y="-161"/>
      <point x="421" y="-391"/>
      <point x="377" y="-412" type="curve"/>
      <point x="335" y="-215" type="line"/>
      <point x="308" y="-181"/>
      <point x="245" y="-134"/>
      <point x="210" y="-134" type="curve" smooth="yes"/>
      <point x="151" y="-134"/>
      <point x="7" y="-286"/>
      <point x="7" y="-334" type="curve" smooth="yes"/>
      <point x="7" y="-417"/>
      <point x="191" y="-500"/>
      <point x="335" y="-500" type="curve" smooth="yes"/>
      <point x="381" y="-500"/>
      <point x="416" y="-494"/>
      <point x="444" y="-484" type="curve" smooth="yes"/>
      <point x="581" y="-433"/>
      <point x="681" y="-220"/>
      <point x="832" y="162" type="curve" smooth="yes"/>
      <point x="1092" y="819" type="line"/>
      <point x="1218" y="875" type="line"/>
    </contour>
  </outline>
</glyph>
<glyph name="thorn" format="1">
  <advance width="1196"/>
  <unicode hex="00FE"/>
  <outline>
    <contour>
      <point x="724" y="-397" type="line"/>
      <point x="477" y="-350" type="line"/>
      <point x="477" y="81" type="line"/>
      <point x="531" y="7"/>
      <point x="631" y="-25"/>
      <point x="727" y="-25" type="curve" smooth="yes"/>
      <point x="810" y="-25"/>
      <point x="884" y="2"/>
      <point x="942" y="46" type="curve" smooth="yes"/>
      <point x="1065" y="139"/>
      <point x="1132" y="304"/>
      <point x="1132" y="487" type="curve" smooth="yes"/>
      <point x="1132" y="781"/>
      <point x="1007" y="976"/>
      <point x="796" y="976" type="curve" smooth="yes"/>
      <point x="675" y="976"/>
      <point x="564" y="895"/>
      <point x="477" y="828" type="curve"/>
      <point x="477" y="1472" type="line"/>
      <point x="5" y="1413" type="line"/>
      <point x="-4" y="1365" type="line"/>
      <point x="134" y="1270" type="line"/>
      <point x="134" y="-340" type="line"/>
      <point x="-11" y="-387" type="line"/>
      <point x="-26" y="-475" type="line"/>
      <point x="709" y="-475" type="line"/>
    </contour>
    <contour>
      <point x="477" y="755" type="line"/>
      <point x="522" y="776"/>
      <point x="596" y="784"/>
      <point x="639" y="784" type="curve" smooth="yes"/>
      <point x="663" y="784"/>
      <point x="694" y="776"/>
      <point x="716" y="752" type="curve" smooth="yes"/>
      <point x="759" y="704"/>
      <point x="793" y="567"/>
      <point x="793" y="426" type="curve" smooth="yes"/>
      <point x="793" y="296"/>
      <point x="768" y="201"/>
      <point x="749" y="173" type="curve" smooth="yes"/>
      <point x="740" y="160"/>
      <point x="724" y="148"/>
      <point x="704" y="148" type="curve" smooth="yes"/>
      <point x="634" y="148"/>
      <point x="534" y="152"/>
      <point x="477" y="158" type="curve"/>
    </contour>
  </outline>
</glyph>
<glyph name="ydieresis" format="1">
  <advance width="1194"/>
  <unicode hex="00FF"/>
  <outline>
    <contour>
      <point x="441" y="1075"/>
      <point x="568" y="1219"/>
      <point x="568" y="1279" type="curve" smooth="yes"/>
      <point x="568" y="1334"/>
      <point x="440" y="1483"/>
      <point x="387" y="1483" type="curve" smooth="yes"/>
      <point x="324" y="1483"/>
      <point x="180" y="1339"/>
      <point x="180" y="1281" type="curve" smooth="yes"/>
      <point x="180" y="1220"/>
      <point x="328" y="1075"/>
      <point x="381" y="1075" type="curve" smooth="yes"/>
    </contour>
    <contour>
      <point x="937" y="1075"/>
      <point x="1078" y="1220"/>
      <point x="1078" y="1279" type="curve" smooth="yes"/>
      <point x="1078" y="1338"/>
      <point x="930" y="1483"/>
      <point x="877" y="1483" type="curve" smooth="yes"/>
      <point x="818" y="1483"/>
      <point x="690" y="1341"/>
      <point x="690" y="1281" type="curve" smooth="yes"/>
      <point x="690" y="1226"/>
      <point x="814" y="1075"/>
      <point x="871" y="1075" type="curve" smooth="yes"/>
    </contour>
    <contour>
      <point x="1233" y="950" type="line"/>
      <point x="780" y="950" type="line"/>
      <point x="769" y="890" type="line"/>
      <point x="870" y="824" type="line"/>
      <point x="675" y="210" type="line"/>
      <point x="473" y="826" type="line"/>
      <point x="558" y="877" type="line"/>
      <point x="575" y="950" type="line"/>
      <point x="-16" y="950" type="line"/>
      <point x="-27" y="885" type="line"/>
      <point x="113" y="823" type="line"/>
      <point x="424" y="-32" type="line"/>
      <point x="607" y="-8" type="line"/>
      <point x="545" y="-161"/>
      <point x="421" y="-391"/>
      <point x="377" y="-412" type="curve"/>
      <point x="335" y="-215" type="line"/>
      <point x="308" y="-181"/>
      <point x="245" y="-134"/>
      <point x="210" y="-134" type="curve" smooth="yes"/>
      <point x="151" y="-134"/>
      <point x="7" y="-286"/>
      <point x="7" y="-334" type="curve" smooth="yes"/>
      <point x="7" y="-417"/>
      <point x="191" y="-500"/>
      <point x="335" y="-500" type="curve" smooth="yes"/>
      <point x="381" y="-500"/>
      <point x="416" y="-494"/>
      <point x="444" y="-484" type="curve" smooth="yes"/>
      <point x="581" y="-433"/>
      <point x="681" y="-220"/>
      <point x="832" y="162" type="curve" smooth="yes"/>
      <point x="1092" y="819" type="line"/>
      <point x="1218" y="875" type="line"/>
    </contour>
  </outline>
</glyph>
<glyph name="Amacron" format="1">
  <advance width="1489"/>
  <unicode hex="0100"/>
  <outline>
    <contour>
      <point x="1061" y="1717" type="line"/>
      <point x="424" y="1717" type="line"/>
      <point x="389" y="1528" type="line"/>
      <point x="533" y="1528"/>
      <point x="848" y="1531"/>
      <point x="1029" y="1540" type="curve"/>
    </contour>
    <contour>
      <point x="1532" y="95" type="line"/>
      <point x="1370" y="159" type="line"/>
      <point x="881" y="1419" type="line"/>
      <point x="579" y="1384" type="line"/>
      <point x="136" y="164" type="line"/>
      <point x="-28" y="93" type="line"/>
      <point x="-45" y="0" type="line"/>
      <point x="494" y="0" type="line"/>
      <point x="510" y="80" type="line"/>
      <point x="337" y="159" type="line"/>
      <point x="414" y="383" type="line"/>
      <point x="576" y="382"/>
      <point x="737" y="386"/>
      <point x="899" y="395" type="curve"/>
      <point x="973" y="159" type="line"/>
      <point x="816" y="83" type="line"/>
      <point x="801" y="0" type="line"/>
      <point x="1502" y="0" type="line"/>
    </contour>
    <contour>
      <point x="846" y="568" type="line"/>
      <point x="477" y="568" type="line"/>
      <point x="561" y="817"/>
      <point x="654" y="1098"/>
      <point x="663" y="1155" type="curve"/>
    </contour>
  </outline>
</glyph>
<glyph name="Abreve" format="1">
  <advance width="1489"/>
  <unicode hex="0102"/>
  <outline>
    <contour>
      <point x="908" y="1470"/>
      <point x="1055" y="1574"/>
      <point x="1055" y="1738" type="curve" smooth="yes"/>
      <point x="1055" y="1777"/>
      <point x="1044" y="1802"/>
      <point x="1031" y="1810" type="curve"/>
      <point x="894" y="1810" type="line"/>
      <point x="863" y="1686"/>
      <point x="818" y="1640"/>
      <point x="731" y="1640" type="curve" smooth="yes"/>
      <point x="639" y="1640"/>
      <point x="590" y="1683"/>
      <point x="558" y="1810" type="curve"/>
      <point x="421" y="1810" type="line"/>
      <point x="403" y="1802"/>
      <point x="395" y="1768"/>
      <point x="395" y="1729" type="curve" smooth="yes"/>
      <point x="395" y="1572"/>
      <point x="543" y="1470"/>
      <point x="731" y="1470" type="curve" smooth="yes"/>
    </contour>
    <contour>
      <point x="1532" y="95" type="line"/>
      <point x="1370" y="159" type="line"/>
      <point x="881" y="1419" type="line"/>
      <point x="579" y="1384" type="line"/>
      <point x="136" y="164" type="line"/>
      <point x="-28" y="93" type="line"/>
      <point x="-45" y="0" type="line"/>
      <point x="494" y="0" type="line"/>
      <point x="510" y="80" type="line"/>
      <point x="337" y="159" type="line"/>
      <point x="414" y="383" type="line"/>
      <point x="576" y="382"/>
      <point x="737" y="386"/>
      <point x="899" y="395" type="curve"/>
      <point x="973" y="159" type="line"/>
      <point x="816" y="83" type="line"/>
      <point x="801" y="0" type="line"/>
      <point x="1502" y="0" type="line"/>
    </contour>
    <contour>
      <point x="846" y="568" type="line"/>
      <point x="477" y="568" type="line"/>
      <point x="561" y="817"/>
      <point x="654" y="1098"/>
      <point x="663" y="1155" type="curve"/>
    </contour>
  </outline>
</glyph>
<glyph name="abreve" format="1">
  <advance width="1145"/>
  <unicode hex="0103"/>
  <outline>
    <contour>
      <point x="738" y="1051"/>
      <point x="876" y="1174"/>
      <point x="876" y="1308" type="curve" smooth="yes"/>
      <point x="876" y="1327"/>
      <point x="874" y="1348"/>
      <point x="864" y="1381" type="curve"/>
      <point x="701" y="1381" type="line"/>
      <point x="676" y="1260"/>
      <point x="621" y="1219"/>
      <point x="545" y="1219" type="curve" smooth="yes"/>
      <point x="466" y="1219"/>
      <point x="407" y="1261"/>
      <point x="381" y="1380" type="curve"/>
      <point x="218" y="1381" type="line"/>
      <point x="208" y="1349"/>
      <point x="206" y="1326"/>
      <point x="206" y="1307" type="curve" smooth="yes"/>
      <point x="206" y="1174"/>
      <point x="345" y="1051"/>
      <point x="544" y="1051" type="curve" smooth="yes"/>
    </contour>
    <contour>
      <point x="51" y="125"/>
      <point x="120" y="-25"/>
      <point x="352" y="-25" type="curve" smooth="yes"/>
      <point x="524" y="-25"/>
      <point x="593" y="41"/>
      <point x="665" y="132" type="curve"/>
      <point x="743" y="95"/>
      <point x="793" y="39"/>
      <point x="835" y="-25" type="curve"/>
      <point x="964" y="-25"/>
      <point x="1058" y="-5"/>
      <point x="1141" y="35" type="curve"/>
      <point x="1156" y="93" type="line"/>
      <point x="1072" y="116"/>
      <point x="1012" y="147"/>
      <point x="982" y="202" type="curve"/>
      <point x="982" y="674" type="line" smooth="yes"/>
      <point x="982" y="846"/>
      <point x="899" y="975"/>
      <point x="659" y="975" type="curve" smooth="yes"/>
      <point x="582" y="975"/>
      <point x="394" y="968"/>
      <point x="248" y="923" type="curve" smooth="yes"/>
      <point x="191" y="905"/>
      <point x="84" y="858"/>
      <point x="84" y="825" type="curve" smooth="yes"/>
      <point x="84" y="757"/>
      <point x="245" y="621"/>
      <point x="290" y="621" type="curve" smooth="yes"/>
      <point x="314" y="621"/>
      <point x="375" y="659"/>
      <point x="412" y="702" type="curve"/>
      <point x="439" y="868" type="line"/>
      <point x="451" y="872"/>
      <point x="467" y="875"/>
      <point x="483" y="875" type="curve" smooth="yes"/>
      <point x="517" y="875"/>
      <point x="553" y="867"/>
      <point x="574" y="851" type="curve" smooth="yes"/>
      <point x="632" y="805"/>
      <point x="638" y="671"/>
      <point x="638" y="585" type="curve" smooth="yes"/>
      <point x="638" y="531" type="line"/>
      <point x="576" y="542"/>
      <point x="491" y="547"/>
      <point x="427" y="547" type="curve" smooth="yes"/>
      <point x="345" y="547"/>
      <point x="269" y="538"/>
      <point x="204" y="509" type="curve" smooth="yes"/>
      <point x="96" y="461"/>
      <point x="51" y="365"/>
      <point x="51" y="241" type="curve" smooth="yes"/>
    </contour>
    <contour>
      <point x="405" y="184"/>
      <point x="386" y="261"/>
      <point x="386" y="317" type="curve" smooth="yes"/>
      <point x="386" y="335"/>
      <point x="388" y="363"/>
      <point x="398" y="380" type="curve" smooth="yes"/>
      <point x="407" y="396"/>
      <point x="491" y="432"/>
      <point x="638" y="463" type="curve"/>
      <point x="638" y="165" type="line"/>
      <point x="594" y="151"/>
      <point x="505" y="135"/>
      <point x="454" y="135" type="curve" smooth="yes"/>
      <point x="443" y="135"/>
      <point x="432" y="140"/>
      <point x="426" y="150" type="curve" smooth="yes"/>
    </contour>
  </outline>
</glyph>
<glyph name="Aogonek" format="1">
  <advance width="1489"/>
  <unicode hex="0104"/>
  <outline>
    <contour>
      <point x="1117" y="-20"/>
      <point x="1161" y="0"/>
      <point x="1215" y="0" type="curve" smooth="yes"/>
      <point x="1503" y="0" type="line"/>
      <point x="1534" y="96" type="line"/>
      <point x="1370" y="159" type="line"/>
      <point x="881" y="1419" type="line"/>
      <point x="579" y="1384" type="line"/>
      <point x="136" y="164" type="line"/>
      <point x="-27" y="93" type="line"/>
      <point x="-46" y="0" type="line"/>
      <point x="493" y="0" type="line"/>
      <point x="510" y="81" type="line"/>
      <point x="337" y="159" type="line"/>
      <point x="365" y="234"/>
      <point x="392" y="309"/>
      <point x="418" y="385" type="curve"/>
      <point x="590" y="381"/>
      <point x="755" y="382"/>
      <point x="899" y="396" type="curve"/>
      <point x="972" y="162" type="line" smooth="yes"/>
      <point x="978" y="143"/>
      <point x="982" y="125"/>
      <point x="982" y="118" type="curve" smooth="yes"/>
      <point x="982" y="87"/>
      <point x="966" y="60"/>
      <point x="942" y="35" type="curve" smooth="yes"/>
      <point x="858" y="-50"/>
      <point x="671" y="-113"/>
      <point x="671" y="-277" type="curve" smooth="yes"/>
      <point x="671" y="-440"/>
      <point x="804" y="-504"/>
      <point x="934" y="-504" type="curve" smooth="yes"/>
      <point x="1052" y="-504"/>
      <point x="1160" y="-451"/>
      <point x="1244" y="-352" type="curve"/>
      <point x="1213" y="-306" type="line"/>
      <point x="1152" y="-337"/>
      <point x="1079" y="-355"/>
      <point x="1039" y="-355" type="curve" smooth="yes"/>
      <point x="1027" y="-355"/>
      <point x="1016" y="-352"/>
      <point x="1005" y="-347" type="curve" smooth="yes"/>
      <point x="964" y="-327"/>
      <point x="940" y="-273"/>
      <point x="940" y="-226" type="curve" smooth="yes"/>
      <point x="940" y="-183"/>
      <point x="997" y="-101"/>
      <point x="1075" y="-48" type="curve" smooth="yes"/>
    </contour>
    <contour>
      <point x="846" y="568" type="line"/>
      <point x="482" y="568" type="line"/>
      <point x="548" y="764"/>
      <point x="610" y="959"/>
      <point x="663" y="1155" type="curve"/>
    </contour>
  </outline>
</glyph>
<glyph name="dcaron" format="1">
  <advance width="1504"/>
  <unicode hex="010F"/>
  <outline>
    <contour>
      <point x="1079" y="1472" type="line"/>
      <point x="606" y="1412" type="line"/>
      <point x="597" y="1366" type="line"/>
      <point x="735" y="1271" type="line"/>
      <point x="735" y="865" type="line"/>
      <point x="657" y="930"/>
      <point x="582" y="975"/>
      <point x="491" y="975" type="curve" smooth="yes"/>
      <point x="203" y="975"/>
      <point x="59" y="712"/>
      <point x="59" y="441" type="curve" smooth="yes"/>
      <point x="59" y="106"/>
      <point x="252" y="-25"/>
      <point x="448" y="-25" type="curve" smooth="yes"/>
      <point x="595" y="-25"/>
      <point x="701" y="49"/>
      <point x="779" y="134" type="curve"/>
      <point x="851" y="95"/>
      <point x="898" y="50"/>
      <point x="953" y="-25" type="curve"/>
      <point x="1063" y="-25"/>
      <point x="1211" y="22"/>
      <point x="1238" y="33" type="curve"/>
      <point x="1253" y="94" type="line"/>
      <point x="1217" y="103"/>
      <point x="1112" y="131"/>
      <point x="1079" y="199" type="curve"/>
    </contour>
    <contour>
      <point x="1369" y="1460"/>
      <point x="1273" y="1445"/>
      <point x="1180" y="1427" type="curve"/>
      <point x="1158" y="1283" type="line"/>
      <point x="1277" y="1234" type="line"/>
      <point x="1238" y="1123"/>
      <point x="1191" y="1016"/>
      <point x="1137" y="908" type="curve"/>
      <point x="1235" y="881" type="line"/>
      <point x="1382" y="1010"/>
      <point x="1504" y="1205"/>
      <point x="1504" y="1343" type="curve" smooth="yes"/>
      <point x="1504" y="1381"/>
      <point x="1498" y="1417"/>
      <point x="1474" y="1461" type="curve"/>
    </contour>
    <contour>
      <point x="421" y="318"/>
      <point x="410" y="420"/>
      <point x="410" y="531" type="curve" smooth="yes"/>
      <point x="410" y="608"/>
      <point x="417" y="682"/>
      <point x="438" y="739" type="curve" smooth="yes"/>
      <point x="457" y="789"/>
      <point x="495" y="796"/>
      <point x="551" y="796" type="curve" smooth="yes"/>
      <point x="616" y="796"/>
      <point x="681" y="791"/>
      <point x="735" y="779" type="curve"/>
      <point x="735" y="178" type="line"/>
      <point x="710" y="164"/>
      <point x="635" y="152"/>
      <point x="594" y="152" type="curve" smooth="yes"/>
      <point x="554" y="152"/>
      <point x="507" y="183"/>
      <point x="481" y="224" type="curve" smooth="yes"/>
    </contour>
  </outline>
</glyph>
<glyph name="dcroat" format="1">
  <advance width="1243"/>
  <unicode hex="0111"/>
  <outline>
    <contour>
      <point x="1069" y="1064" type="line"/>
      <point x="1227" y="1062" type="line"/>
      <point x="1259" y="1219" type="line"/>
      <point x="1069" y="1214" type="line"/>
      <point x="1069" y="1472" type="line"/>
      <point x="596" y="1412" type="line"/>
      <point x="587" y="1366" type="line"/>
      <point x="725" y="1271" type="line"/>
      <point x="725" y="1215" type="line"/>
      <point x="527" y="1220" type="line"/>
      <point x="490" y="1062" type="line"/>
      <point x="725" y="1065" type="line"/>
      <point x="725" y="865" type="line"/>
      <point x="647" y="930"/>
      <point x="572" y="975"/>
      <point x="481" y="975" type="curve" smooth="yes"/>
      <point x="193" y="975"/>
      <point x="49" y="712"/>
      <point x="49" y="441" type="curve" smooth="yes"/>
      <point x="49" y="106"/>
      <point x="242" y="-25"/>
      <point x="438" y="-25" type="curve" smooth="yes"/>
      <point x="585" y="-25"/>
      <point x="691" y="49"/>
      <point x="769" y="134" type="curve"/>
      <point x="841" y="95"/>
      <point x="888" y="50"/>
      <point x="943" y="-25" type="curve"/>
      <point x="1053" y="-25"/>
      <point x="1201" y="22"/>
      <point x="1228" y="33" type="curve"/>
      <point x="1243" y="94" type="line"/>
      <point x="1207" y="103"/>
      <point x="1102" y="131"/>
      <point x="1069" y="199" type="curve"/>
    </contour>
    <contour>
      <point x="411" y="318"/>
      <point x="400" y="420"/>
      <point x="400" y="531" type="curve" smooth="yes"/>
      <point x="400" y="608"/>
      <point x="407" y="682"/>
      <point x="428" y="739" type="curve" smooth="yes"/>
      <point x="447" y="789"/>
      <point x="485" y="796"/>
      <point x="541" y="796" type="curve" smooth="yes"/>
      <point x="606" y="796"/>
      <point x="671" y="791"/>
      <point x="725" y="779" type="curve"/>
      <point x="725" y="178" type="line"/>
      <point x="700" y="164"/>
      <point x="625" y="152"/>
      <point x="584" y="152" type="curve" smooth="yes"/>
      <point x="544" y="152"/>
      <point x="497" y="183"/>
      <point x="471" y="224" type="curve" smooth="yes"/>
    </contour>
  </outline>
</glyph>
<glyph name="Edotaccent" format="1">
  <advance width="1384"/>
  <unicode hex="0116"/>
  <outline>
    <contour>
      <point x="734" y="1485"/>
      <point x="855" y="1610"/>
      <point x="855" y="1658" type="curve" smooth="yes"/>
      <point x="855" y="1708"/>
      <point x="729" y="1831"/>
      <point x="685" y="1831" type="curve" smooth="yes"/>
      <point x="631" y="1831"/>
      <point x="509" y="1709"/>
      <point x="509" y="1660" type="curve" smooth="yes"/>
      <point x="509" y="1612"/>
      <point x="633" y="1485"/>
      <point x="679" y="1485" type="curve" smooth="yes"/>
    </contour>
    <contour>
      <point x="1094" y="171" type="line"/>
      <point x="616" y="99" type="line"/>
      <point x="616" y="659" type="line"/>
      <point x="694" y="640"/>
      <point x="774" y="629"/>
      <point x="854" y="622" type="curve"/>
      <point x="901" y="464" type="line"/>
      <point x="1006" y="447" type="line"/>
      <point x="1023" y="930" type="line"/>
      <point x="921" y="950" type="line"/>
      <point x="854" y="781" type="line"/>
      <point x="773" y="772"/>
      <point x="693" y="758"/>
      <point x="616" y="741" type="curve"/>
      <point x="616" y="1296" type="line"/>
      <point x="1039" y="1227" type="line"/>
      <point x="1133" y="1020" type="line"/>
      <point x="1274" y="1046" type="line"/>
      <point x="1235" y="1397" type="line"/>
      <point x="1090" y="1384" type="line"/>
      <point x="78" y="1384" type="line"/>
      <point x="60" y="1304" type="line"/>
      <point x="247" y="1221" type="line"/>
      <point x="247" y="166" type="line"/>
      <point x="64" y="90" type="line"/>
      <point x="47" y="0" type="line"/>
      <point x="1269" y="0" type="line"/>
      <point x="1347" y="354" type="line"/>
      <point x="1215" y="371" type="line"/>
    </contour>
  </outline>
</glyph>
<glyph name="Eogonek" format="1">
  <advance width="1384"/>
  <unicode hex="0118"/>
  <outline>
    <contour>
      <point x="1080" y="-355"/>
      <point x="1068" y="-352"/>
      <point x="1058" y="-347" type="curve" smooth="yes"/>
      <point x="1017" y="-327"/>
      <point x="993" y="-273"/>
      <point x="993" y="-226" type="curve" smooth="yes"/>
      <point x="993" y="-159"/>
      <point x="1055" y="-101"/>
      <point x="1180" y="0" type="curve"/>
      <point x="1269" y="0" type="line"/>
      <point x="1347" y="354" type="line"/>
      <point x="1215" y="371" type="line"/>
      <point x="1094" y="171" type="line"/>
      <point x="616" y="99" type="line"/>
      <point x="616" y="659" type="line"/>
      <point x="694" y="640"/>
      <point x="774" y="629"/>
      <point x="854" y="622" type="curve"/>
      <point x="901" y="464" type="line"/>
      <point x="1006" y="447" type="line"/>
      <point x="1023" y="930" type="line"/>
      <point x="921" y="950" type="line"/>
      <point x="854" y="781" type="line"/>
      <point x="773" y="772"/>
      <point x="693" y="758"/>
      <point x="616" y="741" type="curve"/>
      <point x="616" y="1296" type="line"/>
      <point x="1039" y="1227" type="line"/>
      <point x="1133" y="1020" type="line"/>
      <point x="1274" y="1046" type="line"/>
      <point x="1235" y="1397" type="line"/>
      <point x="1090" y="1384" type="line"/>
      <point x="78" y="1384" type="line"/>
      <point x="60" y="1304" type="line"/>
      <point x="247" y="1221" type="line"/>
      <point x="247" y="166" type="line"/>
      <point x="64" y="90" type="line"/>
      <point x="47" y="0" type="line"/>
      <point x="975" y="0" type="line"/>
      <point x="921" y="-25"/>
      <point x="866" y="-58"/>
      <point x="821" y="-97" type="curve" smooth="yes"/>
      <point x="764" y="-146"/>
      <point x="724" y="-207"/>
      <point x="724" y="-277" type="curve" smooth="yes"/>
      <point x="724" y="-440"/>
      <point x="857" y="-504"/>
      <point x="987" y="-504" type="curve" smooth="yes"/>
      <point x="1105" y="-504"/>
      <point x="1215" y="-450"/>
      <point x="1297" y="-352" type="curve"/>
      <point x="1269" y="-307" type="line"/>
      <point x="1204" y="-335"/>
      <point x="1132" y="-355"/>
      <point x="1092" y="-355" type="curve" smooth="yes"/>
    </contour>
  </outline>
</glyph>
<glyph name="Ecaron" format="1">
  <advance width="1384"/>
  <unicode hex="011A"/>
  <outline>
    <contour>
      <point x="330" y="1748" type="line"/>
      <point x="614" y="1515" type="line"/>
      <point x="759" y="1515" type="line"/>
      <point x="1043" y="1748" type="line"/>
      <point x="949" y="1827" type="line"/>
      <point x="686" y="1702" type="line"/>
      <point x="424" y="1827" type="line"/>
    </contour>
    <contour>
      <point x="1094" y="171" type="line"/>
      <point x="616" y="99" type="line"/>
      <point x="616" y="659" type="line"/>
      <point x="694" y="640"/>
      <point x="774" y="629"/>
      <point x="854" y="622" type="curve"/>
      <point x="901" y="464" type="line"/>
      <point x="1006" y="447" type="line"/>
      <point x="1023" y="930" type="line"/>
      <point x="921" y="950" type="line"/>
      <point x="854" y="781" type="line"/>
      <point x="773" y="772"/>
      <point x="693" y="758"/>
      <point x="616" y="741" type="curve"/>
      <point x="616" y="1296" type="line"/>
      <point x="1039" y="1227" type="line"/>
      <point x="1133" y="1020" type="line"/>
      <point x="1274" y="1046" type="line"/>
      <point x="1235" y="1397" type="line"/>
      <point x="1090" y="1384" type="line"/>
      <point x="78" y="1384" type="line"/>
      <point x="60" y="1304" type="line"/>
      <point x="247" y="1221" type="line"/>
      <point x="247" y="166" type="line"/>
      <point x="64" y="90" type="line"/>
      <point x="47" y="0" type="line"/>
      <point x="1269" y="0" type="line"/>
      <point x="1347" y="354" type="line"/>
      <point x="1215" y="371" type="line"/>
    </contour>
  </outline>
</glyph>
<glyph name="ecaron" format="1">
  <advance width="1051"/>
  <unicode hex="011B"/>
  <outline>
    <contour>
      <point x="440" y="1090" type="line"/>
      <point x="650" y="1090" type="line"/>
      <point x="930" y="1373" type="line"/>
      <point x="789" y="1424" type="line"/>
      <point x="545" y="1273" type="line"/>
      <point x="301" y="1424" type="line"/>
      <point x="160" y="1373" type="line"/>
    </contour>
    <contour>
      <point x="257" y="975"/>
      <point x="51" y="728"/>
      <point x="51" y="464" type="curve" smooth="yes"/>
      <point x="51" y="121"/>
      <point x="304" y="-25"/>
      <point x="538" y="-25" type="curve" smooth="yes"/>
      <point x="699" y="-25"/>
      <point x="857" y="33"/>
      <point x="948" y="150" type="curve"/>
      <point x="933" y="183" type="line"/>
      <point x="901" y="177"/>
      <point x="725" y="153"/>
      <point x="638" y="153" type="curve" smooth="yes"/>
      <point x="523" y="153"/>
      <point x="420" y="294"/>
      <point x="393" y="444" type="curve"/>
      <point x="911" y="444" type="line" smooth="yes"/>
      <point x="950" y="444"/>
      <point x="969" y="457"/>
      <point x="980" y="479" type="curve" smooth="yes"/>
      <point x="1001" y="522"/>
      <point x="1008" y="568"/>
      <point x="1008" y="622" type="curve" smooth="yes"/>
      <point x="1008" y="821"/>
      <point x="849" y="975"/>
      <point x="593" y="975" type="curve" smooth="yes"/>
    </contour>
    <contour>
      <point x="386" y="534" type="line"/>
      <point x="387" y="680"/>
      <point x="406" y="764"/>
      <point x="436" y="810" type="curve" smooth="yes"/>
      <point x="447" y="828"/>
      <point x="468" y="829"/>
      <point x="487" y="829" type="curve" smooth="yes"/>
      <point x="600" y="829"/>
      <point x="700" y="745"/>
      <point x="720" y="582" type="curve"/>
    </contour>
  </outline>
</glyph>
<glyph name="gbreve" format="1">
  <advance width="1169"/>
  <unicode hex="011F"/>
  <outline>
    <contour>
      <point x="762" y="1051"/>
      <point x="900" y="1174"/>
      <point x="900" y="1308" type="curve" smooth="yes"/>
      <point x="900" y="1327"/>
      <point x="898" y="1348"/>
      <point x="888" y="1381" type="curve"/>
      <point x="725" y="1381" type="line"/>
      <point x="700" y="1260"/>
      <point x="645" y="1219"/>
      <point x="569" y="1219" type="curve" smooth="yes"/>
      <point x="490" y="1219"/>
      <point x="431" y="1261"/>
      <point x="405" y="1380" type="curve"/>
      <point x="242" y="1381" type="line"/>
      <point x="232" y="1349"/>
      <point x="230" y="1326"/>
      <point x="230" y="1307" type="curve" smooth="yes"/>
      <point x="230" y="1174"/>
      <point x="369" y="1051"/>
      <point x="568" y="1051" type="curve" smooth="yes"/>
    </contour>
    <contour>
      <point x="492" y="144"/>
      <point x="433" y="146"/>
      <point x="399" y="158" type="curve" smooth="yes"/>
      <point x="385" y="163"/>
      <point x="372" y="175"/>
      <point x="372" y="190" type="curve" smooth="yes"/>
      <point x="372" y="216"/>
      <point x="384" y="250"/>
      <point x="394" y="280" type="curve"/>
      <point x="441" y="271"/>
      <point x="493" y="267"/>
      <point x="550" y="267" type="curve" smooth="yes"/>
      <point x="802" y="267"/>
      <point x="1024" y="401"/>
      <point x="1024" y="651" type="curve" smooth="yes"/>
      <point x="1024" y="690"/>
      <point x="1017" y="725"/>
      <point x="1005" y="756" type="curve"/>
      <point x="1183" y="948" type="line"/>
      <point x="1163" y="986" type="line"/>
      <point x="1048" y="986"/>
      <point x="942" y="959"/>
      <point x="854" y="914" type="curve"/>
      <point x="775" y="956"/>
      <point x="680" y="975"/>
      <point x="592" y="975" type="curve" smooth="yes"/>
      <point x="244" y="975"/>
      <point x="93" y="794"/>
      <point x="93" y="582" type="curve" smooth="yes"/>
      <point x="93" y="448"/>
      <point x="168" y="352"/>
      <point x="304" y="303" type="curve"/>
      <point x="202" y="281"/>
      <point x="63" y="222"/>
      <point x="63" y="103" type="curve" smooth="yes"/>
      <point x="63" y="4"/>
      <point x="123" y="-44"/>
      <point x="198" y="-70" type="curve"/>
      <point x="95" y="-104"/>
      <point x="-1" y="-169"/>
      <point x="-1" y="-283" type="curve" smooth="yes"/>
      <point x="-1" y="-346"/>
      <point x="32" y="-391"/>
      <point x="83" y="-423" type="curve" smooth="yes"/>
      <point x="184" y="-487"/>
      <point x="357" y="-500"/>
      <point x="491" y="-500" type="curve" smooth="yes"/>
      <point x="930" y="-500"/>
      <point x="1127" y="-304"/>
      <point x="1127" y="-67" type="curve" smooth="yes"/>
      <point x="1127" y="46"/>
      <point x="1090" y="144"/>
      <point x="846" y="144" type="curve" smooth="yes"/>
    </contour>
    <contour>
      <point x="461" y="852"/>
      <point x="492" y="854"/>
      <point x="514" y="854" type="curve" smooth="yes"/>
      <point x="652" y="854"/>
      <point x="711" y="723"/>
      <point x="711" y="606" type="curve" smooth="yes"/>
      <point x="711" y="482"/>
      <point x="698" y="423"/>
      <point x="682" y="407" type="curve" smooth="yes"/>
      <point x="670" y="395"/>
      <point x="650" y="389"/>
      <point x="618" y="389" type="curve" smooth="yes"/>
      <point x="483" y="389"/>
      <point x="418" y="535"/>
      <point x="418" y="701" type="curve" smooth="yes"/>
      <point x="418" y="748"/>
      <point x="428" y="809"/>
      <point x="448" y="835" type="curve" smooth="yes"/>
    </contour>
    <contour>
      <point x="746" y="-363"/>
      <point x="669" y="-370"/>
      <point x="613" y="-370" type="curve" smooth="yes"/>
      <point x="476" y="-370"/>
      <point x="308" y="-333"/>
      <point x="270" y="-281" type="curve" smooth="yes"/>
      <point x="263" y="-272"/>
      <point x="262" y="-259"/>
      <point x="262" y="-245" type="curve" smooth="yes"/>
      <point x="262" y="-206"/>
      <point x="278" y="-141"/>
      <point x="298" y="-94" type="curve"/>
      <point x="429" y="-114"/>
      <point x="621" y="-114"/>
      <point x="757" y="-114" type="curve" smooth="yes"/>
      <point x="826" y="-114"/>
      <point x="831" y="-136"/>
      <point x="831" y="-174" type="curve" smooth="yes"/>
      <point x="831" y="-256"/>
      <point x="792" y="-328"/>
      <point x="781" y="-337" type="curve"/>
    </contour>
  </outline>
</glyph>
<glyph name="Gcommaaccent" format="1">
  <advance width="1528"/>
  <unicode hex="0122"/>
  <outline>
    <contour>
      <point x="737" y="584" type="line"/>
      <point x="1015" y="498" type="line"/>
      <point x="1015" y="151" type="line"/>
      <point x="976" y="132"/>
      <point x="904" y="121"/>
      <point x="851" y="121" type="curve" smooth="yes"/>
      <point x="770" y="121"/>
      <point x="665" y="143"/>
      <point x="584" y="241" type="curve" smooth="yes"/>
      <point x="508" y="332"/>
      <point x="452" y="490"/>
      <point x="452" y="722" type="curve" smooth="yes"/>
      <point x="452" y="954"/>
      <point x="487" y="1162"/>
      <point x="568" y="1231" type="curve" smooth="yes"/>
      <point x="602" y="1260"/>
      <point x="700" y="1271"/>
      <point x="777" y="1271" type="curve" smooth="yes"/>
      <point x="895" y="1271"/>
      <point x="1030" y="1236"/>
      <point x="1119" y="1164" type="curve"/>
      <point x="1188" y="998" type="line"/>
      <point x="1328" y="1018" type="line"/>
      <point x="1285" y="1399" type="line"/>
      <point x="1123" y="1386" type="line"/>
      <point x="1018" y="1408"/>
      <point x="903" y="1418"/>
      <point x="806" y="1418" type="curve" smooth="yes"/>
      <point x="624" y="1418"/>
      <point x="467" y="1364"/>
      <point x="345" y="1269" type="curve" smooth="yes"/>
      <point x="172" y="1134"/>
      <point x="71" y="916"/>
      <point x="71" y="653" type="curve" smooth="yes"/>
      <point x="71" y="431"/>
      <point x="137" y="264"/>
      <point x="254" y="150" type="curve" smooth="yes"/>
      <point x="382" y="26"/>
      <point x="572" y="-35"/>
      <point x="807" y="-35" type="curve" smooth="yes"/>
      <point x="1047" y="-35"/>
      <point x="1279" y="86"/>
      <point x="1377" y="214" type="curve"/>
      <point x="1378" y="490" type="line"/>
      <point x="1500" y="577" type="line"/>
      <point x="1514" y="666" type="line"/>
      <point x="752" y="666" type="line"/>
    </contour>
    <contour>
      <point x="682" y="-282" type="line"/>
      <point x="762" y="-297"/>
      <point x="815" y="-320"/>
      <point x="816" y="-348" type="curve" smooth="yes"/>
      <point x="817" y="-376"/>
      <point x="803" y="-394"/>
      <point x="673" y="-479" type="curve"/>
      <point x="703" y="-561" type="line"/>
      <point x="806" y="-561"/>
      <point x="1009" y="-482"/>
      <point x="1009" y="-319" type="curve" smooth="yes"/>
      <point x="1009" y="-259"/>
      <point x="987" y="-214"/>
      <point x="941" y="-176" type="curve" smooth="yes"/>
      <point x="881" y="-126"/>
      <point x="798" y="-106"/>
      <point x="722" y="-106" type="curve"/>
    </contour>
  </outline>
</glyph>
<glyph name="Imacron" format="1">
  <advance width="864"/>
  <unicode hex="012A"/>
  <outline>
    <contour>
      <point x="130" y="1717" type="line"/>
      <point x="95" y="1528" type="line"/>
      <point x="239" y="1528"/>
      <point x="554" y="1531"/>
      <point x="735" y="1540" type="curve"/>
      <point x="767" y="1717" type="line"/>
    </contour>
    <contour>
      <point x="246" y="165" type="line"/>
      <point x="69" y="85" type="line"/>
      <point x="51" y="0" type="line"/>
      <point x="789" y="0" type="line"/>
      <point x="806" y="81" type="line"/>
      <point x="615" y="165" type="line"/>
      <point x="615" y="1219" type="line"/>
      <point x="797" y="1301" type="line"/>
      <point x="812" y="1384" type="line"/>
      <point x="76" y="1384" type="line"/>
      <point x="59" y="1303" type="line"/>
      <point x="246" y="1221" type="line"/>
    </contour>
  </outline>
</glyph>
<glyph name="Iogonek" format="1">
  <advance width="864"/>
  <unicode hex="012E"/>
  <outline>
    <contour>
      <point x="246" y="165" type="line"/>
      <point x="67" y="87" type="line"/>
      <point x="53" y="0" type="line"/>
      <point x="496" y="0" type="line"/>
      <point x="370" y="-43"/>
      <point x="210" y="-132"/>
      <point x="210" y="-277" type="curve" smooth="yes"/>
      <point x="210" y="-440"/>
      <point x="343" y="-504"/>
      <point x="473" y="-504" type="curve" smooth="yes"/>
      <point x="634" y="-504"/>
      <point x="733" y="-404"/>
      <point x="783" y="-353" type="curve"/>
      <point x="754" y="-305" type="line"/>
      <point x="698" y="-337"/>
      <point x="618" y="-355"/>
      <point x="578" y="-355" type="curve" smooth="yes"/>
      <point x="566" y="-355"/>
      <point x="554" y="-352"/>
      <point x="544" y="-347" type="curve" smooth="yes"/>
      <point x="503" y="-327"/>
      <point x="479" y="-273"/>
      <point x="479" y="-226" type="curve" smooth="yes"/>
      <point x="479" y="-159"/>
      <point x="612" y="0"/>
      <point x="789" y="0" type="curve"/>
      <point x="806" y="84" type="line"/>
      <point x="615" y="165" type="line"/>
      <point x="615" y="1219" type="line"/>
      <point x="795" y="1300" type="line"/>
      <point x="813" y="1384" type="line"/>
      <point x="77" y="1384" type="line"/>
      <point x="59" y="1304" type="line"/>
      <point x="246" y="1221" type="line"/>
    </contour>
  </outline>
</glyph>
<glyph name="Kcommaaccent" format="1">
  <advance width="1614"/>
  <unicode hex="0136"/>
  <outline>
    <contour>
      <point x="247" y="165" type="line"/>
      <point x="68" y="86" type="line"/>
      <point x="52" y="0" type="line"/>
      <point x="790" y="0" type="line"/>
      <point x="808" y="81" type="line"/>
      <point x="616" y="165" type="line"/>
      <point x="616" y="1216" type="line"/>
      <point x="759" y="1297" type="line"/>
      <point x="776" y="1384" type="line"/>
      <point x="77" y="1384" type="line"/>
      <point x="59" y="1304" type="line"/>
      <point x="247" y="1221" type="line"/>
    </contour>
    <contour>
      <point x="1430" y="162" type="line"/>
      <point x="1055" y="751" type="line"/>
      <point x="1396" y="1226" type="line"/>
      <point x="1581" y="1297" type="line"/>
      <point x="1600" y="1384" type="line"/>
      <point x="941" y="1384" type="line"/>
      <point x="922" y="1308" type="line"/>
      <point x="1046" y="1226" type="line"/>
      <point x="686" y="701" type="line"/>
      <point x="1034" y="87" type="line"/>
      <point x="1015" y="0" type="line"/>
      <point x="1601" y="0" type="line"/>
      <point x="1619" y="82" type="line"/>
    </contour>
    <contour>
      <point x="631" y="-282" type="line"/>
      <point x="711" y="-297"/>
      <point x="764" y="-320"/>
      <point x="765" y="-348" type="curve" smooth="yes"/>
      <point x="766" y="-376"/>
      <point x="752" y="-394"/>
      <point x="622" y="-479" type="curve"/>
      <point x="652" y="-561" type="line"/>
      <point x="755" y="-561"/>
      <point x="958" y="-482"/>
      <point x="958" y="-319" type="curve" smooth="yes"/>
      <point x="958" y="-259"/>
      <point x="936" y="-214"/>
      <point x="890" y="-176" type="curve" smooth="yes"/>
      <point x="830" y="-126"/>
      <point x="747" y="-106"/>
      <point x="671" y="-106" type="curve"/>
    </contour>
  </outline>
</glyph>
<glyph name="kcommaaccent" format="1">
  <advance width="1305"/>
  <unicode hex="0137"/>
  <outline>
    <contour>
      <point x="33" y="1365" type="line"/>
      <point x="171" y="1271" type="line"/>
      <point x="171" y="150" type="line"/>
      <point x="39" y="72" type="line"/>
      <point x="26" y="0" type="line"/>
      <point x="633" y="0" type="line"/>
      <point x="647" y="59" type="line"/>
      <point x="515" y="140" type="line"/>
      <point x="515" y="1472" type="line"/>
      <point x="42" y="1412" type="line"/>
    </contour>
    <contour>
      <point x="1190" y="126" type="line"/>
      <point x="884" y="625" type="line"/>
      <point x="1082" y="819" type="line"/>
      <point x="1224" y="875" type="line"/>
      <point x="1240" y="950" type="line"/>
      <point x="743" y="950" type="line"/>
      <point x="729" y="889" type="line"/>
      <point x="830" y="824" type="line"/>
      <point x="557" y="550" type="line"/>
      <point x="821" y="65" type="line"/>
      <point x="809" y="0" type="line"/>
      <point x="1297" y="0" type="line"/>
      <point x="1314" y="61" type="line"/>
    </contour>
    <contour>
      <point x="540" y="-282" type="line"/>
      <point x="620" y="-297"/>
      <point x="673" y="-320"/>
      <point x="674" y="-348" type="curve" smooth="yes"/>
      <point x="675" y="-376"/>
      <point x="661" y="-394"/>
      <point x="531" y="-479" type="curve"/>
      <point x="561" y="-561" type="line"/>
      <point x="664" y="-561"/>
      <point x="867" y="-482"/>
      <point x="867" y="-319" type="curve" smooth="yes"/>
      <point x="867" y="-259"/>
      <point x="845" y="-214"/>
      <point x="799" y="-176" type="curve" smooth="yes"/>
      <point x="739" y="-126"/>
      <point x="656" y="-106"/>
      <point x="580" y="-106" type="curve"/>
    </contour>
  </outline>
</glyph>
<glyph name="Lcommaaccent" format="1">
  <advance width="1280"/>
  <unicode hex="013B"/>
  <outline>
    <contour>
      <point x="1156" y="370" type="line"/>
      <point x="1035" y="172" type="line"/>
      <point x="616" y="100" type="line"/>
      <point x="616" y="1218" type="line"/>
      <point x="805" y="1299" type="line"/>
      <point x="821" y="1384" type="line"/>
      <point x="77" y="1384" type="line"/>
      <point x="59" y="1303" type="line"/>
      <point x="247" y="1221" type="line"/>
      <point x="247" y="166" type="line"/>
      <point x="68" y="85" type="line"/>
      <point x="52" y="0" type="line"/>
      <point x="1208" y="0" type="line"/>
      <point x="1290" y="354" type="line"/>
    </contour>
    <contour>
      <point x="473" y="-282" type="line"/>
      <point x="553" y="-297"/>
      <point x="606" y="-320"/>
      <point x="607" y="-348" type="curve" smooth="yes"/>
      <point x="608" y="-376"/>
      <point x="594" y="-394"/>
      <point x="464" y="-479" type="curve"/>
      <point x="494" y="-561" type="line"/>
      <point x="597" y="-561"/>
      <point x="800" y="-482"/>
      <point x="800" y="-319" type="curve" smooth="yes"/>
      <point x="800" y="-259"/>
      <point x="778" y="-214"/>
      <point x="732" y="-176" type="curve" smooth="yes"/>
      <point x="672" y="-126"/>
      <point x="589" y="-106"/>
      <point x="513" y="-106" type="curve"/>
    </contour>
  </outline>
</glyph>
<glyph name="lcommaaccent" format="1">
  <advance width="681"/>
  <unicode hex="013C"/>
  <outline>
    <contour>
      <point x="33" y="1365" type="line"/>
      <point x="171" y="1271" type="line"/>
      <point x="171" y="150" type="line"/>
      <point x="39" y="72" type="line"/>
      <point x="26" y="0" type="line"/>
      <point x="633" y="0" type="line"/>
      <point x="647" y="59" type="line"/>
      <point x="515" y="140" type="line"/>
      <point x="515" y="1472" type="line"/>
      <point x="42" y="1412" type="line"/>
    </contour>
    <contour>
      <point x="179" y="-282" type="line"/>
      <point x="259" y="-297"/>
      <point x="312" y="-320"/>
      <point x="313" y="-348" type="curve" smooth="yes"/>
      <point x="314" y="-376"/>
      <point x="300" y="-394"/>
      <point x="170" y="-479" type="curve"/>
      <point x="200" y="-561" type="line"/>
      <point x="303" y="-561"/>
      <point x="506" y="-482"/>
      <point x="506" y="-319" type="curve" smooth="yes"/>
      <point x="506" y="-259"/>
      <point x="484" y="-214"/>
      <point x="438" y="-176" type="curve" smooth="yes"/>
      <point x="378" y="-126"/>
      <point x="295" y="-106"/>
      <point x="219" y="-106" type="curve"/>
    </contour>
  </outline>
</glyph>
<glyph name="Lcaron" format="1">
  <advance width="1280"/>
  <unicode hex="013D"/>
  <outline>
    <contour>
      <point x="999" y="818" type="line"/>
      <point x="1146" y="947"/>
      <point x="1268" y="1142"/>
      <point x="1268" y="1280" type="curve" smooth="yes"/>
      <point x="1268" y="1318"/>
      <point x="1262" y="1354"/>
      <point x="1238" y="1398" type="curve"/>
      <point x="1133" y="1397"/>
      <point x="1037" y="1382"/>
      <point x="944" y="1364" type="curve"/>
      <point x="922" y="1220" type="line"/>
      <point x="1041" y="1171" type="line"/>
      <point x="1002" y="1060"/>
      <point x="955" y="953"/>
      <point x="901" y="845" type="curve"/>
    </contour>
    <contour>
      <point x="1156" y="370" type="line"/>
      <point x="1035" y="172" type="line"/>
      <point x="616" y="100" type="line"/>
      <point x="616" y="1218" type="line"/>
      <point x="805" y="1299" type="line"/>
      <point x="821" y="1384" type="line"/>
      <point x="77" y="1384" type="line"/>
      <point x="59" y="1303" type="line"/>
      <point x="247" y="1221" type="line"/>
      <point x="247" y="166" type="line"/>
      <point x="68" y="85" type="line"/>
      <point x="52" y="0" type="line"/>
      <point x="1208" y="0" type="line"/>
      <point x="1290" y="354" type="line"/>
    </contour>
  </outline>
</glyph>
<glyph name="lcaron" format="1">
  <advance width="681"/>
  <unicode hex="013E"/>
  <outline>
    <contour>
      <point x="33" y="1365" type="line"/>
      <point x="171" y="1271" type="line"/>
      <point x="171" y="150" type="line"/>
      <point x="39" y="72" type="line"/>
      <point x="26" y="0" type="line"/>
      <point x="633" y="0" type="line"/>
      <point x="647" y="59" type="line"/>
      <point x="515" y="140" type="line"/>
      <point x="515" y="1472" type="line"/>
      <point x="42" y="1412" type="line"/>
    </contour>
    <contour>
      <point x="673" y="881" type="line"/>
      <point x="820" y="1010"/>
      <point x="942" y="1205"/>
      <point x="942" y="1343" type="curve" smooth="yes"/>
      <point x="942" y="1381"/>
      <point x="936" y="1417"/>
      <point x="912" y="1461" type="curve"/>
      <point x="807" y="1460"/>
      <point x="711" y="1445"/>
      <point x="618" y="1427" type="curve"/>
      <point x="596" y="1283" type="line"/>
      <point x="715" y="1234" type="line"/>
      <point x="676" y="1123"/>
      <point x="629" y="1016"/>
      <point x="575" y="908" type="curve"/>
    </contour>
  </outline>
</glyph>
<glyph name="Lslash" format="1">
  <advance width="1280"/>
  <unicode hex="0141"/>
  <outline>
    <contour>
      <point x="1290" y="354" type="line"/>
      <point x="1156" y="370" type="line"/>
      <point x="1035" y="172" type="line"/>
      <point x="616" y="100" type="line"/>
      <point x="616" y="677" type="line"/>
      <point x="1089" y="898" type="line"/>
      <point x="1045" y="1092" type="line"/>
      <point x="616" y="900" type="line"/>
      <point x="616" y="1218" type="line"/>
      <point x="805" y="1299" type="line"/>
      <point x="821" y="1384" type="line"/>
      <point x="77" y="1384" type="line"/>
      <point x="59" y="1303" type="line"/>
      <point x="247" y="1221" type="line"/>
      <point x="247" y="734" type="line"/>
      <point x="-23" y="613" type="line"/>
      <point x="22" y="399" type="line"/>
      <point x="247" y="504" type="line"/>
      <point x="247" y="166" type="line"/>
      <point x="68" y="85" type="line"/>
      <point x="52" y="0" type="line"/>
      <point x="1208" y="0" type="line"/>
    </contour>
  </outline>
</glyph>
<glyph name="lslash" format="1">
  <advance width="673"/>
  <unicode hex="0142"/>
  <outline>
    <contour>
      <point x="515" y="140" type="line"/>
      <point x="515" y="780" type="line"/>
      <point x="772" y="907" type="line"/>
      <point x="722" y="1072" type="line"/>
      <point x="515" y="969" type="line"/>
      <point x="515" y="1472" type="line"/>
      <point x="42" y="1412" type="line"/>
      <point x="33" y="1365" type="line"/>
      <point x="171" y="1271" type="line"/>
      <point x="171" y="797" type="line"/>
      <point x="-54" y="684" type="line"/>
      <point x="-11" y="519" type="line"/>
      <point x="171" y="609" type="line"/>
      <point x="171" y="150" type="line"/>
      <point x="39" y="72" type="line"/>
      <point x="26" y="0" type="line"/>
      <point x="633" y="0" type="line"/>
      <point x="647" y="59" type="line"/>
    </contour>
  </outline>
</glyph>
<glyph name="Ncommaaccent" format="1">
  <advance width="1601"/>
  <unicode hex="0145"/>
  <outline>
    <contour>
      <point x="245" y="164" type="line"/>
      <point x="73" y="83" type="line"/>
      <point x="58" y="0" type="line"/>
      <point x="639" y="0" type="line"/>
      <point x="657" y="81" type="line"/>
      <point x="448" y="163" type="line"/>
      <point x="448" y="452"/>
      <point x="448" y="740"/>
      <point x="409" y="1029" type="curve"/>
      <point x="1058" y="-25" type="line"/>
      <point x="1381" y="15" type="line"/>
      <point x="1381" y="1220" type="line"/>
      <point x="1549" y="1300" type="line"/>
      <point x="1565" y="1384" type="line"/>
      <point x="989" y="1384" type="line"/>
      <point x="973" y="1301" type="line"/>
      <point x="1175" y="1221" type="line"/>
      <point x="1175" y="937"/>
      <point x="1175" y="653"/>
      <point x="1213" y="369" type="curve"/>
      <point x="584" y="1384" type="line"/>
      <point x="75" y="1384" type="line"/>
      <point x="58" y="1302" type="line"/>
      <point x="245" y="1221" type="line"/>
    </contour>
    <contour>
      <point x="632" y="-282" type="line"/>
      <point x="712" y="-297"/>
      <point x="765" y="-320"/>
      <point x="766" y="-348" type="curve" smooth="yes"/>
      <point x="767" y="-376"/>
      <point x="753" y="-394"/>
      <point x="623" y="-479" type="curve"/>
      <point x="653" y="-561" type="line"/>
      <point x="756" y="-561"/>
      <point x="959" y="-482"/>
      <point x="959" y="-319" type="curve" smooth="yes"/>
      <point x="959" y="-259"/>
      <point x="937" y="-214"/>
      <point x="891" y="-176" type="curve" smooth="yes"/>
      <point x="831" y="-126"/>
      <point x="748" y="-106"/>
      <point x="672" y="-106" type="curve"/>
    </contour>
  </outline>
</glyph>
<glyph name="ncommaaccent" format="1">
  <advance width="1350"/>
  <unicode hex="0146"/>
  <outline>
    <contour>
      <point x="51" y="860" type="line"/>
      <point x="188" y="767" type="line"/>
      <point x="188" y="150" type="line"/>
      <point x="57" y="72" type="line"/>
      <point x="43" y="0" type="line"/>
      <point x="644" y="0" type="line"/>
      <point x="657" y="59" type="line"/>
      <point x="533" y="140" type="line"/>
      <point x="532" y="698" type="line"/>
      <point x="532" y="728"/>
      <point x="524" y="748"/>
      <point x="524" y="748" type="curve"/>
      <point x="574" y="766"/>
      <point x="697" y="777"/>
      <point x="770" y="777" type="curve" smooth="yes"/>
      <point x="788" y="777"/>
      <point x="797" y="774"/>
      <point x="806" y="764" type="curve" smooth="yes"/>
      <point x="825" y="743"/>
      <point x="843" y="672"/>
      <point x="843" y="553" type="curve" smooth="yes"/>
      <point x="843" y="150" type="line"/>
      <point x="765" y="67" type="line"/>
      <point x="752" y="0" type="line"/>
      <point x="1323" y="0" type="line"/>
      <point x="1339" y="62" type="line"/>
      <point x="1187" y="140" type="line"/>
      <point x="1187" y="621" type="line" smooth="yes"/>
      <point x="1187" y="912"/>
      <point x="1026" y="975"/>
      <point x="879" y="975" type="curve" smooth="yes"/>
      <point x="758" y="975"/>
      <point x="649" y="925"/>
      <point x="501" y="807" type="curve"/>
      <point x="437" y="965" type="line"/>
      <point x="59" y="909" type="line"/>
    </contour>
    <contour>
      <point x="546" y="-282" type="line"/>
      <point x="626" y="-297"/>
      <point x="679" y="-320"/>
      <point x="680" y="-348" type="curve" smooth="yes"/>
      <point x="681" y="-376"/>
      <point x="667" y="-394"/>
      <point x="537" y="-479" type="curve"/>
      <point x="567" y="-561" type="line"/>
      <point x="670" y="-561"/>
      <point x="873" y="-482"/>
      <point x="873" y="-319" type="curve" smooth="yes"/>
      <point x="873" y="-259"/>
      <point x="851" y="-214"/>
      <point x="805" y="-176" type="curve" smooth="yes"/>
      <point x="745" y="-126"/>
      <point x="662" y="-106"/>
      <point x="586" y="-106" type="curve"/>
    </contour>
  </outline>
</glyph>
<glyph name="ncaron" format="1">
  <advance width="1350"/>
  <unicode hex="0148"/>
  <outline>
    <contour>
      <point x="964" y="1424" type="line"/>
      <point x="720" y="1273" type="line"/>
      <point x="476" y="1424" type="line"/>
      <point x="335" y="1373" type="line"/>
      <point x="615" y="1090" type="line"/>
      <point x="825" y="1090" type="line"/>
      <point x="1105" y="1373" type="line"/>
    </contour>
    <contour>
      <point x="51" y="860" type="line"/>
      <point x="188" y="767" type="line"/>
      <point x="188" y="150" type="line"/>
      <point x="57" y="72" type="line"/>
      <point x="43" y="0" type="line"/>
      <point x="644" y="0" type="line"/>
      <point x="657" y="59" type="line"/>
      <point x="533" y="140" type="line"/>
      <point x="532" y="698" type="line"/>
      <point x="532" y="728"/>
      <point x="524" y="748"/>
      <point x="524" y="748" type="curve"/>
      <point x="574" y="766"/>
      <point x="697" y="777"/>
      <point x="770" y="777" type="curve" smooth="yes"/>
      <point x="788" y="777"/>
      <point x="797" y="774"/>
      <point x="806" y="764" type="curve" smooth="yes"/>
      <point x="825" y="743"/>
      <point x="843" y="672"/>
      <point x="843" y="553" type="curve" smooth="yes"/>
      <point x="843" y="150" type="line"/>
      <point x="765" y="67" type="line"/>
      <point x="752" y="0" type="line"/>
      <point x="1323" y="0" type="line"/>
      <point x="1339" y="62" type="line"/>
      <point x="1187" y="140" type="line"/>
      <point x="1187" y="621" type="line" smooth="yes"/>
      <point x="1187" y="912"/>
      <point x="1026" y="975"/>
      <point x="879" y="975" type="curve" smooth="yes"/>
      <point x="758" y="975"/>
      <point x="649" y="925"/>
      <point x="501" y="807" type="curve"/>
      <point x="437" y="965" type="line"/>
      <point x="59" y="909" type="line"/>
    </contour>
  </outline>
</glyph>
<glyph name="Ohungarumlaut" format="1">
  <advance width="1542"/>
  <unicode hex="0150"/>
  <outline>
    <contour>
      <point x="664" y="1820" type="line"/>
      <point x="462" y="1601" type="line"/>
      <point x="545" y="1470" type="line"/>
      <point x="875" y="1717" type="line"/>
      <point x="854" y="1820" type="line"/>
    </contour>
    <contour>
      <point x="1043" y="1820" type="line"/>
      <point x="841" y="1601" type="line"/>
      <point x="924" y="1470" type="line"/>
      <point x="1254" y="1717" type="line"/>
      <point x="1233" y="1820" type="line"/>
    </contour>
    <contour>
      <point x="69" y="211"/>
      <point x="366" y="-35"/>
      <point x="745" y="-35" type="curve" smooth="yes"/>
      <point x="1198" y="-35"/>
      <point x="1473" y="335"/>
      <point x="1473" y="762" type="curve" smooth="yes"/>
      <point x="1473" y="1173"/>
      <point x="1171" y="1419"/>
      <point x="816" y="1419" type="curve" smooth="yes"/>
      <point x="325" y="1419"/>
      <point x="69" y="1041"/>
      <point x="69" y="623" type="curve" smooth="yes"/>
    </contour>
    <contour>
      <point x="461" y="412"/>
      <point x="452" y="579"/>
      <point x="452" y="767" type="curve" smooth="yes"/>
      <point x="452" y="901"/>
      <point x="474" y="1145"/>
      <point x="550" y="1219" type="curve" smooth="yes"/>
      <point x="587" y="1256"/>
      <point x="651" y="1258"/>
      <point x="700" y="1258" type="curve" smooth="yes"/>
      <point x="852" y="1258"/>
      <point x="994" y="1151"/>
      <point x="1050" y="986" type="curve" smooth="yes"/>
      <point x="1084" y="884"/>
      <point x="1090" y="781"/>
      <point x="1090" y="618" type="curve" smooth="yes"/>
      <point x="1090" y="488"/>
      <point x="1065" y="260"/>
      <point x="1011" y="188" type="curve" smooth="yes"/>
      <point x="975" y="140"/>
      <point x="897" y="126"/>
      <point x="840" y="126" type="curve" smooth="yes"/>
      <point x="721" y="126"/>
      <point x="616" y="184"/>
      <point x="548" y="284" type="curve" smooth="yes"/>
    </contour>
  </outline>
</glyph>
<glyph name="OE" format="1">
  <advance width="2078"/>
  <unicode hex="0152"/>
  <outline>
    <contour>
      <point x="1963" y="0" type="line"/>
      <point x="2040" y="354" type="line"/>
      <point x="1910" y="371" type="line"/>
      <point x="1788" y="171" type="line"/>
      <point x="1340" y="99" type="line"/>
      <point x="1340" y="659" type="line"/>
      <point x="1386" y="644"/>
      <point x="1536" y="622"/>
      <point x="1558" y="622" type="curve"/>
      <point x="1604" y="463" type="line"/>
      <point x="1710" y="448" type="line"/>
      <point x="1727" y="929" type="line"/>
      <point x="1624" y="948" type="line"/>
      <point x="1558" y="781" type="line"/>
      <point x="1531" y="780"/>
      <point x="1393" y="758"/>
      <point x="1340" y="741" type="curve"/>
      <point x="1340" y="1296" type="line"/>
      <point x="1733" y="1227" type="line"/>
      <point x="1828" y="1021" type="line"/>
      <point x="1968" y="1044" type="line"/>
      <point x="1930" y="1397" type="line"/>
      <point x="1784" y="1384" type="line"/>
      <point x="1039" y="1384" type="line"/>
      <point x="969" y="1407"/>
      <point x="893" y="1419"/>
      <point x="816" y="1419" type="curve" smooth="yes"/>
      <point x="325" y="1419"/>
      <point x="69" y="1041"/>
      <point x="69" y="623" type="curve" smooth="yes"/>
      <point x="69" y="211"/>
      <point x="366" y="-35"/>
      <point x="745" y="-35" type="curve" smooth="yes"/>
      <point x="827" y="-35"/>
      <point x="904" y="-22"/>
      <point x="974" y="0" type="curve"/>
    </contour>
    <contour>
      <point x="721" y="125"/>
      <point x="616" y="183"/>
      <point x="548" y="283" type="curve" smooth="yes"/>
      <point x="461" y="411"/>
      <point x="452" y="578"/>
      <point x="452" y="766" type="curve" smooth="yes"/>
      <point x="452" y="900"/>
      <point x="474" y="1144"/>
      <point x="550" y="1218" type="curve" smooth="yes"/>
      <point x="587" y="1255"/>
      <point x="651" y="1257"/>
      <point x="700" y="1257" type="curve" smooth="yes"/>
      <point x="802" y="1257"/>
      <point x="901" y="1214"/>
      <point x="971" y="1141" type="curve"/>
      <point x="971" y="153" type="line"/>
      <point x="932" y="132"/>
      <point x="880" y="125"/>
      <point x="840" y="125" type="curve" smooth="yes"/>
    </contour>
  </outline>
</glyph>
<glyph name="racute" format="1">
  <advance width="977"/>
  <unicode hex="0155"/>
  <outline>
    <contour>
      <point x="593" y="1472" type="line"/>
      <point x="313" y="1203" type="line"/>
      <point x="342" y="1042" type="line"/>
      <point x="795" y="1277" type="line"/>
      <point x="756" y="1472" type="line"/>
    </contour>
    <contour>
      <point x="51" y="859" type="line"/>
      <point x="188" y="767" type="line"/>
      <point x="188" y="150" type="line"/>
      <point x="57" y="73" type="line"/>
      <point x="42" y="0" type="line"/>
      <point x="793" y="0" type="line"/>
      <point x="808" y="65" type="line"/>
      <point x="532" y="140" type="line"/>
      <point x="532" y="729" type="line"/>
      <point x="556" y="748"/>
      <point x="613" y="772"/>
      <point x="645" y="781" type="curve"/>
      <point x="664" y="684" type="line"/>
      <point x="687" y="658"/>
      <point x="742" y="621"/>
      <point x="775" y="621" type="curve" smooth="yes"/>
      <point x="830" y="621"/>
      <point x="979" y="767"/>
      <point x="979" y="823" type="curve" smooth="yes"/>
      <point x="979" y="853"/>
      <point x="940" y="897"/>
      <point x="890" y="930" type="curve" smooth="yes"/>
      <point x="849" y="957"/>
      <point x="805" y="975"/>
      <point x="767" y="975" type="curve" smooth="yes"/>
      <point x="667" y="975"/>
      <point x="583" y="928"/>
      <point x="510" y="799" type="curve"/>
      <point x="436" y="960" type="line"/>
      <point x="59" y="909" type="line"/>
    </contour>
  </outline>
</glyph>
<glyph name="Rcommaaccent" format="1">
  <advance width="1512"/>
  <unicode hex="0156"/>
  <outline>
    <contour>
      <point x="247" y="164" type="line"/>
      <point x="69" y="83" type="line"/>
      <point x="52" y="0" type="line"/>
      <point x="783" y="0" type="line"/>
      <point x="809" y="94" type="line"/>
      <point x="616" y="176" type="line"/>
      <point x="616" y="1304" type="line"/>
      <point x="783" y="1295"/>
      <point x="986" y="1213"/>
      <point x="986" y="1022" type="curve" smooth="yes"/>
      <point x="986" y="895"/>
      <point x="911" y="761"/>
      <point x="731" y="686" type="curve"/>
      <point x="1011" y="87" type="line"/>
      <point x="991" y="0" type="line"/>
      <point x="1508" y="0" type="line"/>
      <point x="1526" y="79" type="line"/>
      <point x="1347" y="171" type="line"/>
      <point x="1084" y="679" type="line"/>
      <point x="1247" y="735"/>
      <point x="1357" y="843"/>
      <point x="1357" y="1007" type="curve" smooth="yes"/>
      <point x="1357" y="1140"/>
      <point x="1299" y="1226"/>
      <point x="1214" y="1283" type="curve" smooth="yes"/>
      <point x="1088" y="1367"/>
      <point x="901" y="1384"/>
      <point x="750" y="1384" type="curve" smooth="yes"/>
      <point x="77" y="1384" type="line"/>
      <point x="60" y="1303" type="line"/>
      <point x="247" y="1221" type="line"/>
    </contour>
    <contour>
      <point x="603" y="-282" type="line"/>
      <point x="683" y="-297"/>
      <point x="736" y="-320"/>
      <point x="737" y="-348" type="curve" smooth="yes"/>
      <point x="738" y="-376"/>
      <point x="724" y="-394"/>
      <point x="594" y="-479" type="curve"/>
      <point x="624" y="-561" type="line"/>
      <point x="727" y="-561"/>
      <point x="930" y="-482"/>
      <point x="930" y="-319" type="curve" smooth="yes"/>
      <point x="930" y="-259"/>
      <point x="908" y="-214"/>
      <point x="862" y="-176" type="curve" smooth="yes"/>
      <point x="802" y="-126"/>
      <point x="719" y="-106"/>
      <point x="643" y="-106" type="curve"/>
    </contour>
  </outline>
</glyph>
<glyph name="rcommaaccent" format="1">
  <advance width="977"/>
  <unicode hex="0157"/>
  <outline>
    <contour>
      <point x="51" y="859" type="line"/>
      <point x="188" y="767" type="line"/>
      <point x="188" y="150" type="line"/>
      <point x="57" y="73" type="line"/>
      <point x="42" y="0" type="line"/>
      <point x="793" y="0" type="line"/>
      <point x="808" y="65" type="line"/>
      <point x="532" y="140" type="line"/>
      <point x="532" y="729" type="line"/>
      <point x="556" y="748"/>
      <point x="613" y="772"/>
      <point x="645" y="781" type="curve"/>
      <point x="664" y="684" type="line"/>
      <point x="687" y="658"/>
      <point x="742" y="621"/>
      <point x="775" y="621" type="curve" smooth="yes"/>
      <point x="830" y="621"/>
      <point x="979" y="767"/>
      <point x="979" y="823" type="curve" smooth="yes"/>
      <point x="979" y="853"/>
      <point x="940" y="897"/>
      <point x="890" y="930" type="curve" smooth="yes"/>
      <point x="849" y="957"/>
      <point x="805" y="975"/>
      <point x="767" y="975" type="curve" smooth="yes"/>
      <point x="667" y="975"/>
      <point x="583" y="928"/>
      <point x="510" y="799" type="curve"/>
      <point x="436" y="960" type="line"/>
      <point x="59" y="909" type="line"/>
    </contour>
    <contour>
      <point x="205" y="-282" type="line"/>
      <point x="285" y="-297"/>
      <point x="338" y="-320"/>
      <point x="339" y="-348" type="curve" smooth="yes"/>
      <point x="340" y="-376"/>
      <point x="326" y="-394"/>
      <point x="196" y="-479" type="curve"/>
      <point x="226" y="-561" type="line"/>
      <point x="329" y="-561"/>
      <point x="532" y="-482"/>
      <point x="532" y="-319" type="curve" smooth="yes"/>
      <point x="532" y="-259"/>
      <point x="510" y="-214"/>
      <point x="464" y="-176" type="curve" smooth="yes"/>
      <point x="404" y="-126"/>
      <point x="321" y="-106"/>
      <point x="245" y="-106" type="curve"/>
    </contour>
  </outline>
</glyph>
<glyph name="rcaron" format="1">
  <advance width="977"/>
  <unicode hex="0159"/>
  <outline>
    <contour>
      <point x="747" y="1424" type="line"/>
      <point x="503" y="1273" type="line"/>
      <point x="259" y="1424" type="line"/>
      <point x="118" y="1373" type="line"/>
      <point x="398" y="1090" type="line"/>
      <point x="608" y="1090" type="line"/>
      <point x="888" y="1373" type="line"/>
    </contour>
    <contour>
      <point x="51" y="859" type="line"/>
      <point x="188" y="767" type="line"/>
      <point x="188" y="150" type="line"/>
      <point x="57" y="73" type="line"/>
      <point x="42" y="0" type="line"/>
      <point x="793" y="0" type="line"/>
      <point x="808" y="65" type="line"/>
      <point x="532" y="140" type="line"/>
      <point x="532" y="729" type="line"/>
      <point x="556" y="748"/>
      <point x="613" y="772"/>
      <point x="645" y="781" type="curve"/>
      <point x="664" y="684" type="line"/>
      <point x="687" y="658"/>
      <point x="742" y="621"/>
      <point x="775" y="621" type="curve" smooth="yes"/>
      <point x="830" y="621"/>
      <point x="979" y="767"/>
      <point x="979" y="823" type="curve" smooth="yes"/>
      <point x="979" y="853"/>
      <point x="940" y="897"/>
      <point x="890" y="930" type="curve" smooth="yes"/>
      <point x="849" y="957"/>
      <point x="805" y="975"/>
      <point x="767" y="975" type="curve" smooth="yes"/>
      <point x="667" y="975"/>
      <point x="583" y="928"/>
      <point x="510" y="799" type="curve"/>
      <point x="436" y="960" type="line"/>
      <point x="59" y="909" type="line"/>
    </contour>
  </outline>
</glyph>
<glyph name="scedilla" format="1">
  <advance width="977"/>
  <unicode hex="015F"/>
  <outline>
    <contour>
      <point x="920" y="395"/>
      <point x="857" y="462"/>
      <point x="785" y="504" type="curve" smooth="yes"/>
      <point x="700" y="554"/>
      <point x="551" y="602"/>
      <point x="456" y="644" type="curve" smooth="yes"/>
      <point x="389" y="673"/>
      <point x="368" y="694"/>
      <point x="368" y="716" type="curve" smooth="yes"/>
      <point x="368" y="734"/>
      <point x="374" y="745"/>
      <point x="388" y="763" type="curve" smooth="yes"/>
      <point x="428" y="814"/>
      <point x="527" y="869"/>
      <point x="584" y="885" type="curve"/>
      <point x="617" y="707" type="line"/>
      <point x="638" y="676"/>
      <point x="694" y="625"/>
      <point x="729" y="625" type="curve" smooth="yes"/>
      <point x="763" y="625"/>
      <point x="910" y="759"/>
      <point x="910" y="832" type="curve" smooth="yes"/>
      <point x="910" y="871"/>
      <point x="818" y="919"/>
      <point x="786" y="934" type="curve" smooth="yes"/>
      <point x="709" y="968"/>
      <point x="613" y="975"/>
      <point x="526" y="975" type="curve" smooth="yes"/>
      <point x="315" y="975"/>
      <point x="77" y="884"/>
      <point x="77" y="663" type="curve" smooth="yes"/>
      <point x="77" y="519"/>
      <point x="160" y="447"/>
      <point x="246" y="396" type="curve" smooth="yes"/>
      <point x="334" y="344"/>
      <point x="447" y="297"/>
      <point x="516" y="272" type="curve" smooth="yes"/>
      <point x="568" y="253"/>
      <point x="598" y="239"/>
      <point x="598" y="216" type="curve" smooth="yes"/>
      <point x="598" y="203"/>
      <point x="588" y="191"/>
      <point x="573" y="180" type="curve"/>
      <point x="516" y="135"/>
      <point x="368" y="95"/>
      <point x="285" y="95" type="curve"/>
      <point x="229" y="311" type="line"/>
      <point x="108" y="334" type="line"/>
      <point x="51" y="56" type="line"/>
      <point x="163" y="-3"/>
      <point x="280" y="-23"/>
      <point x="410" y="-25" type="curve"/>
      <point x="373" y="-73"/>
      <point x="331" y="-146"/>
      <point x="327" y="-187" type="curve"/>
      <point x="432" y="-204"/>
      <point x="526" y="-230"/>
      <point x="526" y="-282" type="curve" smooth="yes"/>
      <point x="526" y="-306"/>
      <point x="510" y="-354"/>
      <point x="303" y="-422" type="curve"/>
      <point x="335" y="-510" type="line"/>
      <point x="474" y="-510"/>
      <point x="732" y="-442"/>
      <point x="732" y="-272" type="curve" smooth="yes"/>
      <point x="732" y="-162"/>
      <point x="664" y="-102"/>
      <point x="519" y="-83" type="curve"/>
      <point x="541" y="-19" type="line"/>
      <point x="732" y="3"/>
      <point x="920" y="86"/>
      <point x="920" y="297" type="curve" smooth="yes"/>
    </contour>
  </outline>
</glyph>
